M48
; DRILL file {KiCad 8.0.3} date 2024-07-18T12:33:39+0200
; FORMAT={-:-/ absolute / inch / decimal}
; #@! TF.CreationDate,2024-07-18T12:33:39+02:00
; #@! TF.GenerationSoftware,Kicad,Pcbnew,8.0.3
; #@! TF.FileFunction,MixedPlating,1,2
FMAT,2
INCH
; #@! TA.AperFunction,Plated,PTH,ViaDrill
T1C0.0118
; #@! TA.AperFunction,Plated,PTH,ComponentDrill
T2C0.0276
; #@! TA.AperFunction,Plated,PTH,ComponentDrill
T3C0.0354
; #@! TA.AperFunction,Plated,PTH,ComponentDrill
T4C0.0394
; #@! TA.AperFunction,Plated,PTH,ComponentDrill
T5C0.0402
; #@! TA.AperFunction,Plated,PTH,ComponentDrill
T6C0.0512
; #@! TA.AperFunction,Plated,PTH,ComponentDrill
T7C0.0591
; #@! TA.AperFunction,Plated,PTH,ComponentDrill
T8C0.0728
; #@! TA.AperFunction,NonPlated,NPTH,ComponentDrill
T9C0.0591
; #@! TA.AperFunction,NonPlated,NPTH,ComponentDrill
T10C0.0709
%
G90
G05
T1
X3.2087Y-4.6654
X3.2677Y-4.7244
X5.315Y-2.6575
X5.3543Y-2.5787
T2
X3.5039Y-3.2661
X3.5039Y-3.4661
X3.6614Y-3.2677
X3.6614Y-3.4677
X4.8606Y-2.0866
X4.8606Y-2.2441
X5.0606Y-2.0866
X5.0606Y-2.2441
T3
X2.4575Y-1.6339
X2.5197Y-4.1535
X2.5197Y-4.5535
X2.5197Y-4.8622
X2.5197Y-5.2622
X2.5295Y-2.7165
X2.5295Y-3.1165
X2.5295Y-3.422
X2.5295Y-3.822
X2.5394Y-1.9685
X2.5394Y-2.3685
X2.7362Y-5.4921
X2.8575Y-1.6339
X3.1362Y-5.4921
X3.2646Y-1.6339
X3.4646Y-5.4921
X3.6646Y-1.6339
X3.8646Y-5.4921
X4.052Y-1.6339
X4.311Y-5.4921
X4.452Y-1.6339
X4.711Y-5.4921
X4.8984Y-1.6339
X5.0953Y-5.4921
X5.2984Y-1.6339
X5.4953Y-5.4921
X5.6071Y-1.6142
X5.8827Y-5.4921
X6.0071Y-1.6142
X6.1614Y-1.8307
X6.1614Y-2.2307
X6.1614Y-2.5787
X6.1614Y-2.9787
X6.1614Y-3.2252
X6.1614Y-3.6252
X6.1811Y-3.9173
X6.1811Y-4.3173
X6.1811Y-4.8197
X6.1811Y-5.2197
X6.2827Y-5.4921
T4
X1.8307Y-0.8661
X1.8307Y-1.437
X1.9291Y-1.437
X2.0276Y-0.8661
X2.0276Y-1.437
X6.6339Y-0.876
X6.6339Y-1.4469
X6.7323Y-1.4469
X6.8307Y-0.876
X6.8307Y-1.4469
T5
X4.0398Y-2.7705
X4.0398Y-2.8705
X4.0398Y-2.9705
X4.0398Y-3.0705
X4.0398Y-3.1705
X4.0398Y-3.2705
X4.0398Y-3.3705
X4.0398Y-3.4705
X4.0398Y-3.5705
X4.0398Y-3.6705
X4.0398Y-3.7705
X4.0398Y-3.8705
X4.0398Y-3.9705
X4.0398Y-4.0705
X4.0398Y-4.1705
X4.0398Y-4.2705
X4.0398Y-4.3705
X4.0398Y-4.4705
X4.0398Y-4.5705
X4.0398Y-4.6705
X4.2898Y-4.6614
X4.3898Y-4.6614
X4.4898Y-4.6614
X4.7398Y-2.7705
X4.7398Y-2.8705
X4.7398Y-2.9705
X4.7398Y-3.0705
X4.7398Y-3.1705
X4.7398Y-3.2705
X4.7398Y-3.3705
X4.7398Y-3.4705
X4.7398Y-3.5705
X4.7398Y-3.6705
X4.7398Y-3.7705
X4.7398Y-3.8705
X4.7398Y-3.9705
X4.7398Y-4.0705
X4.7398Y-4.1705
X4.7398Y-4.2705
X4.7398Y-4.3705
X4.7398Y-4.4705
X4.7398Y-4.5705
X4.7398Y-4.6705
T6
X1.7323Y-1.7126
X1.7323Y-1.9094
X1.7323Y-2.5787
X1.7323Y-2.7756
X1.7323Y-3.4449
X1.7323Y-3.6417
X1.7323Y-4.311
X1.7323Y-4.5079
X1.7323Y-5.187
X1.7323Y-5.3839
X2.2244Y-1.7126
X2.2244Y-1.9094
X2.2244Y-2.5787
X2.2244Y-2.7756
X2.2244Y-3.4449
X2.2244Y-3.6417
X2.2244Y-4.311
X2.2244Y-4.5079
X2.2244Y-5.187
X2.2244Y-5.3839
X2.3622Y-1.063
X2.3622Y-1.2598
X2.3622Y-5.7874
X2.3622Y-5.9843
X2.8543Y-1.063
X2.8543Y-1.2598
X2.8543Y-5.7874
X2.8543Y-5.9843
X3.2185Y-1.063
X3.2185Y-1.2598
X3.2185Y-5.7874
X3.2185Y-5.9843
X3.7106Y-1.063
X3.7106Y-1.2598
X3.7106Y-5.7874
X3.7106Y-5.9843
X4.0748Y-5.7874
X4.0748Y-5.9843
X4.0846Y-1.063
X4.0846Y-1.2598
X4.5669Y-5.7874
X4.5669Y-5.9843
X4.5768Y-1.063
X4.5768Y-1.2598
X4.9311Y-5.7874
X4.9311Y-5.9843
X4.9705Y-1.063
X4.9705Y-1.2598
X5.4232Y-5.7874
X5.4232Y-5.9843
X5.4626Y-1.063
X5.4626Y-1.2598
X5.7874Y-5.7874
X5.7874Y-5.9843
X5.8268Y-1.063
X5.8268Y-1.2598
X6.2795Y-5.7874
X6.2795Y-5.9843
X6.3189Y-1.063
X6.3189Y-1.2598
X6.4173Y-1.7126
X6.4173Y-1.9094
X6.4173Y-2.5787
X6.4173Y-2.7756
X6.4173Y-3.4449
X6.4173Y-3.6417
X6.4173Y-4.311
X6.4173Y-4.5079
X6.4173Y-5.187
X6.4173Y-5.3839
X6.9094Y-1.7126
X6.9094Y-1.9094
X6.9094Y-2.5787
X6.9094Y-2.7756
X6.9094Y-3.4449
X6.9094Y-3.6417
X6.9094Y-4.311
X6.9094Y-4.5079
X6.9094Y-5.187
X6.9094Y-5.3839
T8
X1.8701Y-5.7677
X1.8701Y-5.9528
X1.8701Y-6.1378
X6.7913Y-5.7598
X6.7913Y-5.9449
X6.7913Y-6.1299
T9
X4.2943Y-2.8949
X4.4852Y-2.8949
T10
X4.2825Y-2.7756
X4.497Y-2.7756
T7
G00X1.7087Y-1.1673
M15
G01X1.7087Y-1.1161
M16
G05
G00X2.1496Y-1.1673
M15
G01X2.1496Y-1.1161
M16
G05
G00X6.5118Y-1.1772
M15
G01X6.5118Y-1.126
M16
G05
G00X6.9528Y-1.1772
M15
G01X6.9528Y-1.126
M16
G05
M30
