G04 #@! TF.GenerationSoftware,KiCad,Pcbnew,8.0.3*
G04 #@! TF.CreationDate,2024-07-18T12:32:46+02:00*
G04 #@! TF.ProjectId,MFD,4d46442e-6b69-4636-9164-5f7063625858,1.0*
G04 #@! TF.SameCoordinates,Original*
G04 #@! TF.FileFunction,Copper,L2,Bot*
G04 #@! TF.FilePolarity,Positive*
%FSLAX46Y46*%
G04 Gerber Fmt 4.6, Leading zero omitted, Abs format (unit mm)*
G04 Created by KiCad (PCBNEW 8.0.3) date 2024-07-18 12:32:46*
%MOMM*%
%LPD*%
G01*
G04 APERTURE LIST*
G04 #@! TA.AperFunction,ComponentPad*
%ADD10R,1.800000X1.800000*%
G04 #@! TD*
G04 #@! TA.AperFunction,ComponentPad*
%ADD11O,1.800000X1.800000*%
G04 #@! TD*
G04 #@! TA.AperFunction,ComponentPad*
%ADD12O,3.200000X1.900000*%
G04 #@! TD*
G04 #@! TA.AperFunction,ComponentPad*
%ADD13C,1.400000*%
G04 #@! TD*
G04 #@! TA.AperFunction,ComponentPad*
%ADD14O,1.400000X1.400000*%
G04 #@! TD*
G04 #@! TA.AperFunction,ComponentPad*
%ADD15R,2.000000X2.000000*%
G04 #@! TD*
G04 #@! TA.AperFunction,ComponentPad*
%ADD16C,2.000000*%
G04 #@! TD*
G04 #@! TA.AperFunction,ComponentPad*
%ADD17R,2.000000X3.200000*%
G04 #@! TD*
G04 #@! TA.AperFunction,ComponentPad*
%ADD18R,2.775000X2.775000*%
G04 #@! TD*
G04 #@! TA.AperFunction,ComponentPad*
%ADD19C,2.775000*%
G04 #@! TD*
G04 #@! TA.AperFunction,ComponentPad*
%ADD20O,1.700000X1.700000*%
G04 #@! TD*
G04 #@! TA.AperFunction,SMDPad,CuDef*
%ADD21R,3.500000X1.700000*%
G04 #@! TD*
G04 #@! TA.AperFunction,ComponentPad*
%ADD22R,1.700000X1.700000*%
G04 #@! TD*
G04 #@! TA.AperFunction,SMDPad,CuDef*
%ADD23R,1.700000X3.500000*%
G04 #@! TD*
G04 #@! TA.AperFunction,ViaPad*
%ADD24C,0.600000*%
G04 #@! TD*
G04 #@! TA.AperFunction,Conductor*
%ADD25C,0.200000*%
G04 #@! TD*
G04 APERTURE END LIST*
D10*
X156500000Y-92080000D03*
D11*
X156500000Y-81920000D03*
D10*
X64000000Y-115660000D03*
D11*
X64000000Y-105500000D03*
D12*
X116000000Y-152000000D03*
X103500000Y-152000000D03*
X116000000Y-147000000D03*
X103500000Y-147000000D03*
X163000000Y-131750000D03*
X175500000Y-131750000D03*
X163000000Y-136750000D03*
X175500000Y-136750000D03*
D10*
X88000000Y-139500000D03*
D11*
X98160000Y-139500000D03*
D12*
X163000000Y-87500000D03*
X175500000Y-87500000D03*
X163000000Y-92500000D03*
X175500000Y-92500000D03*
D13*
X89000000Y-82960000D03*
D14*
X89000000Y-88040000D03*
D12*
X148000000Y-27000000D03*
X160500000Y-27000000D03*
X148000000Y-32000000D03*
X160500000Y-32000000D03*
X163000000Y-43500000D03*
X175500000Y-43500000D03*
X163000000Y-48500000D03*
X175500000Y-48500000D03*
X94250000Y-152000000D03*
X81750000Y-152000000D03*
X94250000Y-147000000D03*
X81750000Y-147000000D03*
X44000000Y-43500000D03*
X56500000Y-43500000D03*
X44000000Y-48500000D03*
X56500000Y-48500000D03*
D10*
X149420000Y-139500000D03*
D11*
X159580000Y-139500000D03*
D13*
X123460000Y-57000000D03*
D14*
X128540000Y-57000000D03*
D12*
X163000000Y-109500000D03*
X175500000Y-109500000D03*
X163000000Y-114500000D03*
X175500000Y-114500000D03*
D10*
X156500000Y-56660000D03*
D11*
X156500000Y-46500000D03*
D10*
X69500000Y-139500000D03*
D11*
X79660000Y-139500000D03*
D10*
X157000000Y-132580000D03*
D11*
X157000000Y-122420000D03*
D12*
X163000000Y-65500000D03*
X175500000Y-65500000D03*
X163000000Y-70500000D03*
X175500000Y-70500000D03*
D15*
X46500000Y-36500000D03*
D16*
X51500000Y-36500000D03*
X49000000Y-36500000D03*
D17*
X43400000Y-29000000D03*
X54600000Y-29000000D03*
D16*
X51500000Y-22000000D03*
X46500000Y-22000000D03*
D10*
X109500000Y-139500000D03*
D11*
X119660000Y-139500000D03*
D13*
X93000000Y-83000000D03*
D14*
X93000000Y-88080000D03*
D10*
X102920000Y-41500000D03*
D11*
X113080000Y-41500000D03*
D10*
X62420000Y-41500000D03*
D11*
X72580000Y-41500000D03*
D12*
X44000000Y-65500000D03*
X56500000Y-65500000D03*
X44000000Y-70500000D03*
X56500000Y-70500000D03*
D18*
X172500000Y-146300000D03*
D19*
X172500000Y-151000000D03*
X172500000Y-155700000D03*
D12*
X126250000Y-27000000D03*
X138750000Y-27000000D03*
X126250000Y-32000000D03*
X138750000Y-32000000D03*
D10*
X64250000Y-79160000D03*
D11*
X64250000Y-69000000D03*
D10*
X157000000Y-109660000D03*
D11*
X157000000Y-99500000D03*
D10*
X156500000Y-75660000D03*
D11*
X156500000Y-65500000D03*
D10*
X82920000Y-41500000D03*
D11*
X93080000Y-41500000D03*
D10*
X129420000Y-139500000D03*
D11*
X139580000Y-139500000D03*
D15*
X168500000Y-36750000D03*
D16*
X173500000Y-36750000D03*
X171000000Y-36750000D03*
D17*
X165400000Y-29250000D03*
X176600000Y-29250000D03*
D16*
X173500000Y-22250000D03*
X168500000Y-22250000D03*
D12*
X60000000Y-27000000D03*
X72500000Y-27000000D03*
X60000000Y-32000000D03*
X72500000Y-32000000D03*
X44000000Y-109500000D03*
X56500000Y-109500000D03*
X44000000Y-114500000D03*
X56500000Y-114500000D03*
X159500000Y-152000000D03*
X147000000Y-152000000D03*
X159500000Y-147000000D03*
X147000000Y-147000000D03*
X72500000Y-152000000D03*
X60000000Y-152000000D03*
X72500000Y-147000000D03*
X60000000Y-147000000D03*
D10*
X142420000Y-41000000D03*
D11*
X152580000Y-41000000D03*
D12*
X103750000Y-27000000D03*
X116250000Y-27000000D03*
X103750000Y-32000000D03*
X116250000Y-32000000D03*
X44000000Y-131750000D03*
X56500000Y-131750000D03*
X44000000Y-136750000D03*
X56500000Y-136750000D03*
D10*
X64250000Y-97080000D03*
D11*
X64250000Y-86920000D03*
D18*
X47500000Y-146500000D03*
D19*
X47500000Y-151200000D03*
X47500000Y-155900000D03*
D12*
X81750000Y-27000000D03*
X94250000Y-27000000D03*
X81750000Y-32000000D03*
X94250000Y-32000000D03*
X137750000Y-152000000D03*
X125250000Y-152000000D03*
X137750000Y-147000000D03*
X125250000Y-147000000D03*
D13*
X123460000Y-53000000D03*
D14*
X128540000Y-53000000D03*
D10*
X64500000Y-60160000D03*
D11*
X64500000Y-50000000D03*
D10*
X64000000Y-133660000D03*
D11*
X64000000Y-123500000D03*
D10*
X124420000Y-41500000D03*
D11*
X134580000Y-41500000D03*
D12*
X44000000Y-87500000D03*
X56500000Y-87500000D03*
X44000000Y-92500000D03*
X56500000Y-92500000D03*
D20*
X120390000Y-70370000D03*
D21*
X121290000Y-70370000D03*
D20*
X120390000Y-72910000D03*
D21*
X121290000Y-72910000D03*
D22*
X120390000Y-75450000D03*
D21*
X121290000Y-75450000D03*
D20*
X120390000Y-77990000D03*
D21*
X121290000Y-77990000D03*
D20*
X120390000Y-80530000D03*
D21*
X121290000Y-80530000D03*
D20*
X120390000Y-83070000D03*
D21*
X121290000Y-83070000D03*
D20*
X120390000Y-85610000D03*
D21*
X121290000Y-85610000D03*
D22*
X120390000Y-88150000D03*
D21*
X121290000Y-88150000D03*
D20*
X120390000Y-90690000D03*
D21*
X121290000Y-90690000D03*
D20*
X120390000Y-93230000D03*
D21*
X121290000Y-93230000D03*
D20*
X120390000Y-95770000D03*
D21*
X121290000Y-95770000D03*
D20*
X120390000Y-98310000D03*
D21*
X121290000Y-98310000D03*
D22*
X120390000Y-100850000D03*
D21*
X121290000Y-100850000D03*
D20*
X120390000Y-103390000D03*
D21*
X121290000Y-103390000D03*
D20*
X120390000Y-105930000D03*
D21*
X121290000Y-105930000D03*
D20*
X120390000Y-108470000D03*
D21*
X121290000Y-108470000D03*
D20*
X120390000Y-111010000D03*
D21*
X121290000Y-111010000D03*
D22*
X120390000Y-113550000D03*
D21*
X121290000Y-113550000D03*
D20*
X120390000Y-116090000D03*
D21*
X121290000Y-116090000D03*
D20*
X120390000Y-118630000D03*
D21*
X121290000Y-118630000D03*
D20*
X102610000Y-118630000D03*
D21*
X101710000Y-118630000D03*
D20*
X102610000Y-116090000D03*
D21*
X101710000Y-116090000D03*
D22*
X102610000Y-113550000D03*
D21*
X101710000Y-113550000D03*
D20*
X102610000Y-111010000D03*
D21*
X101710000Y-111010000D03*
D20*
X102610000Y-108470000D03*
D21*
X101710000Y-108470000D03*
D20*
X102610000Y-105930000D03*
D21*
X101710000Y-105930000D03*
D20*
X102610000Y-103390000D03*
D21*
X101710000Y-103390000D03*
D22*
X102610000Y-100850000D03*
D21*
X101710000Y-100850000D03*
D20*
X102610000Y-98310000D03*
D21*
X101710000Y-98310000D03*
D20*
X102610000Y-95770000D03*
D21*
X101710000Y-95770000D03*
D20*
X102610000Y-93230000D03*
D21*
X101710000Y-93230000D03*
D20*
X102610000Y-90690000D03*
D21*
X101710000Y-90690000D03*
D22*
X102610000Y-88150000D03*
D21*
X101710000Y-88150000D03*
D20*
X102610000Y-85610000D03*
D21*
X101710000Y-85610000D03*
D20*
X102610000Y-83070000D03*
D21*
X101710000Y-83070000D03*
D20*
X102610000Y-80530000D03*
D21*
X101710000Y-80530000D03*
D20*
X102610000Y-77990000D03*
D21*
X101710000Y-77990000D03*
D22*
X102610000Y-75450000D03*
D21*
X101710000Y-75450000D03*
D20*
X102610000Y-72910000D03*
D21*
X101710000Y-72910000D03*
D20*
X102610000Y-70370000D03*
D21*
X101710000Y-70370000D03*
D20*
X114040000Y-118400000D03*
D23*
X114040000Y-119300000D03*
D22*
X111500000Y-118400000D03*
D23*
X111500000Y-119300000D03*
D20*
X108960000Y-118400000D03*
D23*
X108960000Y-119300000D03*
D24*
X136000000Y-65500000D03*
X135000000Y-67500000D03*
X81500000Y-118500000D03*
X83000000Y-120000000D03*
D25*
X120390000Y-103390000D02*
X128110000Y-103390000D01*
X128110000Y-103390000D02*
X136000000Y-95500000D01*
X120390000Y-95770000D02*
X119000000Y-97160000D01*
X119280000Y-104780000D02*
X128220000Y-104780000D01*
X119000000Y-97160000D02*
X119000000Y-104500000D01*
X119000000Y-104500000D02*
X119280000Y-104780000D01*
X128220000Y-104780000D02*
X137000000Y-96000000D01*
X137000000Y-96000000D02*
X137000000Y-62000000D01*
X137000000Y-62000000D02*
X136000000Y-61000000D01*
X136000000Y-61000000D02*
X135974314Y-61000000D01*
X135974314Y-61000000D02*
X131974314Y-57000000D01*
X131974314Y-57000000D02*
X128540000Y-57000000D01*
X72580000Y-41500000D02*
X72580000Y-32080000D01*
X60000000Y-32000000D02*
X72500000Y-32000000D01*
X72580000Y-32080000D02*
X72500000Y-32000000D01*
X93080000Y-41500000D02*
X93080000Y-33170000D01*
X81750000Y-32000000D02*
X94250000Y-32000000D01*
X93080000Y-33170000D02*
X94250000Y-32000000D01*
X113080000Y-41500000D02*
X116250000Y-38330000D01*
X103750000Y-32000000D02*
X116250000Y-32000000D01*
X116250000Y-38330000D02*
X116250000Y-32000000D01*
X138750000Y-37330000D02*
X134580000Y-41500000D01*
X126250000Y-32000000D02*
X138750000Y-32000000D01*
X138750000Y-32000000D02*
X138750000Y-37330000D01*
X152580000Y-41000000D02*
X152580000Y-36580000D01*
X148000000Y-32000000D02*
X160500000Y-32000000D01*
X152580000Y-36580000D02*
X148000000Y-32000000D01*
X163000000Y-136750000D02*
X175500000Y-136750000D01*
X163000000Y-136750000D02*
X163000000Y-135600000D01*
X157000000Y-129600000D02*
X157000000Y-122420000D01*
X163000000Y-135600000D02*
X157000000Y-129600000D01*
X163000000Y-111917767D02*
X157000000Y-105917767D01*
X157000000Y-105917767D02*
X157000000Y-99500000D01*
X163000000Y-114500000D02*
X163000000Y-111917767D01*
X163000000Y-114500000D02*
X175500000Y-114500000D01*
X156500000Y-81920000D02*
X156500000Y-86000000D01*
X163000000Y-92500000D02*
X175500000Y-92500000D01*
X156500000Y-86000000D02*
X163000000Y-92500000D01*
X158000000Y-65500000D02*
X163000000Y-70500000D01*
X156500000Y-65500000D02*
X158000000Y-65500000D01*
X163000000Y-70500000D02*
X175500000Y-70500000D01*
X157000000Y-46500000D02*
X159000000Y-48500000D01*
X159000000Y-48500000D02*
X163000000Y-48500000D01*
X163000000Y-48500000D02*
X175500000Y-48500000D01*
X156500000Y-46500000D02*
X157000000Y-46500000D01*
X159500000Y-147000000D02*
X159500000Y-139580000D01*
X159500000Y-139580000D02*
X159580000Y-139500000D01*
X159500000Y-147000000D02*
X147000000Y-147000000D01*
X137750000Y-141330000D02*
X139580000Y-139500000D01*
X137750000Y-147000000D02*
X125250000Y-147000000D01*
X137750000Y-147000000D02*
X137750000Y-141330000D01*
X119660000Y-143340000D02*
X116000000Y-147000000D01*
X116000000Y-147000000D02*
X103500000Y-147000000D01*
X119660000Y-139500000D02*
X119660000Y-143340000D01*
X94250000Y-147000000D02*
X81750000Y-147000000D01*
X98160000Y-139500000D02*
X94250000Y-143410000D01*
X94250000Y-143410000D02*
X94250000Y-147000000D01*
X79660000Y-139500000D02*
X72500000Y-146660000D01*
X72500000Y-146660000D02*
X72500000Y-147000000D01*
X72500000Y-147000000D02*
X60000000Y-147000000D01*
X44000000Y-48500000D02*
X56500000Y-48500000D01*
X56500000Y-48500000D02*
X63000000Y-48500000D01*
X63000000Y-48500000D02*
X64500000Y-50000000D01*
X56500000Y-70500000D02*
X62750000Y-70500000D01*
X44000000Y-70500000D02*
X56500000Y-70500000D01*
X62750000Y-70500000D02*
X64250000Y-69000000D01*
X58670000Y-92500000D02*
X64250000Y-86920000D01*
X44000000Y-92500000D02*
X56500000Y-92500000D01*
X56500000Y-92500000D02*
X58670000Y-92500000D01*
X56500000Y-113000000D02*
X64000000Y-105500000D01*
X44000000Y-114500000D02*
X56500000Y-114500000D01*
X56500000Y-114500000D02*
X56500000Y-113000000D01*
X62500000Y-125000000D02*
X64000000Y-123500000D01*
X44000000Y-136750000D02*
X56500000Y-136750000D01*
X56500000Y-136750000D02*
X62500000Y-130750000D01*
X62500000Y-130750000D02*
X62500000Y-125000000D01*
X99540000Y-94620000D02*
X99900000Y-94620000D01*
X99900000Y-94620000D02*
X106540000Y-94620000D01*
X93000000Y-88080000D02*
X99540000Y-94620000D01*
X106540000Y-94620000D02*
X120390000Y-108470000D01*
X121950000Y-75450000D02*
X120390000Y-75450000D01*
X173500000Y-34250000D02*
X171000000Y-36750000D01*
X173500000Y-22250000D02*
X173500000Y-34250000D01*
X115500000Y-111010000D02*
X120390000Y-111010000D01*
X103560000Y-99500000D02*
X115070000Y-111010000D01*
X99000000Y-99500000D02*
X103560000Y-99500000D01*
X89000000Y-88040000D02*
X89000000Y-89500000D01*
X115070000Y-111010000D02*
X115500000Y-111010000D01*
X89000000Y-89500000D02*
X99000000Y-99500000D01*
X149320000Y-122500000D02*
X109000000Y-122500000D01*
X109000000Y-122500000D02*
X109000000Y-122480000D01*
X158200000Y-131380000D02*
X149320000Y-122500000D01*
X172500000Y-150722943D02*
X158200000Y-136422943D01*
X172500000Y-151000000D02*
X172500000Y-150722943D01*
X109000000Y-122480000D02*
X102610000Y-116090000D01*
X158200000Y-136422943D02*
X158200000Y-131380000D01*
X128540000Y-53989949D02*
X119240000Y-63289949D01*
X119240000Y-63289949D02*
X119240000Y-92080000D01*
X128540000Y-53000000D02*
X128540000Y-53989949D01*
X119240000Y-92080000D02*
X120390000Y-93230000D01*
X64500000Y-60160000D02*
X64500000Y-60500000D01*
X69000000Y-78500000D02*
X75500000Y-85000000D01*
X69000000Y-65000000D02*
X69000000Y-78500000D01*
X146000000Y-134500000D02*
X149420000Y-137920000D01*
X64500000Y-60500000D02*
X69000000Y-65000000D01*
X89000000Y-129000000D02*
X124500000Y-129000000D01*
X62420000Y-41500000D02*
X62420000Y-42985686D01*
X75500000Y-115500000D02*
X89000000Y-129000000D01*
X65700000Y-58960000D02*
X64500000Y-60160000D01*
X65700000Y-46265686D02*
X65700000Y-58960000D01*
X149420000Y-137920000D02*
X149420000Y-139500000D01*
X149420000Y-139500000D02*
X150080000Y-139500000D01*
X124500000Y-129000000D02*
X130000000Y-134500000D01*
X130000000Y-134500000D02*
X146000000Y-134500000D01*
X75500000Y-85000000D02*
X75500000Y-115500000D01*
X150080000Y-139500000D02*
X157000000Y-132580000D01*
X62420000Y-42985686D02*
X65700000Y-46265686D01*
X92420000Y-51000000D02*
X82920000Y-41500000D01*
X72500000Y-117000000D02*
X87500000Y-132000000D01*
X146500000Y-61000000D02*
X136500000Y-51000000D01*
X121920000Y-132000000D02*
X129420000Y-139500000D01*
X146500000Y-99160000D02*
X146500000Y-61000000D01*
X136500000Y-51000000D02*
X92420000Y-51000000D01*
X72500000Y-87410000D02*
X72500000Y-117000000D01*
X64250000Y-79160000D02*
X72500000Y-87410000D01*
X87500000Y-132000000D02*
X121920000Y-132000000D01*
X157000000Y-109660000D02*
X146500000Y-99160000D01*
X149000000Y-84580000D02*
X149000000Y-57500000D01*
X69000000Y-101830000D02*
X69000000Y-118500000D01*
X139000000Y-47500000D02*
X108920000Y-47500000D01*
X64250000Y-97080000D02*
X69000000Y-101830000D01*
X86000000Y-135500000D02*
X105500000Y-135500000D01*
X108920000Y-47500000D02*
X102920000Y-41500000D01*
X149000000Y-57500000D02*
X139000000Y-47500000D01*
X69000000Y-118500000D02*
X86000000Y-135500000D01*
X156500000Y-92080000D02*
X149000000Y-84580000D01*
X105500000Y-135500000D02*
X109500000Y-139500000D01*
X64000000Y-119500000D02*
X84000000Y-139500000D01*
X151500000Y-54000000D02*
X142000000Y-44500000D01*
X156500000Y-75660000D02*
X151500000Y-70660000D01*
X127420000Y-44500000D02*
X124420000Y-41500000D01*
X151500000Y-70660000D02*
X151500000Y-54000000D01*
X142000000Y-44500000D02*
X127420000Y-44500000D01*
X64000000Y-115660000D02*
X64160000Y-115660000D01*
X84000000Y-139500000D02*
X88000000Y-139500000D01*
X64000000Y-115660000D02*
X64000000Y-119500000D01*
X135000000Y-77640000D02*
X121950000Y-90690000D01*
X69500000Y-139160000D02*
X69500000Y-139500000D01*
X156500000Y-55080000D02*
X142420000Y-41000000D01*
X121950000Y-90690000D02*
X120390000Y-90690000D01*
X156500000Y-56660000D02*
X156500000Y-55080000D01*
X64000000Y-133660000D02*
X69500000Y-139160000D01*
X135000000Y-67500000D02*
X135000000Y-77640000D01*
X120267500Y-90347500D02*
X120267500Y-90190000D01*
X81720000Y-36220000D02*
X72500000Y-27000000D01*
X126250000Y-27000000D02*
X138750000Y-27000000D01*
X103750000Y-27000000D02*
X116250000Y-27000000D01*
X101050000Y-103390000D02*
X81720000Y-84060000D01*
X60000000Y-27000000D02*
X72500000Y-27000000D01*
X94250000Y-27000000D02*
X103750000Y-27000000D01*
X81720000Y-84060000D02*
X81720000Y-36220000D01*
X148000000Y-27000000D02*
X160500000Y-27000000D01*
X72500000Y-27000000D02*
X81750000Y-27000000D01*
X102610000Y-103390000D02*
X101050000Y-103390000D01*
X138750000Y-27000000D02*
X148000000Y-27000000D01*
X116250000Y-27000000D02*
X126250000Y-27000000D01*
X81750000Y-27000000D02*
X94250000Y-27000000D01*
X163000000Y-87500000D02*
X175500000Y-87500000D01*
X177400000Y-107600000D02*
X177400000Y-89400000D01*
X175500000Y-131750000D02*
X177400000Y-129850000D01*
X177400000Y-111400000D02*
X175500000Y-109500000D01*
X177400000Y-63600000D02*
X177400000Y-45400000D01*
X175500000Y-65500000D02*
X177400000Y-63600000D01*
X175500000Y-109500000D02*
X177400000Y-107600000D01*
X163000000Y-131750000D02*
X175500000Y-131750000D01*
X163000000Y-43500000D02*
X175500000Y-43500000D01*
X163000000Y-109500000D02*
X175500000Y-109500000D01*
X177400000Y-45400000D02*
X175500000Y-43500000D01*
X177400000Y-129850000D02*
X177400000Y-111400000D01*
X177400000Y-89400000D02*
X175500000Y-87500000D01*
X163000000Y-65500000D02*
X175500000Y-65500000D01*
X60000000Y-152000000D02*
X72500000Y-152000000D01*
X81750000Y-152000000D02*
X94250000Y-152000000D01*
X94250000Y-152000000D02*
X103500000Y-152000000D01*
X137750000Y-152000000D02*
X147000000Y-152000000D01*
X147000000Y-152000000D02*
X159500000Y-152000000D01*
X116000000Y-152000000D02*
X125250000Y-152000000D01*
X103500000Y-152000000D02*
X116000000Y-152000000D01*
X125250000Y-152000000D02*
X137750000Y-152000000D01*
X72500000Y-152000000D02*
X81750000Y-152000000D01*
X42100000Y-107600000D02*
X42100000Y-89400000D01*
X44000000Y-65500000D02*
X42100000Y-63600000D01*
X44000000Y-131750000D02*
X42100000Y-129850000D01*
X42100000Y-67400000D02*
X44000000Y-65500000D01*
X44000000Y-87500000D02*
X42100000Y-85600000D01*
X44000000Y-43500000D02*
X56500000Y-43500000D01*
X42100000Y-111400000D02*
X44000000Y-109500000D01*
X42100000Y-129850000D02*
X42100000Y-111400000D01*
X44000000Y-109500000D02*
X56500000Y-109500000D01*
X44000000Y-87500000D02*
X56500000Y-87500000D01*
X44000000Y-109500000D02*
X42100000Y-107600000D01*
X42100000Y-63600000D02*
X42100000Y-45400000D01*
X42100000Y-89400000D02*
X44000000Y-87500000D01*
X42100000Y-85600000D02*
X42100000Y-67400000D01*
X44000000Y-65500000D02*
X56500000Y-65500000D01*
X56500000Y-131750000D02*
X44000000Y-131750000D01*
X42100000Y-45400000D02*
X44000000Y-43500000D01*
X162267767Y-133767767D02*
X158200000Y-129700000D01*
X177400000Y-136232233D02*
X174935534Y-133767767D01*
X103760000Y-114700000D02*
X102610000Y-113550000D01*
X172500000Y-146300000D02*
X177400000Y-141400000D01*
X174935534Y-133767767D02*
X162267767Y-133767767D01*
X150977057Y-114700000D02*
X103760000Y-114700000D01*
X158200000Y-121922943D02*
X150977057Y-114700000D01*
X86450000Y-113550000D02*
X102610000Y-113550000D01*
X177400000Y-141400000D02*
X177400000Y-136232233D01*
X81500000Y-118500000D02*
X86450000Y-113550000D01*
X158200000Y-129700000D02*
X158200000Y-121922943D01*
X84370000Y-118630000D02*
X102610000Y-118630000D01*
X83000000Y-120000000D02*
X84370000Y-118630000D01*
X93000000Y-82960000D02*
X89000000Y-82960000D01*
X95470000Y-80530000D02*
X102610000Y-80530000D01*
X93000000Y-83000000D02*
X93000000Y-75880000D01*
X93000000Y-75880000D02*
X111880000Y-57000000D01*
X111880000Y-57000000D02*
X123460000Y-57000000D01*
X93000000Y-83000000D02*
X95470000Y-80530000D01*
X136000000Y-95500000D02*
X136000000Y-65500000D01*
M02*
