G04 #@! TF.GenerationSoftware,KiCad,Pcbnew,8.0.3*
G04 #@! TF.CreationDate,2024-07-18T12:32:46+02:00*
G04 #@! TF.ProjectId,MFD,4d46442e-6b69-4636-9164-5f7063625858,1.0*
G04 #@! TF.SameCoordinates,Original*
G04 #@! TF.FileFunction,Legend,Top*
G04 #@! TF.FilePolarity,Positive*
%FSLAX46Y46*%
G04 Gerber Fmt 4.6, Leading zero omitted, Abs format (unit mm)*
G04 Created by KiCad (PCBNEW 8.0.3) date 2024-07-18 12:32:46*
%MOMM*%
%LPD*%
G01*
G04 APERTURE LIST*
%ADD10C,0.800000*%
%ADD11C,0.150000*%
%ADD12C,0.120000*%
%ADD13C,0.127000*%
%ADD14C,0.200000*%
G04 APERTURE END LIST*
D10*
X78812029Y-55581257D02*
X77478695Y-55581257D01*
X77478695Y-58724114D02*
X77478695Y-52724114D01*
X77478695Y-52724114D02*
X79383457Y-52724114D01*
X80716790Y-58438400D02*
X81288219Y-58724114D01*
X81288219Y-58724114D02*
X82240600Y-58724114D01*
X82240600Y-58724114D02*
X82621552Y-58438400D01*
X82621552Y-58438400D02*
X82812028Y-58152685D01*
X82812028Y-58152685D02*
X83002505Y-57581257D01*
X83002505Y-57581257D02*
X83002505Y-57009828D01*
X83002505Y-57009828D02*
X82812028Y-56438400D01*
X82812028Y-56438400D02*
X82621552Y-56152685D01*
X82621552Y-56152685D02*
X82240600Y-55866971D01*
X82240600Y-55866971D02*
X81478695Y-55581257D01*
X81478695Y-55581257D02*
X81097743Y-55295542D01*
X81097743Y-55295542D02*
X80907266Y-55009828D01*
X80907266Y-55009828D02*
X80716790Y-54438400D01*
X80716790Y-54438400D02*
X80716790Y-53866971D01*
X80716790Y-53866971D02*
X80907266Y-53295542D01*
X80907266Y-53295542D02*
X81097743Y-53009828D01*
X81097743Y-53009828D02*
X81478695Y-52724114D01*
X81478695Y-52724114D02*
X82431076Y-52724114D01*
X82431076Y-52724114D02*
X83002505Y-53009828D01*
X87764409Y-58724114D02*
X87764409Y-52724114D01*
X87764409Y-52724114D02*
X89097743Y-57009828D01*
X89097743Y-57009828D02*
X90431076Y-52724114D01*
X90431076Y-52724114D02*
X90431076Y-58724114D01*
X93669172Y-55581257D02*
X92335838Y-55581257D01*
X92335838Y-58724114D02*
X92335838Y-52724114D01*
X92335838Y-52724114D02*
X94240600Y-52724114D01*
X95764409Y-58724114D02*
X95764409Y-52724114D01*
X95764409Y-52724114D02*
X96716790Y-52724114D01*
X96716790Y-52724114D02*
X97288219Y-53009828D01*
X97288219Y-53009828D02*
X97669171Y-53581257D01*
X97669171Y-53581257D02*
X97859648Y-54152685D01*
X97859648Y-54152685D02*
X98050124Y-55295542D01*
X98050124Y-55295542D02*
X98050124Y-56152685D01*
X98050124Y-56152685D02*
X97859648Y-57295542D01*
X97859648Y-57295542D02*
X97669171Y-57866971D01*
X97669171Y-57866971D02*
X97288219Y-58438400D01*
X97288219Y-58438400D02*
X96716790Y-58724114D01*
X96716790Y-58724114D02*
X95764409Y-58724114D01*
X99764409Y-56438400D02*
X102812029Y-56438400D01*
X106812029Y-58724114D02*
X104526314Y-58724114D01*
X105669171Y-58724114D02*
X105669171Y-52724114D01*
X105669171Y-52724114D02*
X105288219Y-53581257D01*
X105288219Y-53581257D02*
X104907267Y-54152685D01*
X104907267Y-54152685D02*
X104526314Y-54438400D01*
X108526314Y-58152685D02*
X108716791Y-58438400D01*
X108716791Y-58438400D02*
X108526314Y-58724114D01*
X108526314Y-58724114D02*
X108335838Y-58438400D01*
X108335838Y-58438400D02*
X108526314Y-58152685D01*
X108526314Y-58152685D02*
X108526314Y-58724114D01*
X111192981Y-52724114D02*
X111573934Y-52724114D01*
X111573934Y-52724114D02*
X111954886Y-53009828D01*
X111954886Y-53009828D02*
X112145362Y-53295542D01*
X112145362Y-53295542D02*
X112335838Y-53866971D01*
X112335838Y-53866971D02*
X112526315Y-55009828D01*
X112526315Y-55009828D02*
X112526315Y-56438400D01*
X112526315Y-56438400D02*
X112335838Y-57581257D01*
X112335838Y-57581257D02*
X112145362Y-58152685D01*
X112145362Y-58152685D02*
X111954886Y-58438400D01*
X111954886Y-58438400D02*
X111573934Y-58724114D01*
X111573934Y-58724114D02*
X111192981Y-58724114D01*
X111192981Y-58724114D02*
X110812029Y-58438400D01*
X110812029Y-58438400D02*
X110621553Y-58152685D01*
X110621553Y-58152685D02*
X110431076Y-57581257D01*
X110431076Y-57581257D02*
X110240600Y-56438400D01*
X110240600Y-56438400D02*
X110240600Y-55009828D01*
X110240600Y-55009828D02*
X110431076Y-53866971D01*
X110431076Y-53866971D02*
X110621553Y-53295542D01*
X110621553Y-53295542D02*
X110812029Y-53009828D01*
X110812029Y-53009828D02*
X111192981Y-52724114D01*
D11*
X154484819Y-87738094D02*
X153484819Y-87738094D01*
X153484819Y-87738094D02*
X153484819Y-87499999D01*
X153484819Y-87499999D02*
X153532438Y-87357142D01*
X153532438Y-87357142D02*
X153627676Y-87261904D01*
X153627676Y-87261904D02*
X153722914Y-87214285D01*
X153722914Y-87214285D02*
X153913390Y-87166666D01*
X153913390Y-87166666D02*
X154056247Y-87166666D01*
X154056247Y-87166666D02*
X154246723Y-87214285D01*
X154246723Y-87214285D02*
X154341961Y-87261904D01*
X154341961Y-87261904D02*
X154437200Y-87357142D01*
X154437200Y-87357142D02*
X154484819Y-87499999D01*
X154484819Y-87499999D02*
X154484819Y-87738094D01*
X153913390Y-86595237D02*
X153865771Y-86690475D01*
X153865771Y-86690475D02*
X153818152Y-86738094D01*
X153818152Y-86738094D02*
X153722914Y-86785713D01*
X153722914Y-86785713D02*
X153675295Y-86785713D01*
X153675295Y-86785713D02*
X153580057Y-86738094D01*
X153580057Y-86738094D02*
X153532438Y-86690475D01*
X153532438Y-86690475D02*
X153484819Y-86595237D01*
X153484819Y-86595237D02*
X153484819Y-86404761D01*
X153484819Y-86404761D02*
X153532438Y-86309523D01*
X153532438Y-86309523D02*
X153580057Y-86261904D01*
X153580057Y-86261904D02*
X153675295Y-86214285D01*
X153675295Y-86214285D02*
X153722914Y-86214285D01*
X153722914Y-86214285D02*
X153818152Y-86261904D01*
X153818152Y-86261904D02*
X153865771Y-86309523D01*
X153865771Y-86309523D02*
X153913390Y-86404761D01*
X153913390Y-86404761D02*
X153913390Y-86595237D01*
X153913390Y-86595237D02*
X153961009Y-86690475D01*
X153961009Y-86690475D02*
X154008628Y-86738094D01*
X154008628Y-86738094D02*
X154103866Y-86785713D01*
X154103866Y-86785713D02*
X154294342Y-86785713D01*
X154294342Y-86785713D02*
X154389580Y-86738094D01*
X154389580Y-86738094D02*
X154437200Y-86690475D01*
X154437200Y-86690475D02*
X154484819Y-86595237D01*
X154484819Y-86595237D02*
X154484819Y-86404761D01*
X154484819Y-86404761D02*
X154437200Y-86309523D01*
X154437200Y-86309523D02*
X154389580Y-86261904D01*
X154389580Y-86261904D02*
X154294342Y-86214285D01*
X154294342Y-86214285D02*
X154103866Y-86214285D01*
X154103866Y-86214285D02*
X154008628Y-86261904D01*
X154008628Y-86261904D02*
X153961009Y-86309523D01*
X153961009Y-86309523D02*
X153913390Y-86404761D01*
X155054819Y-92341904D02*
X154054819Y-92341904D01*
X155054819Y-91770476D02*
X154483390Y-92199047D01*
X154054819Y-91770476D02*
X154626247Y-92341904D01*
X61984819Y-111794285D02*
X60984819Y-111794285D01*
X60984819Y-111794285D02*
X60984819Y-111556190D01*
X60984819Y-111556190D02*
X61032438Y-111413333D01*
X61032438Y-111413333D02*
X61127676Y-111318095D01*
X61127676Y-111318095D02*
X61222914Y-111270476D01*
X61222914Y-111270476D02*
X61413390Y-111222857D01*
X61413390Y-111222857D02*
X61556247Y-111222857D01*
X61556247Y-111222857D02*
X61746723Y-111270476D01*
X61746723Y-111270476D02*
X61841961Y-111318095D01*
X61841961Y-111318095D02*
X61937200Y-111413333D01*
X61937200Y-111413333D02*
X61984819Y-111556190D01*
X61984819Y-111556190D02*
X61984819Y-111794285D01*
X61984819Y-110270476D02*
X61984819Y-110841904D01*
X61984819Y-110556190D02*
X60984819Y-110556190D01*
X60984819Y-110556190D02*
X61127676Y-110651428D01*
X61127676Y-110651428D02*
X61222914Y-110746666D01*
X61222914Y-110746666D02*
X61270533Y-110841904D01*
X61984819Y-109794285D02*
X61984819Y-109603809D01*
X61984819Y-109603809D02*
X61937200Y-109508571D01*
X61937200Y-109508571D02*
X61889580Y-109460952D01*
X61889580Y-109460952D02*
X61746723Y-109365714D01*
X61746723Y-109365714D02*
X61556247Y-109318095D01*
X61556247Y-109318095D02*
X61175295Y-109318095D01*
X61175295Y-109318095D02*
X61080057Y-109365714D01*
X61080057Y-109365714D02*
X61032438Y-109413333D01*
X61032438Y-109413333D02*
X60984819Y-109508571D01*
X60984819Y-109508571D02*
X60984819Y-109699047D01*
X60984819Y-109699047D02*
X61032438Y-109794285D01*
X61032438Y-109794285D02*
X61080057Y-109841904D01*
X61080057Y-109841904D02*
X61175295Y-109889523D01*
X61175295Y-109889523D02*
X61413390Y-109889523D01*
X61413390Y-109889523D02*
X61508628Y-109841904D01*
X61508628Y-109841904D02*
X61556247Y-109794285D01*
X61556247Y-109794285D02*
X61603866Y-109699047D01*
X61603866Y-109699047D02*
X61603866Y-109508571D01*
X61603866Y-109508571D02*
X61556247Y-109413333D01*
X61556247Y-109413333D02*
X61508628Y-109365714D01*
X61508628Y-109365714D02*
X61413390Y-109318095D01*
X62554819Y-115921904D02*
X61554819Y-115921904D01*
X62554819Y-115350476D02*
X61983390Y-115779047D01*
X61554819Y-115350476D02*
X62126247Y-115921904D01*
X108360476Y-157817200D02*
X108503333Y-157864819D01*
X108503333Y-157864819D02*
X108741428Y-157864819D01*
X108741428Y-157864819D02*
X108836666Y-157817200D01*
X108836666Y-157817200D02*
X108884285Y-157769580D01*
X108884285Y-157769580D02*
X108931904Y-157674342D01*
X108931904Y-157674342D02*
X108931904Y-157579104D01*
X108931904Y-157579104D02*
X108884285Y-157483866D01*
X108884285Y-157483866D02*
X108836666Y-157436247D01*
X108836666Y-157436247D02*
X108741428Y-157388628D01*
X108741428Y-157388628D02*
X108550952Y-157341009D01*
X108550952Y-157341009D02*
X108455714Y-157293390D01*
X108455714Y-157293390D02*
X108408095Y-157245771D01*
X108408095Y-157245771D02*
X108360476Y-157150533D01*
X108360476Y-157150533D02*
X108360476Y-157055295D01*
X108360476Y-157055295D02*
X108408095Y-156960057D01*
X108408095Y-156960057D02*
X108455714Y-156912438D01*
X108455714Y-156912438D02*
X108550952Y-156864819D01*
X108550952Y-156864819D02*
X108789047Y-156864819D01*
X108789047Y-156864819D02*
X108931904Y-156912438D01*
X109265238Y-156864819D02*
X109503333Y-157864819D01*
X109503333Y-157864819D02*
X109693809Y-157150533D01*
X109693809Y-157150533D02*
X109884285Y-157864819D01*
X109884285Y-157864819D02*
X110122381Y-156864819D01*
X111027142Y-157864819D02*
X110455714Y-157864819D01*
X110741428Y-157864819D02*
X110741428Y-156864819D01*
X110741428Y-156864819D02*
X110646190Y-157007676D01*
X110646190Y-157007676D02*
X110550952Y-157102914D01*
X110550952Y-157102914D02*
X110455714Y-157150533D01*
X111360476Y-156864819D02*
X111979523Y-156864819D01*
X111979523Y-156864819D02*
X111646190Y-157245771D01*
X111646190Y-157245771D02*
X111789047Y-157245771D01*
X111789047Y-157245771D02*
X111884285Y-157293390D01*
X111884285Y-157293390D02*
X111931904Y-157341009D01*
X111931904Y-157341009D02*
X111979523Y-157436247D01*
X111979523Y-157436247D02*
X111979523Y-157674342D01*
X111979523Y-157674342D02*
X111931904Y-157769580D01*
X111931904Y-157769580D02*
X111884285Y-157817200D01*
X111884285Y-157817200D02*
X111789047Y-157864819D01*
X111789047Y-157864819D02*
X111503333Y-157864819D01*
X111503333Y-157864819D02*
X111408095Y-157817200D01*
X111408095Y-157817200D02*
X111360476Y-157769580D01*
X167496667Y-126747200D02*
X167639524Y-126794819D01*
X167639524Y-126794819D02*
X167877619Y-126794819D01*
X167877619Y-126794819D02*
X167972857Y-126747200D01*
X167972857Y-126747200D02*
X168020476Y-126699580D01*
X168020476Y-126699580D02*
X168068095Y-126604342D01*
X168068095Y-126604342D02*
X168068095Y-126509104D01*
X168068095Y-126509104D02*
X168020476Y-126413866D01*
X168020476Y-126413866D02*
X167972857Y-126366247D01*
X167972857Y-126366247D02*
X167877619Y-126318628D01*
X167877619Y-126318628D02*
X167687143Y-126271009D01*
X167687143Y-126271009D02*
X167591905Y-126223390D01*
X167591905Y-126223390D02*
X167544286Y-126175771D01*
X167544286Y-126175771D02*
X167496667Y-126080533D01*
X167496667Y-126080533D02*
X167496667Y-125985295D01*
X167496667Y-125985295D02*
X167544286Y-125890057D01*
X167544286Y-125890057D02*
X167591905Y-125842438D01*
X167591905Y-125842438D02*
X167687143Y-125794819D01*
X167687143Y-125794819D02*
X167925238Y-125794819D01*
X167925238Y-125794819D02*
X168068095Y-125842438D01*
X168401429Y-125794819D02*
X168639524Y-126794819D01*
X168639524Y-126794819D02*
X168830000Y-126080533D01*
X168830000Y-126080533D02*
X169020476Y-126794819D01*
X169020476Y-126794819D02*
X169258572Y-125794819D01*
X170068095Y-125794819D02*
X169877619Y-125794819D01*
X169877619Y-125794819D02*
X169782381Y-125842438D01*
X169782381Y-125842438D02*
X169734762Y-125890057D01*
X169734762Y-125890057D02*
X169639524Y-126032914D01*
X169639524Y-126032914D02*
X169591905Y-126223390D01*
X169591905Y-126223390D02*
X169591905Y-126604342D01*
X169591905Y-126604342D02*
X169639524Y-126699580D01*
X169639524Y-126699580D02*
X169687143Y-126747200D01*
X169687143Y-126747200D02*
X169782381Y-126794819D01*
X169782381Y-126794819D02*
X169972857Y-126794819D01*
X169972857Y-126794819D02*
X170068095Y-126747200D01*
X170068095Y-126747200D02*
X170115714Y-126699580D01*
X170115714Y-126699580D02*
X170163333Y-126604342D01*
X170163333Y-126604342D02*
X170163333Y-126366247D01*
X170163333Y-126366247D02*
X170115714Y-126271009D01*
X170115714Y-126271009D02*
X170068095Y-126223390D01*
X170068095Y-126223390D02*
X169972857Y-126175771D01*
X169972857Y-126175771D02*
X169782381Y-126175771D01*
X169782381Y-126175771D02*
X169687143Y-126223390D01*
X169687143Y-126223390D02*
X169639524Y-126271009D01*
X169639524Y-126271009D02*
X169591905Y-126366247D01*
X91865714Y-137484819D02*
X91865714Y-136484819D01*
X91865714Y-136484819D02*
X92103809Y-136484819D01*
X92103809Y-136484819D02*
X92246666Y-136532438D01*
X92246666Y-136532438D02*
X92341904Y-136627676D01*
X92341904Y-136627676D02*
X92389523Y-136722914D01*
X92389523Y-136722914D02*
X92437142Y-136913390D01*
X92437142Y-136913390D02*
X92437142Y-137056247D01*
X92437142Y-137056247D02*
X92389523Y-137246723D01*
X92389523Y-137246723D02*
X92341904Y-137341961D01*
X92341904Y-137341961D02*
X92246666Y-137437200D01*
X92246666Y-137437200D02*
X92103809Y-137484819D01*
X92103809Y-137484819D02*
X91865714Y-137484819D01*
X93389523Y-137484819D02*
X92818095Y-137484819D01*
X93103809Y-137484819D02*
X93103809Y-136484819D01*
X93103809Y-136484819D02*
X93008571Y-136627676D01*
X93008571Y-136627676D02*
X92913333Y-136722914D01*
X92913333Y-136722914D02*
X92818095Y-136770533D01*
X94246666Y-136818152D02*
X94246666Y-137484819D01*
X94008571Y-136437200D02*
X93770476Y-137151485D01*
X93770476Y-137151485D02*
X94389523Y-137151485D01*
X87738095Y-138054819D02*
X87738095Y-137054819D01*
X88309523Y-138054819D02*
X87880952Y-137483390D01*
X88309523Y-137054819D02*
X87738095Y-137626247D01*
X167496667Y-82497200D02*
X167639524Y-82544819D01*
X167639524Y-82544819D02*
X167877619Y-82544819D01*
X167877619Y-82544819D02*
X167972857Y-82497200D01*
X167972857Y-82497200D02*
X168020476Y-82449580D01*
X168020476Y-82449580D02*
X168068095Y-82354342D01*
X168068095Y-82354342D02*
X168068095Y-82259104D01*
X168068095Y-82259104D02*
X168020476Y-82163866D01*
X168020476Y-82163866D02*
X167972857Y-82116247D01*
X167972857Y-82116247D02*
X167877619Y-82068628D01*
X167877619Y-82068628D02*
X167687143Y-82021009D01*
X167687143Y-82021009D02*
X167591905Y-81973390D01*
X167591905Y-81973390D02*
X167544286Y-81925771D01*
X167544286Y-81925771D02*
X167496667Y-81830533D01*
X167496667Y-81830533D02*
X167496667Y-81735295D01*
X167496667Y-81735295D02*
X167544286Y-81640057D01*
X167544286Y-81640057D02*
X167591905Y-81592438D01*
X167591905Y-81592438D02*
X167687143Y-81544819D01*
X167687143Y-81544819D02*
X167925238Y-81544819D01*
X167925238Y-81544819D02*
X168068095Y-81592438D01*
X168401429Y-81544819D02*
X168639524Y-82544819D01*
X168639524Y-82544819D02*
X168830000Y-81830533D01*
X168830000Y-81830533D02*
X169020476Y-82544819D01*
X169020476Y-82544819D02*
X169258572Y-81544819D01*
X169782381Y-81973390D02*
X169687143Y-81925771D01*
X169687143Y-81925771D02*
X169639524Y-81878152D01*
X169639524Y-81878152D02*
X169591905Y-81782914D01*
X169591905Y-81782914D02*
X169591905Y-81735295D01*
X169591905Y-81735295D02*
X169639524Y-81640057D01*
X169639524Y-81640057D02*
X169687143Y-81592438D01*
X169687143Y-81592438D02*
X169782381Y-81544819D01*
X169782381Y-81544819D02*
X169972857Y-81544819D01*
X169972857Y-81544819D02*
X170068095Y-81592438D01*
X170068095Y-81592438D02*
X170115714Y-81640057D01*
X170115714Y-81640057D02*
X170163333Y-81735295D01*
X170163333Y-81735295D02*
X170163333Y-81782914D01*
X170163333Y-81782914D02*
X170115714Y-81878152D01*
X170115714Y-81878152D02*
X170068095Y-81925771D01*
X170068095Y-81925771D02*
X169972857Y-81973390D01*
X169972857Y-81973390D02*
X169782381Y-81973390D01*
X169782381Y-81973390D02*
X169687143Y-82021009D01*
X169687143Y-82021009D02*
X169639524Y-82068628D01*
X169639524Y-82068628D02*
X169591905Y-82163866D01*
X169591905Y-82163866D02*
X169591905Y-82354342D01*
X169591905Y-82354342D02*
X169639524Y-82449580D01*
X169639524Y-82449580D02*
X169687143Y-82497200D01*
X169687143Y-82497200D02*
X169782381Y-82544819D01*
X169782381Y-82544819D02*
X169972857Y-82544819D01*
X169972857Y-82544819D02*
X170068095Y-82497200D01*
X170068095Y-82497200D02*
X170115714Y-82449580D01*
X170115714Y-82449580D02*
X170163333Y-82354342D01*
X170163333Y-82354342D02*
X170163333Y-82163866D01*
X170163333Y-82163866D02*
X170115714Y-82068628D01*
X170115714Y-82068628D02*
X170068095Y-82021009D01*
X170068095Y-82021009D02*
X169972857Y-81973390D01*
X91374819Y-85666666D02*
X90898628Y-85999999D01*
X91374819Y-86238094D02*
X90374819Y-86238094D01*
X90374819Y-86238094D02*
X90374819Y-85857142D01*
X90374819Y-85857142D02*
X90422438Y-85761904D01*
X90422438Y-85761904D02*
X90470057Y-85714285D01*
X90470057Y-85714285D02*
X90565295Y-85666666D01*
X90565295Y-85666666D02*
X90708152Y-85666666D01*
X90708152Y-85666666D02*
X90803390Y-85714285D01*
X90803390Y-85714285D02*
X90851009Y-85761904D01*
X90851009Y-85761904D02*
X90898628Y-85857142D01*
X90898628Y-85857142D02*
X90898628Y-86238094D01*
X90374819Y-85333332D02*
X90374819Y-84714285D01*
X90374819Y-84714285D02*
X90755771Y-85047618D01*
X90755771Y-85047618D02*
X90755771Y-84904761D01*
X90755771Y-84904761D02*
X90803390Y-84809523D01*
X90803390Y-84809523D02*
X90851009Y-84761904D01*
X90851009Y-84761904D02*
X90946247Y-84714285D01*
X90946247Y-84714285D02*
X91184342Y-84714285D01*
X91184342Y-84714285D02*
X91279580Y-84761904D01*
X91279580Y-84761904D02*
X91327200Y-84809523D01*
X91327200Y-84809523D02*
X91374819Y-84904761D01*
X91374819Y-84904761D02*
X91374819Y-85190475D01*
X91374819Y-85190475D02*
X91327200Y-85285713D01*
X91327200Y-85285713D02*
X91279580Y-85333332D01*
X152496667Y-21997200D02*
X152639524Y-22044819D01*
X152639524Y-22044819D02*
X152877619Y-22044819D01*
X152877619Y-22044819D02*
X152972857Y-21997200D01*
X152972857Y-21997200D02*
X153020476Y-21949580D01*
X153020476Y-21949580D02*
X153068095Y-21854342D01*
X153068095Y-21854342D02*
X153068095Y-21759104D01*
X153068095Y-21759104D02*
X153020476Y-21663866D01*
X153020476Y-21663866D02*
X152972857Y-21616247D01*
X152972857Y-21616247D02*
X152877619Y-21568628D01*
X152877619Y-21568628D02*
X152687143Y-21521009D01*
X152687143Y-21521009D02*
X152591905Y-21473390D01*
X152591905Y-21473390D02*
X152544286Y-21425771D01*
X152544286Y-21425771D02*
X152496667Y-21330533D01*
X152496667Y-21330533D02*
X152496667Y-21235295D01*
X152496667Y-21235295D02*
X152544286Y-21140057D01*
X152544286Y-21140057D02*
X152591905Y-21092438D01*
X152591905Y-21092438D02*
X152687143Y-21044819D01*
X152687143Y-21044819D02*
X152925238Y-21044819D01*
X152925238Y-21044819D02*
X153068095Y-21092438D01*
X153401429Y-21044819D02*
X153639524Y-22044819D01*
X153639524Y-22044819D02*
X153830000Y-21330533D01*
X153830000Y-21330533D02*
X154020476Y-22044819D01*
X154020476Y-22044819D02*
X154258572Y-21044819D01*
X155115714Y-21044819D02*
X154639524Y-21044819D01*
X154639524Y-21044819D02*
X154591905Y-21521009D01*
X154591905Y-21521009D02*
X154639524Y-21473390D01*
X154639524Y-21473390D02*
X154734762Y-21425771D01*
X154734762Y-21425771D02*
X154972857Y-21425771D01*
X154972857Y-21425771D02*
X155068095Y-21473390D01*
X155068095Y-21473390D02*
X155115714Y-21521009D01*
X155115714Y-21521009D02*
X155163333Y-21616247D01*
X155163333Y-21616247D02*
X155163333Y-21854342D01*
X155163333Y-21854342D02*
X155115714Y-21949580D01*
X155115714Y-21949580D02*
X155068095Y-21997200D01*
X155068095Y-21997200D02*
X154972857Y-22044819D01*
X154972857Y-22044819D02*
X154734762Y-22044819D01*
X154734762Y-22044819D02*
X154639524Y-21997200D01*
X154639524Y-21997200D02*
X154591905Y-21949580D01*
X166690476Y-39407200D02*
X166833333Y-39454819D01*
X166833333Y-39454819D02*
X167071428Y-39454819D01*
X167071428Y-39454819D02*
X167166666Y-39407200D01*
X167166666Y-39407200D02*
X167214285Y-39359580D01*
X167214285Y-39359580D02*
X167261904Y-39264342D01*
X167261904Y-39264342D02*
X167261904Y-39169104D01*
X167261904Y-39169104D02*
X167214285Y-39073866D01*
X167214285Y-39073866D02*
X167166666Y-39026247D01*
X167166666Y-39026247D02*
X167071428Y-38978628D01*
X167071428Y-38978628D02*
X166880952Y-38931009D01*
X166880952Y-38931009D02*
X166785714Y-38883390D01*
X166785714Y-38883390D02*
X166738095Y-38835771D01*
X166738095Y-38835771D02*
X166690476Y-38740533D01*
X166690476Y-38740533D02*
X166690476Y-38645295D01*
X166690476Y-38645295D02*
X166738095Y-38550057D01*
X166738095Y-38550057D02*
X166785714Y-38502438D01*
X166785714Y-38502438D02*
X166880952Y-38454819D01*
X166880952Y-38454819D02*
X167119047Y-38454819D01*
X167119047Y-38454819D02*
X167261904Y-38502438D01*
X167595238Y-38454819D02*
X167833333Y-39454819D01*
X167833333Y-39454819D02*
X168023809Y-38740533D01*
X168023809Y-38740533D02*
X168214285Y-39454819D01*
X168214285Y-39454819D02*
X168452381Y-38454819D01*
X169357142Y-39454819D02*
X168785714Y-39454819D01*
X169071428Y-39454819D02*
X169071428Y-38454819D01*
X169071428Y-38454819D02*
X168976190Y-38597676D01*
X168976190Y-38597676D02*
X168880952Y-38692914D01*
X168880952Y-38692914D02*
X168785714Y-38740533D01*
X169976190Y-38454819D02*
X170071428Y-38454819D01*
X170071428Y-38454819D02*
X170166666Y-38502438D01*
X170166666Y-38502438D02*
X170214285Y-38550057D01*
X170214285Y-38550057D02*
X170261904Y-38645295D01*
X170261904Y-38645295D02*
X170309523Y-38835771D01*
X170309523Y-38835771D02*
X170309523Y-39073866D01*
X170309523Y-39073866D02*
X170261904Y-39264342D01*
X170261904Y-39264342D02*
X170214285Y-39359580D01*
X170214285Y-39359580D02*
X170166666Y-39407200D01*
X170166666Y-39407200D02*
X170071428Y-39454819D01*
X170071428Y-39454819D02*
X169976190Y-39454819D01*
X169976190Y-39454819D02*
X169880952Y-39407200D01*
X169880952Y-39407200D02*
X169833333Y-39359580D01*
X169833333Y-39359580D02*
X169785714Y-39264342D01*
X169785714Y-39264342D02*
X169738095Y-39073866D01*
X169738095Y-39073866D02*
X169738095Y-38835771D01*
X169738095Y-38835771D02*
X169785714Y-38645295D01*
X169785714Y-38645295D02*
X169833333Y-38550057D01*
X169833333Y-38550057D02*
X169880952Y-38502438D01*
X169880952Y-38502438D02*
X169976190Y-38454819D01*
X86610476Y-157817200D02*
X86753333Y-157864819D01*
X86753333Y-157864819D02*
X86991428Y-157864819D01*
X86991428Y-157864819D02*
X87086666Y-157817200D01*
X87086666Y-157817200D02*
X87134285Y-157769580D01*
X87134285Y-157769580D02*
X87181904Y-157674342D01*
X87181904Y-157674342D02*
X87181904Y-157579104D01*
X87181904Y-157579104D02*
X87134285Y-157483866D01*
X87134285Y-157483866D02*
X87086666Y-157436247D01*
X87086666Y-157436247D02*
X86991428Y-157388628D01*
X86991428Y-157388628D02*
X86800952Y-157341009D01*
X86800952Y-157341009D02*
X86705714Y-157293390D01*
X86705714Y-157293390D02*
X86658095Y-157245771D01*
X86658095Y-157245771D02*
X86610476Y-157150533D01*
X86610476Y-157150533D02*
X86610476Y-157055295D01*
X86610476Y-157055295D02*
X86658095Y-156960057D01*
X86658095Y-156960057D02*
X86705714Y-156912438D01*
X86705714Y-156912438D02*
X86800952Y-156864819D01*
X86800952Y-156864819D02*
X87039047Y-156864819D01*
X87039047Y-156864819D02*
X87181904Y-156912438D01*
X87515238Y-156864819D02*
X87753333Y-157864819D01*
X87753333Y-157864819D02*
X87943809Y-157150533D01*
X87943809Y-157150533D02*
X88134285Y-157864819D01*
X88134285Y-157864819D02*
X88372381Y-156864819D01*
X89277142Y-157864819D02*
X88705714Y-157864819D01*
X88991428Y-157864819D02*
X88991428Y-156864819D01*
X88991428Y-156864819D02*
X88896190Y-157007676D01*
X88896190Y-157007676D02*
X88800952Y-157102914D01*
X88800952Y-157102914D02*
X88705714Y-157150533D01*
X90134285Y-157198152D02*
X90134285Y-157864819D01*
X89896190Y-156817200D02*
X89658095Y-157531485D01*
X89658095Y-157531485D02*
X90277142Y-157531485D01*
X48020476Y-39407200D02*
X48163333Y-39454819D01*
X48163333Y-39454819D02*
X48401428Y-39454819D01*
X48401428Y-39454819D02*
X48496666Y-39407200D01*
X48496666Y-39407200D02*
X48544285Y-39359580D01*
X48544285Y-39359580D02*
X48591904Y-39264342D01*
X48591904Y-39264342D02*
X48591904Y-39169104D01*
X48591904Y-39169104D02*
X48544285Y-39073866D01*
X48544285Y-39073866D02*
X48496666Y-39026247D01*
X48496666Y-39026247D02*
X48401428Y-38978628D01*
X48401428Y-38978628D02*
X48210952Y-38931009D01*
X48210952Y-38931009D02*
X48115714Y-38883390D01*
X48115714Y-38883390D02*
X48068095Y-38835771D01*
X48068095Y-38835771D02*
X48020476Y-38740533D01*
X48020476Y-38740533D02*
X48020476Y-38645295D01*
X48020476Y-38645295D02*
X48068095Y-38550057D01*
X48068095Y-38550057D02*
X48115714Y-38502438D01*
X48115714Y-38502438D02*
X48210952Y-38454819D01*
X48210952Y-38454819D02*
X48449047Y-38454819D01*
X48449047Y-38454819D02*
X48591904Y-38502438D01*
X48925238Y-38454819D02*
X49163333Y-39454819D01*
X49163333Y-39454819D02*
X49353809Y-38740533D01*
X49353809Y-38740533D02*
X49544285Y-39454819D01*
X49544285Y-39454819D02*
X49782381Y-38454819D01*
X50687142Y-39454819D02*
X50115714Y-39454819D01*
X50401428Y-39454819D02*
X50401428Y-38454819D01*
X50401428Y-38454819D02*
X50306190Y-38597676D01*
X50306190Y-38597676D02*
X50210952Y-38692914D01*
X50210952Y-38692914D02*
X50115714Y-38740533D01*
X51544285Y-38454819D02*
X51353809Y-38454819D01*
X51353809Y-38454819D02*
X51258571Y-38502438D01*
X51258571Y-38502438D02*
X51210952Y-38550057D01*
X51210952Y-38550057D02*
X51115714Y-38692914D01*
X51115714Y-38692914D02*
X51068095Y-38883390D01*
X51068095Y-38883390D02*
X51068095Y-39264342D01*
X51068095Y-39264342D02*
X51115714Y-39359580D01*
X51115714Y-39359580D02*
X51163333Y-39407200D01*
X51163333Y-39407200D02*
X51258571Y-39454819D01*
X51258571Y-39454819D02*
X51449047Y-39454819D01*
X51449047Y-39454819D02*
X51544285Y-39407200D01*
X51544285Y-39407200D02*
X51591904Y-39359580D01*
X51591904Y-39359580D02*
X51639523Y-39264342D01*
X51639523Y-39264342D02*
X51639523Y-39026247D01*
X51639523Y-39026247D02*
X51591904Y-38931009D01*
X51591904Y-38931009D02*
X51544285Y-38883390D01*
X51544285Y-38883390D02*
X51449047Y-38835771D01*
X51449047Y-38835771D02*
X51258571Y-38835771D01*
X51258571Y-38835771D02*
X51163333Y-38883390D01*
X51163333Y-38883390D02*
X51115714Y-38931009D01*
X51115714Y-38931009D02*
X51068095Y-39026247D01*
X153285714Y-137484819D02*
X153285714Y-136484819D01*
X153285714Y-136484819D02*
X153523809Y-136484819D01*
X153523809Y-136484819D02*
X153666666Y-136532438D01*
X153666666Y-136532438D02*
X153761904Y-136627676D01*
X153761904Y-136627676D02*
X153809523Y-136722914D01*
X153809523Y-136722914D02*
X153857142Y-136913390D01*
X153857142Y-136913390D02*
X153857142Y-137056247D01*
X153857142Y-137056247D02*
X153809523Y-137246723D01*
X153809523Y-137246723D02*
X153761904Y-137341961D01*
X153761904Y-137341961D02*
X153666666Y-137437200D01*
X153666666Y-137437200D02*
X153523809Y-137484819D01*
X153523809Y-137484819D02*
X153285714Y-137484819D01*
X154809523Y-137484819D02*
X154238095Y-137484819D01*
X154523809Y-137484819D02*
X154523809Y-136484819D01*
X154523809Y-136484819D02*
X154428571Y-136627676D01*
X154428571Y-136627676D02*
X154333333Y-136722914D01*
X154333333Y-136722914D02*
X154238095Y-136770533D01*
X155761904Y-137484819D02*
X155190476Y-137484819D01*
X155476190Y-137484819D02*
X155476190Y-136484819D01*
X155476190Y-136484819D02*
X155380952Y-136627676D01*
X155380952Y-136627676D02*
X155285714Y-136722914D01*
X155285714Y-136722914D02*
X155190476Y-136770533D01*
X149158095Y-138054819D02*
X149158095Y-137054819D01*
X149729523Y-138054819D02*
X149300952Y-137483390D01*
X149729523Y-137054819D02*
X149158095Y-137626247D01*
X125833333Y-55534819D02*
X125500000Y-55058628D01*
X125261905Y-55534819D02*
X125261905Y-54534819D01*
X125261905Y-54534819D02*
X125642857Y-54534819D01*
X125642857Y-54534819D02*
X125738095Y-54582438D01*
X125738095Y-54582438D02*
X125785714Y-54630057D01*
X125785714Y-54630057D02*
X125833333Y-54725295D01*
X125833333Y-54725295D02*
X125833333Y-54868152D01*
X125833333Y-54868152D02*
X125785714Y-54963390D01*
X125785714Y-54963390D02*
X125738095Y-55011009D01*
X125738095Y-55011009D02*
X125642857Y-55058628D01*
X125642857Y-55058628D02*
X125261905Y-55058628D01*
X126214286Y-54630057D02*
X126261905Y-54582438D01*
X126261905Y-54582438D02*
X126357143Y-54534819D01*
X126357143Y-54534819D02*
X126595238Y-54534819D01*
X126595238Y-54534819D02*
X126690476Y-54582438D01*
X126690476Y-54582438D02*
X126738095Y-54630057D01*
X126738095Y-54630057D02*
X126785714Y-54725295D01*
X126785714Y-54725295D02*
X126785714Y-54820533D01*
X126785714Y-54820533D02*
X126738095Y-54963390D01*
X126738095Y-54963390D02*
X126166667Y-55534819D01*
X126166667Y-55534819D02*
X126785714Y-55534819D01*
X167496667Y-104497200D02*
X167639524Y-104544819D01*
X167639524Y-104544819D02*
X167877619Y-104544819D01*
X167877619Y-104544819D02*
X167972857Y-104497200D01*
X167972857Y-104497200D02*
X168020476Y-104449580D01*
X168020476Y-104449580D02*
X168068095Y-104354342D01*
X168068095Y-104354342D02*
X168068095Y-104259104D01*
X168068095Y-104259104D02*
X168020476Y-104163866D01*
X168020476Y-104163866D02*
X167972857Y-104116247D01*
X167972857Y-104116247D02*
X167877619Y-104068628D01*
X167877619Y-104068628D02*
X167687143Y-104021009D01*
X167687143Y-104021009D02*
X167591905Y-103973390D01*
X167591905Y-103973390D02*
X167544286Y-103925771D01*
X167544286Y-103925771D02*
X167496667Y-103830533D01*
X167496667Y-103830533D02*
X167496667Y-103735295D01*
X167496667Y-103735295D02*
X167544286Y-103640057D01*
X167544286Y-103640057D02*
X167591905Y-103592438D01*
X167591905Y-103592438D02*
X167687143Y-103544819D01*
X167687143Y-103544819D02*
X167925238Y-103544819D01*
X167925238Y-103544819D02*
X168068095Y-103592438D01*
X168401429Y-103544819D02*
X168639524Y-104544819D01*
X168639524Y-104544819D02*
X168830000Y-103830533D01*
X168830000Y-103830533D02*
X169020476Y-104544819D01*
X169020476Y-104544819D02*
X169258572Y-103544819D01*
X169544286Y-103544819D02*
X170210952Y-103544819D01*
X170210952Y-103544819D02*
X169782381Y-104544819D01*
X154484819Y-52794285D02*
X153484819Y-52794285D01*
X153484819Y-52794285D02*
X153484819Y-52556190D01*
X153484819Y-52556190D02*
X153532438Y-52413333D01*
X153532438Y-52413333D02*
X153627676Y-52318095D01*
X153627676Y-52318095D02*
X153722914Y-52270476D01*
X153722914Y-52270476D02*
X153913390Y-52222857D01*
X153913390Y-52222857D02*
X154056247Y-52222857D01*
X154056247Y-52222857D02*
X154246723Y-52270476D01*
X154246723Y-52270476D02*
X154341961Y-52318095D01*
X154341961Y-52318095D02*
X154437200Y-52413333D01*
X154437200Y-52413333D02*
X154484819Y-52556190D01*
X154484819Y-52556190D02*
X154484819Y-52794285D01*
X154484819Y-51270476D02*
X154484819Y-51841904D01*
X154484819Y-51556190D02*
X153484819Y-51556190D01*
X153484819Y-51556190D02*
X153627676Y-51651428D01*
X153627676Y-51651428D02*
X153722914Y-51746666D01*
X153722914Y-51746666D02*
X153770533Y-51841904D01*
X153484819Y-50651428D02*
X153484819Y-50556190D01*
X153484819Y-50556190D02*
X153532438Y-50460952D01*
X153532438Y-50460952D02*
X153580057Y-50413333D01*
X153580057Y-50413333D02*
X153675295Y-50365714D01*
X153675295Y-50365714D02*
X153865771Y-50318095D01*
X153865771Y-50318095D02*
X154103866Y-50318095D01*
X154103866Y-50318095D02*
X154294342Y-50365714D01*
X154294342Y-50365714D02*
X154389580Y-50413333D01*
X154389580Y-50413333D02*
X154437200Y-50460952D01*
X154437200Y-50460952D02*
X154484819Y-50556190D01*
X154484819Y-50556190D02*
X154484819Y-50651428D01*
X154484819Y-50651428D02*
X154437200Y-50746666D01*
X154437200Y-50746666D02*
X154389580Y-50794285D01*
X154389580Y-50794285D02*
X154294342Y-50841904D01*
X154294342Y-50841904D02*
X154103866Y-50889523D01*
X154103866Y-50889523D02*
X153865771Y-50889523D01*
X153865771Y-50889523D02*
X153675295Y-50841904D01*
X153675295Y-50841904D02*
X153580057Y-50794285D01*
X153580057Y-50794285D02*
X153532438Y-50746666D01*
X153532438Y-50746666D02*
X153484819Y-50651428D01*
X155054819Y-56921904D02*
X154054819Y-56921904D01*
X155054819Y-56350476D02*
X154483390Y-56779047D01*
X154054819Y-56350476D02*
X154626247Y-56921904D01*
X73365714Y-137484819D02*
X73365714Y-136484819D01*
X73365714Y-136484819D02*
X73603809Y-136484819D01*
X73603809Y-136484819D02*
X73746666Y-136532438D01*
X73746666Y-136532438D02*
X73841904Y-136627676D01*
X73841904Y-136627676D02*
X73889523Y-136722914D01*
X73889523Y-136722914D02*
X73937142Y-136913390D01*
X73937142Y-136913390D02*
X73937142Y-137056247D01*
X73937142Y-137056247D02*
X73889523Y-137246723D01*
X73889523Y-137246723D02*
X73841904Y-137341961D01*
X73841904Y-137341961D02*
X73746666Y-137437200D01*
X73746666Y-137437200D02*
X73603809Y-137484819D01*
X73603809Y-137484819D02*
X73365714Y-137484819D01*
X74889523Y-137484819D02*
X74318095Y-137484819D01*
X74603809Y-137484819D02*
X74603809Y-136484819D01*
X74603809Y-136484819D02*
X74508571Y-136627676D01*
X74508571Y-136627676D02*
X74413333Y-136722914D01*
X74413333Y-136722914D02*
X74318095Y-136770533D01*
X75794285Y-136484819D02*
X75318095Y-136484819D01*
X75318095Y-136484819D02*
X75270476Y-136961009D01*
X75270476Y-136961009D02*
X75318095Y-136913390D01*
X75318095Y-136913390D02*
X75413333Y-136865771D01*
X75413333Y-136865771D02*
X75651428Y-136865771D01*
X75651428Y-136865771D02*
X75746666Y-136913390D01*
X75746666Y-136913390D02*
X75794285Y-136961009D01*
X75794285Y-136961009D02*
X75841904Y-137056247D01*
X75841904Y-137056247D02*
X75841904Y-137294342D01*
X75841904Y-137294342D02*
X75794285Y-137389580D01*
X75794285Y-137389580D02*
X75746666Y-137437200D01*
X75746666Y-137437200D02*
X75651428Y-137484819D01*
X75651428Y-137484819D02*
X75413333Y-137484819D01*
X75413333Y-137484819D02*
X75318095Y-137437200D01*
X75318095Y-137437200D02*
X75270476Y-137389580D01*
X69238095Y-138054819D02*
X69238095Y-137054819D01*
X69809523Y-138054819D02*
X69380952Y-137483390D01*
X69809523Y-137054819D02*
X69238095Y-137626247D01*
X154984819Y-128238094D02*
X153984819Y-128238094D01*
X153984819Y-128238094D02*
X153984819Y-127999999D01*
X153984819Y-127999999D02*
X154032438Y-127857142D01*
X154032438Y-127857142D02*
X154127676Y-127761904D01*
X154127676Y-127761904D02*
X154222914Y-127714285D01*
X154222914Y-127714285D02*
X154413390Y-127666666D01*
X154413390Y-127666666D02*
X154556247Y-127666666D01*
X154556247Y-127666666D02*
X154746723Y-127714285D01*
X154746723Y-127714285D02*
X154841961Y-127761904D01*
X154841961Y-127761904D02*
X154937200Y-127857142D01*
X154937200Y-127857142D02*
X154984819Y-127999999D01*
X154984819Y-127999999D02*
X154984819Y-128238094D01*
X153984819Y-126809523D02*
X153984819Y-126999999D01*
X153984819Y-126999999D02*
X154032438Y-127095237D01*
X154032438Y-127095237D02*
X154080057Y-127142856D01*
X154080057Y-127142856D02*
X154222914Y-127238094D01*
X154222914Y-127238094D02*
X154413390Y-127285713D01*
X154413390Y-127285713D02*
X154794342Y-127285713D01*
X154794342Y-127285713D02*
X154889580Y-127238094D01*
X154889580Y-127238094D02*
X154937200Y-127190475D01*
X154937200Y-127190475D02*
X154984819Y-127095237D01*
X154984819Y-127095237D02*
X154984819Y-126904761D01*
X154984819Y-126904761D02*
X154937200Y-126809523D01*
X154937200Y-126809523D02*
X154889580Y-126761904D01*
X154889580Y-126761904D02*
X154794342Y-126714285D01*
X154794342Y-126714285D02*
X154556247Y-126714285D01*
X154556247Y-126714285D02*
X154461009Y-126761904D01*
X154461009Y-126761904D02*
X154413390Y-126809523D01*
X154413390Y-126809523D02*
X154365771Y-126904761D01*
X154365771Y-126904761D02*
X154365771Y-127095237D01*
X154365771Y-127095237D02*
X154413390Y-127190475D01*
X154413390Y-127190475D02*
X154461009Y-127238094D01*
X154461009Y-127238094D02*
X154556247Y-127285713D01*
X155554819Y-132841904D02*
X154554819Y-132841904D01*
X155554819Y-132270476D02*
X154983390Y-132699047D01*
X154554819Y-132270476D02*
X155126247Y-132841904D01*
X167496667Y-60497200D02*
X167639524Y-60544819D01*
X167639524Y-60544819D02*
X167877619Y-60544819D01*
X167877619Y-60544819D02*
X167972857Y-60497200D01*
X167972857Y-60497200D02*
X168020476Y-60449580D01*
X168020476Y-60449580D02*
X168068095Y-60354342D01*
X168068095Y-60354342D02*
X168068095Y-60259104D01*
X168068095Y-60259104D02*
X168020476Y-60163866D01*
X168020476Y-60163866D02*
X167972857Y-60116247D01*
X167972857Y-60116247D02*
X167877619Y-60068628D01*
X167877619Y-60068628D02*
X167687143Y-60021009D01*
X167687143Y-60021009D02*
X167591905Y-59973390D01*
X167591905Y-59973390D02*
X167544286Y-59925771D01*
X167544286Y-59925771D02*
X167496667Y-59830533D01*
X167496667Y-59830533D02*
X167496667Y-59735295D01*
X167496667Y-59735295D02*
X167544286Y-59640057D01*
X167544286Y-59640057D02*
X167591905Y-59592438D01*
X167591905Y-59592438D02*
X167687143Y-59544819D01*
X167687143Y-59544819D02*
X167925238Y-59544819D01*
X167925238Y-59544819D02*
X168068095Y-59592438D01*
X168401429Y-59544819D02*
X168639524Y-60544819D01*
X168639524Y-60544819D02*
X168830000Y-59830533D01*
X168830000Y-59830533D02*
X169020476Y-60544819D01*
X169020476Y-60544819D02*
X169258572Y-59544819D01*
X169687143Y-60544819D02*
X169877619Y-60544819D01*
X169877619Y-60544819D02*
X169972857Y-60497200D01*
X169972857Y-60497200D02*
X170020476Y-60449580D01*
X170020476Y-60449580D02*
X170115714Y-60306723D01*
X170115714Y-60306723D02*
X170163333Y-60116247D01*
X170163333Y-60116247D02*
X170163333Y-59735295D01*
X170163333Y-59735295D02*
X170115714Y-59640057D01*
X170115714Y-59640057D02*
X170068095Y-59592438D01*
X170068095Y-59592438D02*
X169972857Y-59544819D01*
X169972857Y-59544819D02*
X169782381Y-59544819D01*
X169782381Y-59544819D02*
X169687143Y-59592438D01*
X169687143Y-59592438D02*
X169639524Y-59640057D01*
X169639524Y-59640057D02*
X169591905Y-59735295D01*
X169591905Y-59735295D02*
X169591905Y-59973390D01*
X169591905Y-59973390D02*
X169639524Y-60068628D01*
X169639524Y-60068628D02*
X169687143Y-60116247D01*
X169687143Y-60116247D02*
X169782381Y-60163866D01*
X169782381Y-60163866D02*
X169972857Y-60163866D01*
X169972857Y-60163866D02*
X170068095Y-60116247D01*
X170068095Y-60116247D02*
X170115714Y-60068628D01*
X170115714Y-60068628D02*
X170163333Y-59973390D01*
X42207200Y-35509523D02*
X42254819Y-35366666D01*
X42254819Y-35366666D02*
X42254819Y-35128571D01*
X42254819Y-35128571D02*
X42207200Y-35033333D01*
X42207200Y-35033333D02*
X42159580Y-34985714D01*
X42159580Y-34985714D02*
X42064342Y-34938095D01*
X42064342Y-34938095D02*
X41969104Y-34938095D01*
X41969104Y-34938095D02*
X41873866Y-34985714D01*
X41873866Y-34985714D02*
X41826247Y-35033333D01*
X41826247Y-35033333D02*
X41778628Y-35128571D01*
X41778628Y-35128571D02*
X41731009Y-35319047D01*
X41731009Y-35319047D02*
X41683390Y-35414285D01*
X41683390Y-35414285D02*
X41635771Y-35461904D01*
X41635771Y-35461904D02*
X41540533Y-35509523D01*
X41540533Y-35509523D02*
X41445295Y-35509523D01*
X41445295Y-35509523D02*
X41350057Y-35461904D01*
X41350057Y-35461904D02*
X41302438Y-35414285D01*
X41302438Y-35414285D02*
X41254819Y-35319047D01*
X41254819Y-35319047D02*
X41254819Y-35080952D01*
X41254819Y-35080952D02*
X41302438Y-34938095D01*
X41254819Y-34604761D02*
X42254819Y-34366666D01*
X42254819Y-34366666D02*
X41540533Y-34176190D01*
X41540533Y-34176190D02*
X42254819Y-33985714D01*
X42254819Y-33985714D02*
X41254819Y-33747619D01*
X41350057Y-33414285D02*
X41302438Y-33366666D01*
X41302438Y-33366666D02*
X41254819Y-33271428D01*
X41254819Y-33271428D02*
X41254819Y-33033333D01*
X41254819Y-33033333D02*
X41302438Y-32938095D01*
X41302438Y-32938095D02*
X41350057Y-32890476D01*
X41350057Y-32890476D02*
X41445295Y-32842857D01*
X41445295Y-32842857D02*
X41540533Y-32842857D01*
X41540533Y-32842857D02*
X41683390Y-32890476D01*
X41683390Y-32890476D02*
X42254819Y-33461904D01*
X42254819Y-33461904D02*
X42254819Y-32842857D01*
X42254819Y-31890476D02*
X42254819Y-32461904D01*
X42254819Y-32176190D02*
X41254819Y-32176190D01*
X41254819Y-32176190D02*
X41397676Y-32271428D01*
X41397676Y-32271428D02*
X41492914Y-32366666D01*
X41492914Y-32366666D02*
X41540533Y-32461904D01*
X113365714Y-137484819D02*
X113365714Y-136484819D01*
X113365714Y-136484819D02*
X113603809Y-136484819D01*
X113603809Y-136484819D02*
X113746666Y-136532438D01*
X113746666Y-136532438D02*
X113841904Y-136627676D01*
X113841904Y-136627676D02*
X113889523Y-136722914D01*
X113889523Y-136722914D02*
X113937142Y-136913390D01*
X113937142Y-136913390D02*
X113937142Y-137056247D01*
X113937142Y-137056247D02*
X113889523Y-137246723D01*
X113889523Y-137246723D02*
X113841904Y-137341961D01*
X113841904Y-137341961D02*
X113746666Y-137437200D01*
X113746666Y-137437200D02*
X113603809Y-137484819D01*
X113603809Y-137484819D02*
X113365714Y-137484819D01*
X114889523Y-137484819D02*
X114318095Y-137484819D01*
X114603809Y-137484819D02*
X114603809Y-136484819D01*
X114603809Y-136484819D02*
X114508571Y-136627676D01*
X114508571Y-136627676D02*
X114413333Y-136722914D01*
X114413333Y-136722914D02*
X114318095Y-136770533D01*
X115222857Y-136484819D02*
X115841904Y-136484819D01*
X115841904Y-136484819D02*
X115508571Y-136865771D01*
X115508571Y-136865771D02*
X115651428Y-136865771D01*
X115651428Y-136865771D02*
X115746666Y-136913390D01*
X115746666Y-136913390D02*
X115794285Y-136961009D01*
X115794285Y-136961009D02*
X115841904Y-137056247D01*
X115841904Y-137056247D02*
X115841904Y-137294342D01*
X115841904Y-137294342D02*
X115794285Y-137389580D01*
X115794285Y-137389580D02*
X115746666Y-137437200D01*
X115746666Y-137437200D02*
X115651428Y-137484819D01*
X115651428Y-137484819D02*
X115365714Y-137484819D01*
X115365714Y-137484819D02*
X115270476Y-137437200D01*
X115270476Y-137437200D02*
X115222857Y-137389580D01*
X109238095Y-138054819D02*
X109238095Y-137054819D01*
X109809523Y-138054819D02*
X109380952Y-137483390D01*
X109809523Y-137054819D02*
X109238095Y-137626247D01*
X95374819Y-85706666D02*
X94898628Y-86039999D01*
X95374819Y-86278094D02*
X94374819Y-86278094D01*
X94374819Y-86278094D02*
X94374819Y-85897142D01*
X94374819Y-85897142D02*
X94422438Y-85801904D01*
X94422438Y-85801904D02*
X94470057Y-85754285D01*
X94470057Y-85754285D02*
X94565295Y-85706666D01*
X94565295Y-85706666D02*
X94708152Y-85706666D01*
X94708152Y-85706666D02*
X94803390Y-85754285D01*
X94803390Y-85754285D02*
X94851009Y-85801904D01*
X94851009Y-85801904D02*
X94898628Y-85897142D01*
X94898628Y-85897142D02*
X94898628Y-86278094D01*
X94708152Y-84849523D02*
X95374819Y-84849523D01*
X94327200Y-85087618D02*
X95041485Y-85325713D01*
X95041485Y-85325713D02*
X95041485Y-84706666D01*
X107261905Y-39484819D02*
X107261905Y-38484819D01*
X107261905Y-38484819D02*
X107500000Y-38484819D01*
X107500000Y-38484819D02*
X107642857Y-38532438D01*
X107642857Y-38532438D02*
X107738095Y-38627676D01*
X107738095Y-38627676D02*
X107785714Y-38722914D01*
X107785714Y-38722914D02*
X107833333Y-38913390D01*
X107833333Y-38913390D02*
X107833333Y-39056247D01*
X107833333Y-39056247D02*
X107785714Y-39246723D01*
X107785714Y-39246723D02*
X107738095Y-39341961D01*
X107738095Y-39341961D02*
X107642857Y-39437200D01*
X107642857Y-39437200D02*
X107500000Y-39484819D01*
X107500000Y-39484819D02*
X107261905Y-39484819D01*
X108166667Y-38484819D02*
X108785714Y-38484819D01*
X108785714Y-38484819D02*
X108452381Y-38865771D01*
X108452381Y-38865771D02*
X108595238Y-38865771D01*
X108595238Y-38865771D02*
X108690476Y-38913390D01*
X108690476Y-38913390D02*
X108738095Y-38961009D01*
X108738095Y-38961009D02*
X108785714Y-39056247D01*
X108785714Y-39056247D02*
X108785714Y-39294342D01*
X108785714Y-39294342D02*
X108738095Y-39389580D01*
X108738095Y-39389580D02*
X108690476Y-39437200D01*
X108690476Y-39437200D02*
X108595238Y-39484819D01*
X108595238Y-39484819D02*
X108309524Y-39484819D01*
X108309524Y-39484819D02*
X108214286Y-39437200D01*
X108214286Y-39437200D02*
X108166667Y-39389580D01*
X102658095Y-40054819D02*
X102658095Y-39054819D01*
X103229523Y-40054819D02*
X102800952Y-39483390D01*
X103229523Y-39054819D02*
X102658095Y-39626247D01*
X66761905Y-39484819D02*
X66761905Y-38484819D01*
X66761905Y-38484819D02*
X67000000Y-38484819D01*
X67000000Y-38484819D02*
X67142857Y-38532438D01*
X67142857Y-38532438D02*
X67238095Y-38627676D01*
X67238095Y-38627676D02*
X67285714Y-38722914D01*
X67285714Y-38722914D02*
X67333333Y-38913390D01*
X67333333Y-38913390D02*
X67333333Y-39056247D01*
X67333333Y-39056247D02*
X67285714Y-39246723D01*
X67285714Y-39246723D02*
X67238095Y-39341961D01*
X67238095Y-39341961D02*
X67142857Y-39437200D01*
X67142857Y-39437200D02*
X67000000Y-39484819D01*
X67000000Y-39484819D02*
X66761905Y-39484819D01*
X68285714Y-39484819D02*
X67714286Y-39484819D01*
X68000000Y-39484819D02*
X68000000Y-38484819D01*
X68000000Y-38484819D02*
X67904762Y-38627676D01*
X67904762Y-38627676D02*
X67809524Y-38722914D01*
X67809524Y-38722914D02*
X67714286Y-38770533D01*
X62158095Y-40054819D02*
X62158095Y-39054819D01*
X62729523Y-40054819D02*
X62300952Y-39483390D01*
X62729523Y-39054819D02*
X62158095Y-39626247D01*
X48020476Y-60497200D02*
X48163333Y-60544819D01*
X48163333Y-60544819D02*
X48401428Y-60544819D01*
X48401428Y-60544819D02*
X48496666Y-60497200D01*
X48496666Y-60497200D02*
X48544285Y-60449580D01*
X48544285Y-60449580D02*
X48591904Y-60354342D01*
X48591904Y-60354342D02*
X48591904Y-60259104D01*
X48591904Y-60259104D02*
X48544285Y-60163866D01*
X48544285Y-60163866D02*
X48496666Y-60116247D01*
X48496666Y-60116247D02*
X48401428Y-60068628D01*
X48401428Y-60068628D02*
X48210952Y-60021009D01*
X48210952Y-60021009D02*
X48115714Y-59973390D01*
X48115714Y-59973390D02*
X48068095Y-59925771D01*
X48068095Y-59925771D02*
X48020476Y-59830533D01*
X48020476Y-59830533D02*
X48020476Y-59735295D01*
X48020476Y-59735295D02*
X48068095Y-59640057D01*
X48068095Y-59640057D02*
X48115714Y-59592438D01*
X48115714Y-59592438D02*
X48210952Y-59544819D01*
X48210952Y-59544819D02*
X48449047Y-59544819D01*
X48449047Y-59544819D02*
X48591904Y-59592438D01*
X48925238Y-59544819D02*
X49163333Y-60544819D01*
X49163333Y-60544819D02*
X49353809Y-59830533D01*
X49353809Y-59830533D02*
X49544285Y-60544819D01*
X49544285Y-60544819D02*
X49782381Y-59544819D01*
X50687142Y-60544819D02*
X50115714Y-60544819D01*
X50401428Y-60544819D02*
X50401428Y-59544819D01*
X50401428Y-59544819D02*
X50306190Y-59687676D01*
X50306190Y-59687676D02*
X50210952Y-59782914D01*
X50210952Y-59782914D02*
X50115714Y-59830533D01*
X51020476Y-59544819D02*
X51687142Y-59544819D01*
X51687142Y-59544819D02*
X51258571Y-60544819D01*
X170365476Y-143772200D02*
X170508333Y-143819819D01*
X170508333Y-143819819D02*
X170746428Y-143819819D01*
X170746428Y-143819819D02*
X170841666Y-143772200D01*
X170841666Y-143772200D02*
X170889285Y-143724580D01*
X170889285Y-143724580D02*
X170936904Y-143629342D01*
X170936904Y-143629342D02*
X170936904Y-143534104D01*
X170936904Y-143534104D02*
X170889285Y-143438866D01*
X170889285Y-143438866D02*
X170841666Y-143391247D01*
X170841666Y-143391247D02*
X170746428Y-143343628D01*
X170746428Y-143343628D02*
X170555952Y-143296009D01*
X170555952Y-143296009D02*
X170460714Y-143248390D01*
X170460714Y-143248390D02*
X170413095Y-143200771D01*
X170413095Y-143200771D02*
X170365476Y-143105533D01*
X170365476Y-143105533D02*
X170365476Y-143010295D01*
X170365476Y-143010295D02*
X170413095Y-142915057D01*
X170413095Y-142915057D02*
X170460714Y-142867438D01*
X170460714Y-142867438D02*
X170555952Y-142819819D01*
X170555952Y-142819819D02*
X170794047Y-142819819D01*
X170794047Y-142819819D02*
X170936904Y-142867438D01*
X171270238Y-142819819D02*
X171508333Y-143819819D01*
X171508333Y-143819819D02*
X171698809Y-143105533D01*
X171698809Y-143105533D02*
X171889285Y-143819819D01*
X171889285Y-143819819D02*
X172127381Y-142819819D01*
X172460714Y-142915057D02*
X172508333Y-142867438D01*
X172508333Y-142867438D02*
X172603571Y-142819819D01*
X172603571Y-142819819D02*
X172841666Y-142819819D01*
X172841666Y-142819819D02*
X172936904Y-142867438D01*
X172936904Y-142867438D02*
X172984523Y-142915057D01*
X172984523Y-142915057D02*
X173032142Y-143010295D01*
X173032142Y-143010295D02*
X173032142Y-143105533D01*
X173032142Y-143105533D02*
X172984523Y-143248390D01*
X172984523Y-143248390D02*
X172413095Y-143819819D01*
X172413095Y-143819819D02*
X173032142Y-143819819D01*
X173889285Y-143153152D02*
X173889285Y-143819819D01*
X173651190Y-142772200D02*
X173413095Y-143486485D01*
X173413095Y-143486485D02*
X174032142Y-143486485D01*
X130746667Y-21997200D02*
X130889524Y-22044819D01*
X130889524Y-22044819D02*
X131127619Y-22044819D01*
X131127619Y-22044819D02*
X131222857Y-21997200D01*
X131222857Y-21997200D02*
X131270476Y-21949580D01*
X131270476Y-21949580D02*
X131318095Y-21854342D01*
X131318095Y-21854342D02*
X131318095Y-21759104D01*
X131318095Y-21759104D02*
X131270476Y-21663866D01*
X131270476Y-21663866D02*
X131222857Y-21616247D01*
X131222857Y-21616247D02*
X131127619Y-21568628D01*
X131127619Y-21568628D02*
X130937143Y-21521009D01*
X130937143Y-21521009D02*
X130841905Y-21473390D01*
X130841905Y-21473390D02*
X130794286Y-21425771D01*
X130794286Y-21425771D02*
X130746667Y-21330533D01*
X130746667Y-21330533D02*
X130746667Y-21235295D01*
X130746667Y-21235295D02*
X130794286Y-21140057D01*
X130794286Y-21140057D02*
X130841905Y-21092438D01*
X130841905Y-21092438D02*
X130937143Y-21044819D01*
X130937143Y-21044819D02*
X131175238Y-21044819D01*
X131175238Y-21044819D02*
X131318095Y-21092438D01*
X131651429Y-21044819D02*
X131889524Y-22044819D01*
X131889524Y-22044819D02*
X132080000Y-21330533D01*
X132080000Y-21330533D02*
X132270476Y-22044819D01*
X132270476Y-22044819D02*
X132508572Y-21044819D01*
X133318095Y-21378152D02*
X133318095Y-22044819D01*
X133080000Y-20997200D02*
X132841905Y-21711485D01*
X132841905Y-21711485D02*
X133460952Y-21711485D01*
X62234819Y-75294285D02*
X61234819Y-75294285D01*
X61234819Y-75294285D02*
X61234819Y-75056190D01*
X61234819Y-75056190D02*
X61282438Y-74913333D01*
X61282438Y-74913333D02*
X61377676Y-74818095D01*
X61377676Y-74818095D02*
X61472914Y-74770476D01*
X61472914Y-74770476D02*
X61663390Y-74722857D01*
X61663390Y-74722857D02*
X61806247Y-74722857D01*
X61806247Y-74722857D02*
X61996723Y-74770476D01*
X61996723Y-74770476D02*
X62091961Y-74818095D01*
X62091961Y-74818095D02*
X62187200Y-74913333D01*
X62187200Y-74913333D02*
X62234819Y-75056190D01*
X62234819Y-75056190D02*
X62234819Y-75294285D01*
X62234819Y-73770476D02*
X62234819Y-74341904D01*
X62234819Y-74056190D02*
X61234819Y-74056190D01*
X61234819Y-74056190D02*
X61377676Y-74151428D01*
X61377676Y-74151428D02*
X61472914Y-74246666D01*
X61472914Y-74246666D02*
X61520533Y-74341904D01*
X61234819Y-73437142D02*
X61234819Y-72770476D01*
X61234819Y-72770476D02*
X62234819Y-73199047D01*
X62804819Y-79421904D02*
X61804819Y-79421904D01*
X62804819Y-78850476D02*
X62233390Y-79279047D01*
X61804819Y-78850476D02*
X62376247Y-79421904D01*
X154984819Y-105318094D02*
X153984819Y-105318094D01*
X153984819Y-105318094D02*
X153984819Y-105079999D01*
X153984819Y-105079999D02*
X154032438Y-104937142D01*
X154032438Y-104937142D02*
X154127676Y-104841904D01*
X154127676Y-104841904D02*
X154222914Y-104794285D01*
X154222914Y-104794285D02*
X154413390Y-104746666D01*
X154413390Y-104746666D02*
X154556247Y-104746666D01*
X154556247Y-104746666D02*
X154746723Y-104794285D01*
X154746723Y-104794285D02*
X154841961Y-104841904D01*
X154841961Y-104841904D02*
X154937200Y-104937142D01*
X154937200Y-104937142D02*
X154984819Y-105079999D01*
X154984819Y-105079999D02*
X154984819Y-105318094D01*
X153984819Y-104413332D02*
X153984819Y-103746666D01*
X153984819Y-103746666D02*
X154984819Y-104175237D01*
X155554819Y-109921904D02*
X154554819Y-109921904D01*
X155554819Y-109350476D02*
X154983390Y-109779047D01*
X154554819Y-109350476D02*
X155126247Y-109921904D01*
X154484819Y-71318094D02*
X153484819Y-71318094D01*
X153484819Y-71318094D02*
X153484819Y-71079999D01*
X153484819Y-71079999D02*
X153532438Y-70937142D01*
X153532438Y-70937142D02*
X153627676Y-70841904D01*
X153627676Y-70841904D02*
X153722914Y-70794285D01*
X153722914Y-70794285D02*
X153913390Y-70746666D01*
X153913390Y-70746666D02*
X154056247Y-70746666D01*
X154056247Y-70746666D02*
X154246723Y-70794285D01*
X154246723Y-70794285D02*
X154341961Y-70841904D01*
X154341961Y-70841904D02*
X154437200Y-70937142D01*
X154437200Y-70937142D02*
X154484819Y-71079999D01*
X154484819Y-71079999D02*
X154484819Y-71318094D01*
X154484819Y-70270475D02*
X154484819Y-70079999D01*
X154484819Y-70079999D02*
X154437200Y-69984761D01*
X154437200Y-69984761D02*
X154389580Y-69937142D01*
X154389580Y-69937142D02*
X154246723Y-69841904D01*
X154246723Y-69841904D02*
X154056247Y-69794285D01*
X154056247Y-69794285D02*
X153675295Y-69794285D01*
X153675295Y-69794285D02*
X153580057Y-69841904D01*
X153580057Y-69841904D02*
X153532438Y-69889523D01*
X153532438Y-69889523D02*
X153484819Y-69984761D01*
X153484819Y-69984761D02*
X153484819Y-70175237D01*
X153484819Y-70175237D02*
X153532438Y-70270475D01*
X153532438Y-70270475D02*
X153580057Y-70318094D01*
X153580057Y-70318094D02*
X153675295Y-70365713D01*
X153675295Y-70365713D02*
X153913390Y-70365713D01*
X153913390Y-70365713D02*
X154008628Y-70318094D01*
X154008628Y-70318094D02*
X154056247Y-70270475D01*
X154056247Y-70270475D02*
X154103866Y-70175237D01*
X154103866Y-70175237D02*
X154103866Y-69984761D01*
X154103866Y-69984761D02*
X154056247Y-69889523D01*
X154056247Y-69889523D02*
X154008628Y-69841904D01*
X154008628Y-69841904D02*
X153913390Y-69794285D01*
X155054819Y-75921904D02*
X154054819Y-75921904D01*
X155054819Y-75350476D02*
X154483390Y-75779047D01*
X154054819Y-75350476D02*
X154626247Y-75921904D01*
X87261905Y-39484819D02*
X87261905Y-38484819D01*
X87261905Y-38484819D02*
X87500000Y-38484819D01*
X87500000Y-38484819D02*
X87642857Y-38532438D01*
X87642857Y-38532438D02*
X87738095Y-38627676D01*
X87738095Y-38627676D02*
X87785714Y-38722914D01*
X87785714Y-38722914D02*
X87833333Y-38913390D01*
X87833333Y-38913390D02*
X87833333Y-39056247D01*
X87833333Y-39056247D02*
X87785714Y-39246723D01*
X87785714Y-39246723D02*
X87738095Y-39341961D01*
X87738095Y-39341961D02*
X87642857Y-39437200D01*
X87642857Y-39437200D02*
X87500000Y-39484819D01*
X87500000Y-39484819D02*
X87261905Y-39484819D01*
X88214286Y-38580057D02*
X88261905Y-38532438D01*
X88261905Y-38532438D02*
X88357143Y-38484819D01*
X88357143Y-38484819D02*
X88595238Y-38484819D01*
X88595238Y-38484819D02*
X88690476Y-38532438D01*
X88690476Y-38532438D02*
X88738095Y-38580057D01*
X88738095Y-38580057D02*
X88785714Y-38675295D01*
X88785714Y-38675295D02*
X88785714Y-38770533D01*
X88785714Y-38770533D02*
X88738095Y-38913390D01*
X88738095Y-38913390D02*
X88166667Y-39484819D01*
X88166667Y-39484819D02*
X88785714Y-39484819D01*
X82658095Y-40054819D02*
X82658095Y-39054819D01*
X83229523Y-40054819D02*
X82800952Y-39483390D01*
X83229523Y-39054819D02*
X82658095Y-39626247D01*
X133285714Y-137484819D02*
X133285714Y-136484819D01*
X133285714Y-136484819D02*
X133523809Y-136484819D01*
X133523809Y-136484819D02*
X133666666Y-136532438D01*
X133666666Y-136532438D02*
X133761904Y-136627676D01*
X133761904Y-136627676D02*
X133809523Y-136722914D01*
X133809523Y-136722914D02*
X133857142Y-136913390D01*
X133857142Y-136913390D02*
X133857142Y-137056247D01*
X133857142Y-137056247D02*
X133809523Y-137246723D01*
X133809523Y-137246723D02*
X133761904Y-137341961D01*
X133761904Y-137341961D02*
X133666666Y-137437200D01*
X133666666Y-137437200D02*
X133523809Y-137484819D01*
X133523809Y-137484819D02*
X133285714Y-137484819D01*
X134809523Y-137484819D02*
X134238095Y-137484819D01*
X134523809Y-137484819D02*
X134523809Y-136484819D01*
X134523809Y-136484819D02*
X134428571Y-136627676D01*
X134428571Y-136627676D02*
X134333333Y-136722914D01*
X134333333Y-136722914D02*
X134238095Y-136770533D01*
X135190476Y-136580057D02*
X135238095Y-136532438D01*
X135238095Y-136532438D02*
X135333333Y-136484819D01*
X135333333Y-136484819D02*
X135571428Y-136484819D01*
X135571428Y-136484819D02*
X135666666Y-136532438D01*
X135666666Y-136532438D02*
X135714285Y-136580057D01*
X135714285Y-136580057D02*
X135761904Y-136675295D01*
X135761904Y-136675295D02*
X135761904Y-136770533D01*
X135761904Y-136770533D02*
X135714285Y-136913390D01*
X135714285Y-136913390D02*
X135142857Y-137484819D01*
X135142857Y-137484819D02*
X135761904Y-137484819D01*
X129158095Y-138054819D02*
X129158095Y-137054819D01*
X129729523Y-138054819D02*
X129300952Y-137483390D01*
X129729523Y-137054819D02*
X129158095Y-137626247D01*
X164207200Y-35759523D02*
X164254819Y-35616666D01*
X164254819Y-35616666D02*
X164254819Y-35378571D01*
X164254819Y-35378571D02*
X164207200Y-35283333D01*
X164207200Y-35283333D02*
X164159580Y-35235714D01*
X164159580Y-35235714D02*
X164064342Y-35188095D01*
X164064342Y-35188095D02*
X163969104Y-35188095D01*
X163969104Y-35188095D02*
X163873866Y-35235714D01*
X163873866Y-35235714D02*
X163826247Y-35283333D01*
X163826247Y-35283333D02*
X163778628Y-35378571D01*
X163778628Y-35378571D02*
X163731009Y-35569047D01*
X163731009Y-35569047D02*
X163683390Y-35664285D01*
X163683390Y-35664285D02*
X163635771Y-35711904D01*
X163635771Y-35711904D02*
X163540533Y-35759523D01*
X163540533Y-35759523D02*
X163445295Y-35759523D01*
X163445295Y-35759523D02*
X163350057Y-35711904D01*
X163350057Y-35711904D02*
X163302438Y-35664285D01*
X163302438Y-35664285D02*
X163254819Y-35569047D01*
X163254819Y-35569047D02*
X163254819Y-35330952D01*
X163254819Y-35330952D02*
X163302438Y-35188095D01*
X163254819Y-34854761D02*
X164254819Y-34616666D01*
X164254819Y-34616666D02*
X163540533Y-34426190D01*
X163540533Y-34426190D02*
X164254819Y-34235714D01*
X164254819Y-34235714D02*
X163254819Y-33997619D01*
X163350057Y-33664285D02*
X163302438Y-33616666D01*
X163302438Y-33616666D02*
X163254819Y-33521428D01*
X163254819Y-33521428D02*
X163254819Y-33283333D01*
X163254819Y-33283333D02*
X163302438Y-33188095D01*
X163302438Y-33188095D02*
X163350057Y-33140476D01*
X163350057Y-33140476D02*
X163445295Y-33092857D01*
X163445295Y-33092857D02*
X163540533Y-33092857D01*
X163540533Y-33092857D02*
X163683390Y-33140476D01*
X163683390Y-33140476D02*
X164254819Y-33711904D01*
X164254819Y-33711904D02*
X164254819Y-33092857D01*
X163350057Y-32711904D02*
X163302438Y-32664285D01*
X163302438Y-32664285D02*
X163254819Y-32569047D01*
X163254819Y-32569047D02*
X163254819Y-32330952D01*
X163254819Y-32330952D02*
X163302438Y-32235714D01*
X163302438Y-32235714D02*
X163350057Y-32188095D01*
X163350057Y-32188095D02*
X163445295Y-32140476D01*
X163445295Y-32140476D02*
X163540533Y-32140476D01*
X163540533Y-32140476D02*
X163683390Y-32188095D01*
X163683390Y-32188095D02*
X164254819Y-32759523D01*
X164254819Y-32759523D02*
X164254819Y-32140476D01*
X64496667Y-21997200D02*
X64639524Y-22044819D01*
X64639524Y-22044819D02*
X64877619Y-22044819D01*
X64877619Y-22044819D02*
X64972857Y-21997200D01*
X64972857Y-21997200D02*
X65020476Y-21949580D01*
X65020476Y-21949580D02*
X65068095Y-21854342D01*
X65068095Y-21854342D02*
X65068095Y-21759104D01*
X65068095Y-21759104D02*
X65020476Y-21663866D01*
X65020476Y-21663866D02*
X64972857Y-21616247D01*
X64972857Y-21616247D02*
X64877619Y-21568628D01*
X64877619Y-21568628D02*
X64687143Y-21521009D01*
X64687143Y-21521009D02*
X64591905Y-21473390D01*
X64591905Y-21473390D02*
X64544286Y-21425771D01*
X64544286Y-21425771D02*
X64496667Y-21330533D01*
X64496667Y-21330533D02*
X64496667Y-21235295D01*
X64496667Y-21235295D02*
X64544286Y-21140057D01*
X64544286Y-21140057D02*
X64591905Y-21092438D01*
X64591905Y-21092438D02*
X64687143Y-21044819D01*
X64687143Y-21044819D02*
X64925238Y-21044819D01*
X64925238Y-21044819D02*
X65068095Y-21092438D01*
X65401429Y-21044819D02*
X65639524Y-22044819D01*
X65639524Y-22044819D02*
X65830000Y-21330533D01*
X65830000Y-21330533D02*
X66020476Y-22044819D01*
X66020476Y-22044819D02*
X66258572Y-21044819D01*
X67163333Y-22044819D02*
X66591905Y-22044819D01*
X66877619Y-22044819D02*
X66877619Y-21044819D01*
X66877619Y-21044819D02*
X66782381Y-21187676D01*
X66782381Y-21187676D02*
X66687143Y-21282914D01*
X66687143Y-21282914D02*
X66591905Y-21330533D01*
X48020476Y-104497200D02*
X48163333Y-104544819D01*
X48163333Y-104544819D02*
X48401428Y-104544819D01*
X48401428Y-104544819D02*
X48496666Y-104497200D01*
X48496666Y-104497200D02*
X48544285Y-104449580D01*
X48544285Y-104449580D02*
X48591904Y-104354342D01*
X48591904Y-104354342D02*
X48591904Y-104259104D01*
X48591904Y-104259104D02*
X48544285Y-104163866D01*
X48544285Y-104163866D02*
X48496666Y-104116247D01*
X48496666Y-104116247D02*
X48401428Y-104068628D01*
X48401428Y-104068628D02*
X48210952Y-104021009D01*
X48210952Y-104021009D02*
X48115714Y-103973390D01*
X48115714Y-103973390D02*
X48068095Y-103925771D01*
X48068095Y-103925771D02*
X48020476Y-103830533D01*
X48020476Y-103830533D02*
X48020476Y-103735295D01*
X48020476Y-103735295D02*
X48068095Y-103640057D01*
X48068095Y-103640057D02*
X48115714Y-103592438D01*
X48115714Y-103592438D02*
X48210952Y-103544819D01*
X48210952Y-103544819D02*
X48449047Y-103544819D01*
X48449047Y-103544819D02*
X48591904Y-103592438D01*
X48925238Y-103544819D02*
X49163333Y-104544819D01*
X49163333Y-104544819D02*
X49353809Y-103830533D01*
X49353809Y-103830533D02*
X49544285Y-104544819D01*
X49544285Y-104544819D02*
X49782381Y-103544819D01*
X50687142Y-104544819D02*
X50115714Y-104544819D01*
X50401428Y-104544819D02*
X50401428Y-103544819D01*
X50401428Y-103544819D02*
X50306190Y-103687676D01*
X50306190Y-103687676D02*
X50210952Y-103782914D01*
X50210952Y-103782914D02*
X50115714Y-103830533D01*
X51163333Y-104544819D02*
X51353809Y-104544819D01*
X51353809Y-104544819D02*
X51449047Y-104497200D01*
X51449047Y-104497200D02*
X51496666Y-104449580D01*
X51496666Y-104449580D02*
X51591904Y-104306723D01*
X51591904Y-104306723D02*
X51639523Y-104116247D01*
X51639523Y-104116247D02*
X51639523Y-103735295D01*
X51639523Y-103735295D02*
X51591904Y-103640057D01*
X51591904Y-103640057D02*
X51544285Y-103592438D01*
X51544285Y-103592438D02*
X51449047Y-103544819D01*
X51449047Y-103544819D02*
X51258571Y-103544819D01*
X51258571Y-103544819D02*
X51163333Y-103592438D01*
X51163333Y-103592438D02*
X51115714Y-103640057D01*
X51115714Y-103640057D02*
X51068095Y-103735295D01*
X51068095Y-103735295D02*
X51068095Y-103973390D01*
X51068095Y-103973390D02*
X51115714Y-104068628D01*
X51115714Y-104068628D02*
X51163333Y-104116247D01*
X51163333Y-104116247D02*
X51258571Y-104163866D01*
X51258571Y-104163866D02*
X51449047Y-104163866D01*
X51449047Y-104163866D02*
X51544285Y-104116247D01*
X51544285Y-104116247D02*
X51591904Y-104068628D01*
X51591904Y-104068628D02*
X51639523Y-103973390D01*
X151860476Y-157817200D02*
X152003333Y-157864819D01*
X152003333Y-157864819D02*
X152241428Y-157864819D01*
X152241428Y-157864819D02*
X152336666Y-157817200D01*
X152336666Y-157817200D02*
X152384285Y-157769580D01*
X152384285Y-157769580D02*
X152431904Y-157674342D01*
X152431904Y-157674342D02*
X152431904Y-157579104D01*
X152431904Y-157579104D02*
X152384285Y-157483866D01*
X152384285Y-157483866D02*
X152336666Y-157436247D01*
X152336666Y-157436247D02*
X152241428Y-157388628D01*
X152241428Y-157388628D02*
X152050952Y-157341009D01*
X152050952Y-157341009D02*
X151955714Y-157293390D01*
X151955714Y-157293390D02*
X151908095Y-157245771D01*
X151908095Y-157245771D02*
X151860476Y-157150533D01*
X151860476Y-157150533D02*
X151860476Y-157055295D01*
X151860476Y-157055295D02*
X151908095Y-156960057D01*
X151908095Y-156960057D02*
X151955714Y-156912438D01*
X151955714Y-156912438D02*
X152050952Y-156864819D01*
X152050952Y-156864819D02*
X152289047Y-156864819D01*
X152289047Y-156864819D02*
X152431904Y-156912438D01*
X152765238Y-156864819D02*
X153003333Y-157864819D01*
X153003333Y-157864819D02*
X153193809Y-157150533D01*
X153193809Y-157150533D02*
X153384285Y-157864819D01*
X153384285Y-157864819D02*
X153622381Y-156864819D01*
X154527142Y-157864819D02*
X153955714Y-157864819D01*
X154241428Y-157864819D02*
X154241428Y-156864819D01*
X154241428Y-156864819D02*
X154146190Y-157007676D01*
X154146190Y-157007676D02*
X154050952Y-157102914D01*
X154050952Y-157102914D02*
X153955714Y-157150533D01*
X155479523Y-157864819D02*
X154908095Y-157864819D01*
X155193809Y-157864819D02*
X155193809Y-156864819D01*
X155193809Y-156864819D02*
X155098571Y-157007676D01*
X155098571Y-157007676D02*
X155003333Y-157102914D01*
X155003333Y-157102914D02*
X154908095Y-157150533D01*
X64860476Y-157817200D02*
X65003333Y-157864819D01*
X65003333Y-157864819D02*
X65241428Y-157864819D01*
X65241428Y-157864819D02*
X65336666Y-157817200D01*
X65336666Y-157817200D02*
X65384285Y-157769580D01*
X65384285Y-157769580D02*
X65431904Y-157674342D01*
X65431904Y-157674342D02*
X65431904Y-157579104D01*
X65431904Y-157579104D02*
X65384285Y-157483866D01*
X65384285Y-157483866D02*
X65336666Y-157436247D01*
X65336666Y-157436247D02*
X65241428Y-157388628D01*
X65241428Y-157388628D02*
X65050952Y-157341009D01*
X65050952Y-157341009D02*
X64955714Y-157293390D01*
X64955714Y-157293390D02*
X64908095Y-157245771D01*
X64908095Y-157245771D02*
X64860476Y-157150533D01*
X64860476Y-157150533D02*
X64860476Y-157055295D01*
X64860476Y-157055295D02*
X64908095Y-156960057D01*
X64908095Y-156960057D02*
X64955714Y-156912438D01*
X64955714Y-156912438D02*
X65050952Y-156864819D01*
X65050952Y-156864819D02*
X65289047Y-156864819D01*
X65289047Y-156864819D02*
X65431904Y-156912438D01*
X65765238Y-156864819D02*
X66003333Y-157864819D01*
X66003333Y-157864819D02*
X66193809Y-157150533D01*
X66193809Y-157150533D02*
X66384285Y-157864819D01*
X66384285Y-157864819D02*
X66622381Y-156864819D01*
X67527142Y-157864819D02*
X66955714Y-157864819D01*
X67241428Y-157864819D02*
X67241428Y-156864819D01*
X67241428Y-156864819D02*
X67146190Y-157007676D01*
X67146190Y-157007676D02*
X67050952Y-157102914D01*
X67050952Y-157102914D02*
X66955714Y-157150533D01*
X68431904Y-156864819D02*
X67955714Y-156864819D01*
X67955714Y-156864819D02*
X67908095Y-157341009D01*
X67908095Y-157341009D02*
X67955714Y-157293390D01*
X67955714Y-157293390D02*
X68050952Y-157245771D01*
X68050952Y-157245771D02*
X68289047Y-157245771D01*
X68289047Y-157245771D02*
X68384285Y-157293390D01*
X68384285Y-157293390D02*
X68431904Y-157341009D01*
X68431904Y-157341009D02*
X68479523Y-157436247D01*
X68479523Y-157436247D02*
X68479523Y-157674342D01*
X68479523Y-157674342D02*
X68431904Y-157769580D01*
X68431904Y-157769580D02*
X68384285Y-157817200D01*
X68384285Y-157817200D02*
X68289047Y-157864819D01*
X68289047Y-157864819D02*
X68050952Y-157864819D01*
X68050952Y-157864819D02*
X67955714Y-157817200D01*
X67955714Y-157817200D02*
X67908095Y-157769580D01*
X146761905Y-38984819D02*
X146761905Y-37984819D01*
X146761905Y-37984819D02*
X147000000Y-37984819D01*
X147000000Y-37984819D02*
X147142857Y-38032438D01*
X147142857Y-38032438D02*
X147238095Y-38127676D01*
X147238095Y-38127676D02*
X147285714Y-38222914D01*
X147285714Y-38222914D02*
X147333333Y-38413390D01*
X147333333Y-38413390D02*
X147333333Y-38556247D01*
X147333333Y-38556247D02*
X147285714Y-38746723D01*
X147285714Y-38746723D02*
X147238095Y-38841961D01*
X147238095Y-38841961D02*
X147142857Y-38937200D01*
X147142857Y-38937200D02*
X147000000Y-38984819D01*
X147000000Y-38984819D02*
X146761905Y-38984819D01*
X148238095Y-37984819D02*
X147761905Y-37984819D01*
X147761905Y-37984819D02*
X147714286Y-38461009D01*
X147714286Y-38461009D02*
X147761905Y-38413390D01*
X147761905Y-38413390D02*
X147857143Y-38365771D01*
X147857143Y-38365771D02*
X148095238Y-38365771D01*
X148095238Y-38365771D02*
X148190476Y-38413390D01*
X148190476Y-38413390D02*
X148238095Y-38461009D01*
X148238095Y-38461009D02*
X148285714Y-38556247D01*
X148285714Y-38556247D02*
X148285714Y-38794342D01*
X148285714Y-38794342D02*
X148238095Y-38889580D01*
X148238095Y-38889580D02*
X148190476Y-38937200D01*
X148190476Y-38937200D02*
X148095238Y-38984819D01*
X148095238Y-38984819D02*
X147857143Y-38984819D01*
X147857143Y-38984819D02*
X147761905Y-38937200D01*
X147761905Y-38937200D02*
X147714286Y-38889580D01*
X142158095Y-39554819D02*
X142158095Y-38554819D01*
X142729523Y-39554819D02*
X142300952Y-38983390D01*
X142729523Y-38554819D02*
X142158095Y-39126247D01*
X108246667Y-21997200D02*
X108389524Y-22044819D01*
X108389524Y-22044819D02*
X108627619Y-22044819D01*
X108627619Y-22044819D02*
X108722857Y-21997200D01*
X108722857Y-21997200D02*
X108770476Y-21949580D01*
X108770476Y-21949580D02*
X108818095Y-21854342D01*
X108818095Y-21854342D02*
X108818095Y-21759104D01*
X108818095Y-21759104D02*
X108770476Y-21663866D01*
X108770476Y-21663866D02*
X108722857Y-21616247D01*
X108722857Y-21616247D02*
X108627619Y-21568628D01*
X108627619Y-21568628D02*
X108437143Y-21521009D01*
X108437143Y-21521009D02*
X108341905Y-21473390D01*
X108341905Y-21473390D02*
X108294286Y-21425771D01*
X108294286Y-21425771D02*
X108246667Y-21330533D01*
X108246667Y-21330533D02*
X108246667Y-21235295D01*
X108246667Y-21235295D02*
X108294286Y-21140057D01*
X108294286Y-21140057D02*
X108341905Y-21092438D01*
X108341905Y-21092438D02*
X108437143Y-21044819D01*
X108437143Y-21044819D02*
X108675238Y-21044819D01*
X108675238Y-21044819D02*
X108818095Y-21092438D01*
X109151429Y-21044819D02*
X109389524Y-22044819D01*
X109389524Y-22044819D02*
X109580000Y-21330533D01*
X109580000Y-21330533D02*
X109770476Y-22044819D01*
X109770476Y-22044819D02*
X110008572Y-21044819D01*
X110294286Y-21044819D02*
X110913333Y-21044819D01*
X110913333Y-21044819D02*
X110580000Y-21425771D01*
X110580000Y-21425771D02*
X110722857Y-21425771D01*
X110722857Y-21425771D02*
X110818095Y-21473390D01*
X110818095Y-21473390D02*
X110865714Y-21521009D01*
X110865714Y-21521009D02*
X110913333Y-21616247D01*
X110913333Y-21616247D02*
X110913333Y-21854342D01*
X110913333Y-21854342D02*
X110865714Y-21949580D01*
X110865714Y-21949580D02*
X110818095Y-21997200D01*
X110818095Y-21997200D02*
X110722857Y-22044819D01*
X110722857Y-22044819D02*
X110437143Y-22044819D01*
X110437143Y-22044819D02*
X110341905Y-21997200D01*
X110341905Y-21997200D02*
X110294286Y-21949580D01*
X48020476Y-126747200D02*
X48163333Y-126794819D01*
X48163333Y-126794819D02*
X48401428Y-126794819D01*
X48401428Y-126794819D02*
X48496666Y-126747200D01*
X48496666Y-126747200D02*
X48544285Y-126699580D01*
X48544285Y-126699580D02*
X48591904Y-126604342D01*
X48591904Y-126604342D02*
X48591904Y-126509104D01*
X48591904Y-126509104D02*
X48544285Y-126413866D01*
X48544285Y-126413866D02*
X48496666Y-126366247D01*
X48496666Y-126366247D02*
X48401428Y-126318628D01*
X48401428Y-126318628D02*
X48210952Y-126271009D01*
X48210952Y-126271009D02*
X48115714Y-126223390D01*
X48115714Y-126223390D02*
X48068095Y-126175771D01*
X48068095Y-126175771D02*
X48020476Y-126080533D01*
X48020476Y-126080533D02*
X48020476Y-125985295D01*
X48020476Y-125985295D02*
X48068095Y-125890057D01*
X48068095Y-125890057D02*
X48115714Y-125842438D01*
X48115714Y-125842438D02*
X48210952Y-125794819D01*
X48210952Y-125794819D02*
X48449047Y-125794819D01*
X48449047Y-125794819D02*
X48591904Y-125842438D01*
X48925238Y-125794819D02*
X49163333Y-126794819D01*
X49163333Y-126794819D02*
X49353809Y-126080533D01*
X49353809Y-126080533D02*
X49544285Y-126794819D01*
X49544285Y-126794819D02*
X49782381Y-125794819D01*
X50115714Y-125890057D02*
X50163333Y-125842438D01*
X50163333Y-125842438D02*
X50258571Y-125794819D01*
X50258571Y-125794819D02*
X50496666Y-125794819D01*
X50496666Y-125794819D02*
X50591904Y-125842438D01*
X50591904Y-125842438D02*
X50639523Y-125890057D01*
X50639523Y-125890057D02*
X50687142Y-125985295D01*
X50687142Y-125985295D02*
X50687142Y-126080533D01*
X50687142Y-126080533D02*
X50639523Y-126223390D01*
X50639523Y-126223390D02*
X50068095Y-126794819D01*
X50068095Y-126794819D02*
X50687142Y-126794819D01*
X51306190Y-125794819D02*
X51401428Y-125794819D01*
X51401428Y-125794819D02*
X51496666Y-125842438D01*
X51496666Y-125842438D02*
X51544285Y-125890057D01*
X51544285Y-125890057D02*
X51591904Y-125985295D01*
X51591904Y-125985295D02*
X51639523Y-126175771D01*
X51639523Y-126175771D02*
X51639523Y-126413866D01*
X51639523Y-126413866D02*
X51591904Y-126604342D01*
X51591904Y-126604342D02*
X51544285Y-126699580D01*
X51544285Y-126699580D02*
X51496666Y-126747200D01*
X51496666Y-126747200D02*
X51401428Y-126794819D01*
X51401428Y-126794819D02*
X51306190Y-126794819D01*
X51306190Y-126794819D02*
X51210952Y-126747200D01*
X51210952Y-126747200D02*
X51163333Y-126699580D01*
X51163333Y-126699580D02*
X51115714Y-126604342D01*
X51115714Y-126604342D02*
X51068095Y-126413866D01*
X51068095Y-126413866D02*
X51068095Y-126175771D01*
X51068095Y-126175771D02*
X51115714Y-125985295D01*
X51115714Y-125985295D02*
X51163333Y-125890057D01*
X51163333Y-125890057D02*
X51210952Y-125842438D01*
X51210952Y-125842438D02*
X51306190Y-125794819D01*
X62234819Y-93214285D02*
X61234819Y-93214285D01*
X61234819Y-93214285D02*
X61234819Y-92976190D01*
X61234819Y-92976190D02*
X61282438Y-92833333D01*
X61282438Y-92833333D02*
X61377676Y-92738095D01*
X61377676Y-92738095D02*
X61472914Y-92690476D01*
X61472914Y-92690476D02*
X61663390Y-92642857D01*
X61663390Y-92642857D02*
X61806247Y-92642857D01*
X61806247Y-92642857D02*
X61996723Y-92690476D01*
X61996723Y-92690476D02*
X62091961Y-92738095D01*
X62091961Y-92738095D02*
X62187200Y-92833333D01*
X62187200Y-92833333D02*
X62234819Y-92976190D01*
X62234819Y-92976190D02*
X62234819Y-93214285D01*
X62234819Y-91690476D02*
X62234819Y-92261904D01*
X62234819Y-91976190D02*
X61234819Y-91976190D01*
X61234819Y-91976190D02*
X61377676Y-92071428D01*
X61377676Y-92071428D02*
X61472914Y-92166666D01*
X61472914Y-92166666D02*
X61520533Y-92261904D01*
X61663390Y-91119047D02*
X61615771Y-91214285D01*
X61615771Y-91214285D02*
X61568152Y-91261904D01*
X61568152Y-91261904D02*
X61472914Y-91309523D01*
X61472914Y-91309523D02*
X61425295Y-91309523D01*
X61425295Y-91309523D02*
X61330057Y-91261904D01*
X61330057Y-91261904D02*
X61282438Y-91214285D01*
X61282438Y-91214285D02*
X61234819Y-91119047D01*
X61234819Y-91119047D02*
X61234819Y-90928571D01*
X61234819Y-90928571D02*
X61282438Y-90833333D01*
X61282438Y-90833333D02*
X61330057Y-90785714D01*
X61330057Y-90785714D02*
X61425295Y-90738095D01*
X61425295Y-90738095D02*
X61472914Y-90738095D01*
X61472914Y-90738095D02*
X61568152Y-90785714D01*
X61568152Y-90785714D02*
X61615771Y-90833333D01*
X61615771Y-90833333D02*
X61663390Y-90928571D01*
X61663390Y-90928571D02*
X61663390Y-91119047D01*
X61663390Y-91119047D02*
X61711009Y-91214285D01*
X61711009Y-91214285D02*
X61758628Y-91261904D01*
X61758628Y-91261904D02*
X61853866Y-91309523D01*
X61853866Y-91309523D02*
X62044342Y-91309523D01*
X62044342Y-91309523D02*
X62139580Y-91261904D01*
X62139580Y-91261904D02*
X62187200Y-91214285D01*
X62187200Y-91214285D02*
X62234819Y-91119047D01*
X62234819Y-91119047D02*
X62234819Y-90928571D01*
X62234819Y-90928571D02*
X62187200Y-90833333D01*
X62187200Y-90833333D02*
X62139580Y-90785714D01*
X62139580Y-90785714D02*
X62044342Y-90738095D01*
X62044342Y-90738095D02*
X61853866Y-90738095D01*
X61853866Y-90738095D02*
X61758628Y-90785714D01*
X61758628Y-90785714D02*
X61711009Y-90833333D01*
X61711009Y-90833333D02*
X61663390Y-90928571D01*
X62804819Y-97341904D02*
X61804819Y-97341904D01*
X62804819Y-96770476D02*
X62233390Y-97199047D01*
X61804819Y-96770476D02*
X62376247Y-97341904D01*
X45365476Y-143972200D02*
X45508333Y-144019819D01*
X45508333Y-144019819D02*
X45746428Y-144019819D01*
X45746428Y-144019819D02*
X45841666Y-143972200D01*
X45841666Y-143972200D02*
X45889285Y-143924580D01*
X45889285Y-143924580D02*
X45936904Y-143829342D01*
X45936904Y-143829342D02*
X45936904Y-143734104D01*
X45936904Y-143734104D02*
X45889285Y-143638866D01*
X45889285Y-143638866D02*
X45841666Y-143591247D01*
X45841666Y-143591247D02*
X45746428Y-143543628D01*
X45746428Y-143543628D02*
X45555952Y-143496009D01*
X45555952Y-143496009D02*
X45460714Y-143448390D01*
X45460714Y-143448390D02*
X45413095Y-143400771D01*
X45413095Y-143400771D02*
X45365476Y-143305533D01*
X45365476Y-143305533D02*
X45365476Y-143210295D01*
X45365476Y-143210295D02*
X45413095Y-143115057D01*
X45413095Y-143115057D02*
X45460714Y-143067438D01*
X45460714Y-143067438D02*
X45555952Y-143019819D01*
X45555952Y-143019819D02*
X45794047Y-143019819D01*
X45794047Y-143019819D02*
X45936904Y-143067438D01*
X46270238Y-143019819D02*
X46508333Y-144019819D01*
X46508333Y-144019819D02*
X46698809Y-143305533D01*
X46698809Y-143305533D02*
X46889285Y-144019819D01*
X46889285Y-144019819D02*
X47127381Y-143019819D01*
X47460714Y-143115057D02*
X47508333Y-143067438D01*
X47508333Y-143067438D02*
X47603571Y-143019819D01*
X47603571Y-143019819D02*
X47841666Y-143019819D01*
X47841666Y-143019819D02*
X47936904Y-143067438D01*
X47936904Y-143067438D02*
X47984523Y-143115057D01*
X47984523Y-143115057D02*
X48032142Y-143210295D01*
X48032142Y-143210295D02*
X48032142Y-143305533D01*
X48032142Y-143305533D02*
X47984523Y-143448390D01*
X47984523Y-143448390D02*
X47413095Y-144019819D01*
X47413095Y-144019819D02*
X48032142Y-144019819D01*
X48365476Y-143019819D02*
X48984523Y-143019819D01*
X48984523Y-143019819D02*
X48651190Y-143400771D01*
X48651190Y-143400771D02*
X48794047Y-143400771D01*
X48794047Y-143400771D02*
X48889285Y-143448390D01*
X48889285Y-143448390D02*
X48936904Y-143496009D01*
X48936904Y-143496009D02*
X48984523Y-143591247D01*
X48984523Y-143591247D02*
X48984523Y-143829342D01*
X48984523Y-143829342D02*
X48936904Y-143924580D01*
X48936904Y-143924580D02*
X48889285Y-143972200D01*
X48889285Y-143972200D02*
X48794047Y-144019819D01*
X48794047Y-144019819D02*
X48508333Y-144019819D01*
X48508333Y-144019819D02*
X48413095Y-143972200D01*
X48413095Y-143972200D02*
X48365476Y-143924580D01*
X86246667Y-21997200D02*
X86389524Y-22044819D01*
X86389524Y-22044819D02*
X86627619Y-22044819D01*
X86627619Y-22044819D02*
X86722857Y-21997200D01*
X86722857Y-21997200D02*
X86770476Y-21949580D01*
X86770476Y-21949580D02*
X86818095Y-21854342D01*
X86818095Y-21854342D02*
X86818095Y-21759104D01*
X86818095Y-21759104D02*
X86770476Y-21663866D01*
X86770476Y-21663866D02*
X86722857Y-21616247D01*
X86722857Y-21616247D02*
X86627619Y-21568628D01*
X86627619Y-21568628D02*
X86437143Y-21521009D01*
X86437143Y-21521009D02*
X86341905Y-21473390D01*
X86341905Y-21473390D02*
X86294286Y-21425771D01*
X86294286Y-21425771D02*
X86246667Y-21330533D01*
X86246667Y-21330533D02*
X86246667Y-21235295D01*
X86246667Y-21235295D02*
X86294286Y-21140057D01*
X86294286Y-21140057D02*
X86341905Y-21092438D01*
X86341905Y-21092438D02*
X86437143Y-21044819D01*
X86437143Y-21044819D02*
X86675238Y-21044819D01*
X86675238Y-21044819D02*
X86818095Y-21092438D01*
X87151429Y-21044819D02*
X87389524Y-22044819D01*
X87389524Y-22044819D02*
X87580000Y-21330533D01*
X87580000Y-21330533D02*
X87770476Y-22044819D01*
X87770476Y-22044819D02*
X88008572Y-21044819D01*
X88341905Y-21140057D02*
X88389524Y-21092438D01*
X88389524Y-21092438D02*
X88484762Y-21044819D01*
X88484762Y-21044819D02*
X88722857Y-21044819D01*
X88722857Y-21044819D02*
X88818095Y-21092438D01*
X88818095Y-21092438D02*
X88865714Y-21140057D01*
X88865714Y-21140057D02*
X88913333Y-21235295D01*
X88913333Y-21235295D02*
X88913333Y-21330533D01*
X88913333Y-21330533D02*
X88865714Y-21473390D01*
X88865714Y-21473390D02*
X88294286Y-22044819D01*
X88294286Y-22044819D02*
X88913333Y-22044819D01*
X130110476Y-157817200D02*
X130253333Y-157864819D01*
X130253333Y-157864819D02*
X130491428Y-157864819D01*
X130491428Y-157864819D02*
X130586666Y-157817200D01*
X130586666Y-157817200D02*
X130634285Y-157769580D01*
X130634285Y-157769580D02*
X130681904Y-157674342D01*
X130681904Y-157674342D02*
X130681904Y-157579104D01*
X130681904Y-157579104D02*
X130634285Y-157483866D01*
X130634285Y-157483866D02*
X130586666Y-157436247D01*
X130586666Y-157436247D02*
X130491428Y-157388628D01*
X130491428Y-157388628D02*
X130300952Y-157341009D01*
X130300952Y-157341009D02*
X130205714Y-157293390D01*
X130205714Y-157293390D02*
X130158095Y-157245771D01*
X130158095Y-157245771D02*
X130110476Y-157150533D01*
X130110476Y-157150533D02*
X130110476Y-157055295D01*
X130110476Y-157055295D02*
X130158095Y-156960057D01*
X130158095Y-156960057D02*
X130205714Y-156912438D01*
X130205714Y-156912438D02*
X130300952Y-156864819D01*
X130300952Y-156864819D02*
X130539047Y-156864819D01*
X130539047Y-156864819D02*
X130681904Y-156912438D01*
X131015238Y-156864819D02*
X131253333Y-157864819D01*
X131253333Y-157864819D02*
X131443809Y-157150533D01*
X131443809Y-157150533D02*
X131634285Y-157864819D01*
X131634285Y-157864819D02*
X131872381Y-156864819D01*
X132777142Y-157864819D02*
X132205714Y-157864819D01*
X132491428Y-157864819D02*
X132491428Y-156864819D01*
X132491428Y-156864819D02*
X132396190Y-157007676D01*
X132396190Y-157007676D02*
X132300952Y-157102914D01*
X132300952Y-157102914D02*
X132205714Y-157150533D01*
X133158095Y-156960057D02*
X133205714Y-156912438D01*
X133205714Y-156912438D02*
X133300952Y-156864819D01*
X133300952Y-156864819D02*
X133539047Y-156864819D01*
X133539047Y-156864819D02*
X133634285Y-156912438D01*
X133634285Y-156912438D02*
X133681904Y-156960057D01*
X133681904Y-156960057D02*
X133729523Y-157055295D01*
X133729523Y-157055295D02*
X133729523Y-157150533D01*
X133729523Y-157150533D02*
X133681904Y-157293390D01*
X133681904Y-157293390D02*
X133110476Y-157864819D01*
X133110476Y-157864819D02*
X133729523Y-157864819D01*
X125833333Y-51534819D02*
X125500000Y-51058628D01*
X125261905Y-51534819D02*
X125261905Y-50534819D01*
X125261905Y-50534819D02*
X125642857Y-50534819D01*
X125642857Y-50534819D02*
X125738095Y-50582438D01*
X125738095Y-50582438D02*
X125785714Y-50630057D01*
X125785714Y-50630057D02*
X125833333Y-50725295D01*
X125833333Y-50725295D02*
X125833333Y-50868152D01*
X125833333Y-50868152D02*
X125785714Y-50963390D01*
X125785714Y-50963390D02*
X125738095Y-51011009D01*
X125738095Y-51011009D02*
X125642857Y-51058628D01*
X125642857Y-51058628D02*
X125261905Y-51058628D01*
X126785714Y-51534819D02*
X126214286Y-51534819D01*
X126500000Y-51534819D02*
X126500000Y-50534819D01*
X126500000Y-50534819D02*
X126404762Y-50677676D01*
X126404762Y-50677676D02*
X126309524Y-50772914D01*
X126309524Y-50772914D02*
X126214286Y-50820533D01*
X62484819Y-56294285D02*
X61484819Y-56294285D01*
X61484819Y-56294285D02*
X61484819Y-56056190D01*
X61484819Y-56056190D02*
X61532438Y-55913333D01*
X61532438Y-55913333D02*
X61627676Y-55818095D01*
X61627676Y-55818095D02*
X61722914Y-55770476D01*
X61722914Y-55770476D02*
X61913390Y-55722857D01*
X61913390Y-55722857D02*
X62056247Y-55722857D01*
X62056247Y-55722857D02*
X62246723Y-55770476D01*
X62246723Y-55770476D02*
X62341961Y-55818095D01*
X62341961Y-55818095D02*
X62437200Y-55913333D01*
X62437200Y-55913333D02*
X62484819Y-56056190D01*
X62484819Y-56056190D02*
X62484819Y-56294285D01*
X62484819Y-54770476D02*
X62484819Y-55341904D01*
X62484819Y-55056190D02*
X61484819Y-55056190D01*
X61484819Y-55056190D02*
X61627676Y-55151428D01*
X61627676Y-55151428D02*
X61722914Y-55246666D01*
X61722914Y-55246666D02*
X61770533Y-55341904D01*
X61484819Y-53913333D02*
X61484819Y-54103809D01*
X61484819Y-54103809D02*
X61532438Y-54199047D01*
X61532438Y-54199047D02*
X61580057Y-54246666D01*
X61580057Y-54246666D02*
X61722914Y-54341904D01*
X61722914Y-54341904D02*
X61913390Y-54389523D01*
X61913390Y-54389523D02*
X62294342Y-54389523D01*
X62294342Y-54389523D02*
X62389580Y-54341904D01*
X62389580Y-54341904D02*
X62437200Y-54294285D01*
X62437200Y-54294285D02*
X62484819Y-54199047D01*
X62484819Y-54199047D02*
X62484819Y-54008571D01*
X62484819Y-54008571D02*
X62437200Y-53913333D01*
X62437200Y-53913333D02*
X62389580Y-53865714D01*
X62389580Y-53865714D02*
X62294342Y-53818095D01*
X62294342Y-53818095D02*
X62056247Y-53818095D01*
X62056247Y-53818095D02*
X61961009Y-53865714D01*
X61961009Y-53865714D02*
X61913390Y-53913333D01*
X61913390Y-53913333D02*
X61865771Y-54008571D01*
X61865771Y-54008571D02*
X61865771Y-54199047D01*
X61865771Y-54199047D02*
X61913390Y-54294285D01*
X61913390Y-54294285D02*
X61961009Y-54341904D01*
X61961009Y-54341904D02*
X62056247Y-54389523D01*
X63054819Y-60421904D02*
X62054819Y-60421904D01*
X63054819Y-59850476D02*
X62483390Y-60279047D01*
X62054819Y-59850476D02*
X62626247Y-60421904D01*
X61984819Y-129794285D02*
X60984819Y-129794285D01*
X60984819Y-129794285D02*
X60984819Y-129556190D01*
X60984819Y-129556190D02*
X61032438Y-129413333D01*
X61032438Y-129413333D02*
X61127676Y-129318095D01*
X61127676Y-129318095D02*
X61222914Y-129270476D01*
X61222914Y-129270476D02*
X61413390Y-129222857D01*
X61413390Y-129222857D02*
X61556247Y-129222857D01*
X61556247Y-129222857D02*
X61746723Y-129270476D01*
X61746723Y-129270476D02*
X61841961Y-129318095D01*
X61841961Y-129318095D02*
X61937200Y-129413333D01*
X61937200Y-129413333D02*
X61984819Y-129556190D01*
X61984819Y-129556190D02*
X61984819Y-129794285D01*
X61080057Y-128841904D02*
X61032438Y-128794285D01*
X61032438Y-128794285D02*
X60984819Y-128699047D01*
X60984819Y-128699047D02*
X60984819Y-128460952D01*
X60984819Y-128460952D02*
X61032438Y-128365714D01*
X61032438Y-128365714D02*
X61080057Y-128318095D01*
X61080057Y-128318095D02*
X61175295Y-128270476D01*
X61175295Y-128270476D02*
X61270533Y-128270476D01*
X61270533Y-128270476D02*
X61413390Y-128318095D01*
X61413390Y-128318095D02*
X61984819Y-128889523D01*
X61984819Y-128889523D02*
X61984819Y-128270476D01*
X60984819Y-127651428D02*
X60984819Y-127556190D01*
X60984819Y-127556190D02*
X61032438Y-127460952D01*
X61032438Y-127460952D02*
X61080057Y-127413333D01*
X61080057Y-127413333D02*
X61175295Y-127365714D01*
X61175295Y-127365714D02*
X61365771Y-127318095D01*
X61365771Y-127318095D02*
X61603866Y-127318095D01*
X61603866Y-127318095D02*
X61794342Y-127365714D01*
X61794342Y-127365714D02*
X61889580Y-127413333D01*
X61889580Y-127413333D02*
X61937200Y-127460952D01*
X61937200Y-127460952D02*
X61984819Y-127556190D01*
X61984819Y-127556190D02*
X61984819Y-127651428D01*
X61984819Y-127651428D02*
X61937200Y-127746666D01*
X61937200Y-127746666D02*
X61889580Y-127794285D01*
X61889580Y-127794285D02*
X61794342Y-127841904D01*
X61794342Y-127841904D02*
X61603866Y-127889523D01*
X61603866Y-127889523D02*
X61365771Y-127889523D01*
X61365771Y-127889523D02*
X61175295Y-127841904D01*
X61175295Y-127841904D02*
X61080057Y-127794285D01*
X61080057Y-127794285D02*
X61032438Y-127746666D01*
X61032438Y-127746666D02*
X60984819Y-127651428D01*
X62554819Y-133921904D02*
X61554819Y-133921904D01*
X62554819Y-133350476D02*
X61983390Y-133779047D01*
X61554819Y-133350476D02*
X62126247Y-133921904D01*
X128761905Y-39484819D02*
X128761905Y-38484819D01*
X128761905Y-38484819D02*
X129000000Y-38484819D01*
X129000000Y-38484819D02*
X129142857Y-38532438D01*
X129142857Y-38532438D02*
X129238095Y-38627676D01*
X129238095Y-38627676D02*
X129285714Y-38722914D01*
X129285714Y-38722914D02*
X129333333Y-38913390D01*
X129333333Y-38913390D02*
X129333333Y-39056247D01*
X129333333Y-39056247D02*
X129285714Y-39246723D01*
X129285714Y-39246723D02*
X129238095Y-39341961D01*
X129238095Y-39341961D02*
X129142857Y-39437200D01*
X129142857Y-39437200D02*
X129000000Y-39484819D01*
X129000000Y-39484819D02*
X128761905Y-39484819D01*
X130190476Y-38818152D02*
X130190476Y-39484819D01*
X129952381Y-38437200D02*
X129714286Y-39151485D01*
X129714286Y-39151485D02*
X130333333Y-39151485D01*
X124158095Y-40054819D02*
X124158095Y-39054819D01*
X124729523Y-40054819D02*
X124300952Y-39483390D01*
X124729523Y-39054819D02*
X124158095Y-39626247D01*
X48020476Y-82497200D02*
X48163333Y-82544819D01*
X48163333Y-82544819D02*
X48401428Y-82544819D01*
X48401428Y-82544819D02*
X48496666Y-82497200D01*
X48496666Y-82497200D02*
X48544285Y-82449580D01*
X48544285Y-82449580D02*
X48591904Y-82354342D01*
X48591904Y-82354342D02*
X48591904Y-82259104D01*
X48591904Y-82259104D02*
X48544285Y-82163866D01*
X48544285Y-82163866D02*
X48496666Y-82116247D01*
X48496666Y-82116247D02*
X48401428Y-82068628D01*
X48401428Y-82068628D02*
X48210952Y-82021009D01*
X48210952Y-82021009D02*
X48115714Y-81973390D01*
X48115714Y-81973390D02*
X48068095Y-81925771D01*
X48068095Y-81925771D02*
X48020476Y-81830533D01*
X48020476Y-81830533D02*
X48020476Y-81735295D01*
X48020476Y-81735295D02*
X48068095Y-81640057D01*
X48068095Y-81640057D02*
X48115714Y-81592438D01*
X48115714Y-81592438D02*
X48210952Y-81544819D01*
X48210952Y-81544819D02*
X48449047Y-81544819D01*
X48449047Y-81544819D02*
X48591904Y-81592438D01*
X48925238Y-81544819D02*
X49163333Y-82544819D01*
X49163333Y-82544819D02*
X49353809Y-81830533D01*
X49353809Y-81830533D02*
X49544285Y-82544819D01*
X49544285Y-82544819D02*
X49782381Y-81544819D01*
X50687142Y-82544819D02*
X50115714Y-82544819D01*
X50401428Y-82544819D02*
X50401428Y-81544819D01*
X50401428Y-81544819D02*
X50306190Y-81687676D01*
X50306190Y-81687676D02*
X50210952Y-81782914D01*
X50210952Y-81782914D02*
X50115714Y-81830533D01*
X51258571Y-81973390D02*
X51163333Y-81925771D01*
X51163333Y-81925771D02*
X51115714Y-81878152D01*
X51115714Y-81878152D02*
X51068095Y-81782914D01*
X51068095Y-81782914D02*
X51068095Y-81735295D01*
X51068095Y-81735295D02*
X51115714Y-81640057D01*
X51115714Y-81640057D02*
X51163333Y-81592438D01*
X51163333Y-81592438D02*
X51258571Y-81544819D01*
X51258571Y-81544819D02*
X51449047Y-81544819D01*
X51449047Y-81544819D02*
X51544285Y-81592438D01*
X51544285Y-81592438D02*
X51591904Y-81640057D01*
X51591904Y-81640057D02*
X51639523Y-81735295D01*
X51639523Y-81735295D02*
X51639523Y-81782914D01*
X51639523Y-81782914D02*
X51591904Y-81878152D01*
X51591904Y-81878152D02*
X51544285Y-81925771D01*
X51544285Y-81925771D02*
X51449047Y-81973390D01*
X51449047Y-81973390D02*
X51258571Y-81973390D01*
X51258571Y-81973390D02*
X51163333Y-82021009D01*
X51163333Y-82021009D02*
X51115714Y-82068628D01*
X51115714Y-82068628D02*
X51068095Y-82163866D01*
X51068095Y-82163866D02*
X51068095Y-82354342D01*
X51068095Y-82354342D02*
X51115714Y-82449580D01*
X51115714Y-82449580D02*
X51163333Y-82497200D01*
X51163333Y-82497200D02*
X51258571Y-82544819D01*
X51258571Y-82544819D02*
X51449047Y-82544819D01*
X51449047Y-82544819D02*
X51544285Y-82497200D01*
X51544285Y-82497200D02*
X51591904Y-82449580D01*
X51591904Y-82449580D02*
X51639523Y-82354342D01*
X51639523Y-82354342D02*
X51639523Y-82163866D01*
X51639523Y-82163866D02*
X51591904Y-82068628D01*
X51591904Y-82068628D02*
X51544285Y-82021009D01*
X51544285Y-82021009D02*
X51449047Y-81973390D01*
D12*
X155030000Y-84280000D02*
X155030000Y-89720000D01*
X155030000Y-88700000D02*
X157970000Y-88700000D01*
X155030000Y-88820000D02*
X157970000Y-88820000D01*
X155030000Y-88940000D02*
X157970000Y-88940000D01*
X155030000Y-89720000D02*
X157970000Y-89720000D01*
X156500000Y-83060000D02*
X156500000Y-84280000D01*
X156500000Y-90940000D02*
X156500000Y-89720000D01*
X157970000Y-84280000D02*
X155030000Y-84280000D01*
X157970000Y-89720000D02*
X157970000Y-84280000D01*
X62530000Y-107860000D02*
X62530000Y-113300000D01*
X62530000Y-112280000D02*
X65470000Y-112280000D01*
X62530000Y-112400000D02*
X65470000Y-112400000D01*
X62530000Y-112520000D02*
X65470000Y-112520000D01*
X62530000Y-113300000D02*
X65470000Y-113300000D01*
X64000000Y-106640000D02*
X64000000Y-107860000D01*
X64000000Y-114520000D02*
X64000000Y-113300000D01*
X65470000Y-107860000D02*
X62530000Y-107860000D01*
X65470000Y-113300000D02*
X65470000Y-107860000D01*
X103640000Y-143390000D02*
X115860000Y-143390000D01*
X103640000Y-145900000D02*
X103640000Y-143390000D01*
X103640000Y-150800000D02*
X103640000Y-148200000D01*
X103640000Y-155610000D02*
X103640000Y-153100000D01*
X115860000Y-145900000D02*
X115860000Y-143390000D01*
X115860000Y-150800000D02*
X115860000Y-148200000D01*
X115860000Y-155610000D02*
X103640000Y-155610000D01*
X115860000Y-155610000D02*
X115860000Y-153100000D01*
X113300000Y-149500000D02*
G75*
G02*
X106200000Y-149500000I-3550000J0D01*
G01*
X106200000Y-149500000D02*
G75*
G02*
X113300000Y-149500000I3550000J0D01*
G01*
X163140000Y-128140000D02*
X163140000Y-130650000D01*
X163140000Y-128140000D02*
X175360000Y-128140000D01*
X163140000Y-132950000D02*
X163140000Y-135550000D01*
X163140000Y-137850000D02*
X163140000Y-140360000D01*
X175360000Y-128140000D02*
X175360000Y-130650000D01*
X175360000Y-132950000D02*
X175360000Y-135550000D01*
X175360000Y-137850000D02*
X175360000Y-140360000D01*
X175360000Y-140360000D02*
X163140000Y-140360000D01*
X172800000Y-134250000D02*
G75*
G02*
X165700000Y-134250000I-3550000J0D01*
G01*
X165700000Y-134250000D02*
G75*
G02*
X172800000Y-134250000I3550000J0D01*
G01*
X89140000Y-139500000D02*
X90360000Y-139500000D01*
X90360000Y-138030000D02*
X90360000Y-140970000D01*
X90360000Y-140970000D02*
X95800000Y-140970000D01*
X91140000Y-138030000D02*
X91140000Y-140970000D01*
X91260000Y-138030000D02*
X91260000Y-140970000D01*
X91380000Y-138030000D02*
X91380000Y-140970000D01*
X95800000Y-138030000D02*
X90360000Y-138030000D01*
X95800000Y-140970000D02*
X95800000Y-138030000D01*
X97020000Y-139500000D02*
X95800000Y-139500000D01*
X163140000Y-83890000D02*
X163140000Y-86400000D01*
X163140000Y-83890000D02*
X175360000Y-83890000D01*
X163140000Y-88700000D02*
X163140000Y-91300000D01*
X163140000Y-93600000D02*
X163140000Y-96110000D01*
X175360000Y-83890000D02*
X175360000Y-86400000D01*
X175360000Y-88700000D02*
X175360000Y-91300000D01*
X175360000Y-93600000D02*
X175360000Y-96110000D01*
X175360000Y-96110000D02*
X163140000Y-96110000D01*
X172800000Y-90000000D02*
G75*
G02*
X165700000Y-90000000I-3550000J0D01*
G01*
X165700000Y-90000000D02*
G75*
G02*
X172800000Y-90000000I3550000J0D01*
G01*
X88080000Y-83580000D02*
X88080000Y-87420000D01*
X89920000Y-83580000D02*
X89920000Y-87420000D01*
X148140000Y-23390000D02*
X148140000Y-25900000D01*
X148140000Y-23390000D02*
X160360000Y-23390000D01*
X148140000Y-28200000D02*
X148140000Y-30800000D01*
X148140000Y-33100000D02*
X148140000Y-35610000D01*
X160360000Y-23390000D02*
X160360000Y-25900000D01*
X160360000Y-28200000D02*
X160360000Y-30800000D01*
X160360000Y-33100000D02*
X160360000Y-35610000D01*
X160360000Y-35610000D02*
X148140000Y-35610000D01*
X157800000Y-29500000D02*
G75*
G02*
X150700000Y-29500000I-3550000J0D01*
G01*
X150700000Y-29500000D02*
G75*
G02*
X157800000Y-29500000I3550000J0D01*
G01*
X163140000Y-39890000D02*
X163140000Y-42400000D01*
X163140000Y-39890000D02*
X175360000Y-39890000D01*
X163140000Y-44700000D02*
X163140000Y-47300000D01*
X163140000Y-49600000D02*
X163140000Y-52110000D01*
X175360000Y-39890000D02*
X175360000Y-42400000D01*
X175360000Y-44700000D02*
X175360000Y-47300000D01*
X175360000Y-49600000D02*
X175360000Y-52110000D01*
X175360000Y-52110000D02*
X163140000Y-52110000D01*
X172800000Y-46000000D02*
G75*
G02*
X165700000Y-46000000I-3550000J0D01*
G01*
X165700000Y-46000000D02*
G75*
G02*
X172800000Y-46000000I3550000J0D01*
G01*
X81890000Y-143390000D02*
X94110000Y-143390000D01*
X81890000Y-145900000D02*
X81890000Y-143390000D01*
X81890000Y-150800000D02*
X81890000Y-148200000D01*
X81890000Y-155610000D02*
X81890000Y-153100000D01*
X94110000Y-145900000D02*
X94110000Y-143390000D01*
X94110000Y-150800000D02*
X94110000Y-148200000D01*
X94110000Y-155610000D02*
X81890000Y-155610000D01*
X94110000Y-155610000D02*
X94110000Y-153100000D01*
X91550000Y-149500000D02*
G75*
G02*
X84450000Y-149500000I-3550000J0D01*
G01*
X84450000Y-149500000D02*
G75*
G02*
X91550000Y-149500000I3550000J0D01*
G01*
X44140000Y-39890000D02*
X44140000Y-42400000D01*
X44140000Y-39890000D02*
X56360000Y-39890000D01*
X44140000Y-44700000D02*
X44140000Y-47300000D01*
X44140000Y-49600000D02*
X44140000Y-52110000D01*
X56360000Y-39890000D02*
X56360000Y-42400000D01*
X56360000Y-44700000D02*
X56360000Y-47300000D01*
X56360000Y-49600000D02*
X56360000Y-52110000D01*
X56360000Y-52110000D02*
X44140000Y-52110000D01*
X53800000Y-46000000D02*
G75*
G02*
X46700000Y-46000000I-3550000J0D01*
G01*
X46700000Y-46000000D02*
G75*
G02*
X53800000Y-46000000I3550000J0D01*
G01*
X150560000Y-139500000D02*
X151780000Y-139500000D01*
X151780000Y-138030000D02*
X151780000Y-140970000D01*
X151780000Y-140970000D02*
X157220000Y-140970000D01*
X152560000Y-138030000D02*
X152560000Y-140970000D01*
X152680000Y-138030000D02*
X152680000Y-140970000D01*
X152800000Y-138030000D02*
X152800000Y-140970000D01*
X157220000Y-138030000D02*
X151780000Y-138030000D01*
X157220000Y-140970000D02*
X157220000Y-138030000D01*
X158440000Y-139500000D02*
X157220000Y-139500000D01*
X124080000Y-56080000D02*
X127920000Y-56080000D01*
X124080000Y-57920000D02*
X127920000Y-57920000D01*
X163140000Y-105890000D02*
X163140000Y-108400000D01*
X163140000Y-105890000D02*
X175360000Y-105890000D01*
X163140000Y-110700000D02*
X163140000Y-113300000D01*
X163140000Y-115600000D02*
X163140000Y-118110000D01*
X175360000Y-105890000D02*
X175360000Y-108400000D01*
X175360000Y-110700000D02*
X175360000Y-113300000D01*
X175360000Y-115600000D02*
X175360000Y-118110000D01*
X175360000Y-118110000D02*
X163140000Y-118110000D01*
X172800000Y-112000000D02*
G75*
G02*
X165700000Y-112000000I-3550000J0D01*
G01*
X165700000Y-112000000D02*
G75*
G02*
X172800000Y-112000000I3550000J0D01*
G01*
X155030000Y-48860000D02*
X155030000Y-54300000D01*
X155030000Y-53280000D02*
X157970000Y-53280000D01*
X155030000Y-53400000D02*
X157970000Y-53400000D01*
X155030000Y-53520000D02*
X157970000Y-53520000D01*
X155030000Y-54300000D02*
X157970000Y-54300000D01*
X156500000Y-47640000D02*
X156500000Y-48860000D01*
X156500000Y-55520000D02*
X156500000Y-54300000D01*
X157970000Y-48860000D02*
X155030000Y-48860000D01*
X157970000Y-54300000D02*
X157970000Y-48860000D01*
X70640000Y-139500000D02*
X71860000Y-139500000D01*
X71860000Y-138030000D02*
X71860000Y-140970000D01*
X71860000Y-140970000D02*
X77300000Y-140970000D01*
X72640000Y-138030000D02*
X72640000Y-140970000D01*
X72760000Y-138030000D02*
X72760000Y-140970000D01*
X72880000Y-138030000D02*
X72880000Y-140970000D01*
X77300000Y-138030000D02*
X71860000Y-138030000D01*
X77300000Y-140970000D02*
X77300000Y-138030000D01*
X78520000Y-139500000D02*
X77300000Y-139500000D01*
X155530000Y-124780000D02*
X155530000Y-130220000D01*
X155530000Y-129200000D02*
X158470000Y-129200000D01*
X155530000Y-129320000D02*
X158470000Y-129320000D01*
X155530000Y-129440000D02*
X158470000Y-129440000D01*
X155530000Y-130220000D02*
X158470000Y-130220000D01*
X157000000Y-123560000D02*
X157000000Y-124780000D01*
X157000000Y-131440000D02*
X157000000Y-130220000D01*
X158470000Y-124780000D02*
X155530000Y-124780000D01*
X158470000Y-130220000D02*
X158470000Y-124780000D01*
X163140000Y-61890000D02*
X163140000Y-64400000D01*
X163140000Y-61890000D02*
X175360000Y-61890000D01*
X163140000Y-66700000D02*
X163140000Y-69300000D01*
X163140000Y-71600000D02*
X163140000Y-74110000D01*
X175360000Y-61890000D02*
X175360000Y-64400000D01*
X175360000Y-66700000D02*
X175360000Y-69300000D01*
X175360000Y-71600000D02*
X175360000Y-74110000D01*
X175360000Y-74110000D02*
X163140000Y-74110000D01*
X172800000Y-68000000D02*
G75*
G02*
X165700000Y-68000000I-3550000J0D01*
G01*
X165700000Y-68000000D02*
G75*
G02*
X172800000Y-68000000I3550000J0D01*
G01*
X43100000Y-22900000D02*
X45500000Y-22900000D01*
X43100000Y-27000000D02*
X43100000Y-22900000D01*
X43100000Y-31000000D02*
X43100000Y-35100000D01*
X43100000Y-35100000D02*
X54900000Y-35100000D01*
X44900000Y-36200000D02*
X45200000Y-36500000D01*
X44900000Y-36800000D02*
X44900000Y-36200000D01*
X45200000Y-36500000D02*
X44900000Y-36800000D01*
X47700000Y-22900000D02*
X50300000Y-22900000D01*
X48500000Y-29000000D02*
X49500000Y-29000000D01*
X49000000Y-29500000D02*
X49000000Y-28500000D01*
X52500000Y-22900000D02*
X54900000Y-22900000D01*
X54900000Y-22900000D02*
X54900000Y-27000000D01*
X54900000Y-31000000D02*
X54900000Y-35100000D01*
X52000000Y-29000000D02*
G75*
G02*
X46000000Y-29000000I-3000000J0D01*
G01*
X46000000Y-29000000D02*
G75*
G02*
X52000000Y-29000000I3000000J0D01*
G01*
X110640000Y-139500000D02*
X111860000Y-139500000D01*
X111860000Y-138030000D02*
X111860000Y-140970000D01*
X111860000Y-140970000D02*
X117300000Y-140970000D01*
X112640000Y-138030000D02*
X112640000Y-140970000D01*
X112760000Y-138030000D02*
X112760000Y-140970000D01*
X112880000Y-138030000D02*
X112880000Y-140970000D01*
X117300000Y-138030000D02*
X111860000Y-138030000D01*
X117300000Y-140970000D02*
X117300000Y-138030000D01*
X118520000Y-139500000D02*
X117300000Y-139500000D01*
X92080000Y-83620000D02*
X92080000Y-87460000D01*
X93920000Y-83620000D02*
X93920000Y-87460000D01*
X104060000Y-41500000D02*
X105280000Y-41500000D01*
X105280000Y-40030000D02*
X105280000Y-42970000D01*
X105280000Y-42970000D02*
X110720000Y-42970000D01*
X106060000Y-40030000D02*
X106060000Y-42970000D01*
X106180000Y-40030000D02*
X106180000Y-42970000D01*
X106300000Y-40030000D02*
X106300000Y-42970000D01*
X110720000Y-40030000D02*
X105280000Y-40030000D01*
X110720000Y-42970000D02*
X110720000Y-40030000D01*
X111940000Y-41500000D02*
X110720000Y-41500000D01*
X63560000Y-41500000D02*
X64780000Y-41500000D01*
X64780000Y-40030000D02*
X64780000Y-42970000D01*
X64780000Y-42970000D02*
X70220000Y-42970000D01*
X65560000Y-40030000D02*
X65560000Y-42970000D01*
X65680000Y-40030000D02*
X65680000Y-42970000D01*
X65800000Y-40030000D02*
X65800000Y-42970000D01*
X70220000Y-40030000D02*
X64780000Y-40030000D01*
X70220000Y-42970000D02*
X70220000Y-40030000D01*
X71440000Y-41500000D02*
X70220000Y-41500000D01*
X44140000Y-61890000D02*
X44140000Y-64400000D01*
X44140000Y-61890000D02*
X56360000Y-61890000D01*
X44140000Y-66700000D02*
X44140000Y-69300000D01*
X44140000Y-71600000D02*
X44140000Y-74110000D01*
X56360000Y-61890000D02*
X56360000Y-64400000D01*
X56360000Y-66700000D02*
X56360000Y-69300000D01*
X56360000Y-71600000D02*
X56360000Y-74110000D01*
X56360000Y-74110000D02*
X44140000Y-74110000D01*
X53800000Y-68000000D02*
G75*
G02*
X46700000Y-68000000I-3550000J0D01*
G01*
X46700000Y-68000000D02*
G75*
G02*
X53800000Y-68000000I3550000J0D01*
G01*
D13*
X169070000Y-157350000D02*
X169070000Y-144650000D01*
X170790000Y-144650000D02*
X169070000Y-144650000D01*
X170790000Y-157350000D02*
X169070000Y-157350000D01*
X175930000Y-144650000D02*
X174210000Y-144650000D01*
X175930000Y-144650000D02*
X175930000Y-157350000D01*
X175930000Y-157350000D02*
X174210000Y-157350000D01*
D14*
X168600000Y-146300000D02*
G75*
G02*
X168400000Y-146300000I-100000J0D01*
G01*
X168400000Y-146300000D02*
G75*
G02*
X168600000Y-146300000I100000J0D01*
G01*
D12*
X126390000Y-23390000D02*
X126390000Y-25900000D01*
X126390000Y-23390000D02*
X138610000Y-23390000D01*
X126390000Y-28200000D02*
X126390000Y-30800000D01*
X126390000Y-33100000D02*
X126390000Y-35610000D01*
X138610000Y-23390000D02*
X138610000Y-25900000D01*
X138610000Y-28200000D02*
X138610000Y-30800000D01*
X138610000Y-33100000D02*
X138610000Y-35610000D01*
X138610000Y-35610000D02*
X126390000Y-35610000D01*
X136050000Y-29500000D02*
G75*
G02*
X128950000Y-29500000I-3550000J0D01*
G01*
X128950000Y-29500000D02*
G75*
G02*
X136050000Y-29500000I3550000J0D01*
G01*
X62780000Y-71360000D02*
X62780000Y-76800000D01*
X62780000Y-75780000D02*
X65720000Y-75780000D01*
X62780000Y-75900000D02*
X65720000Y-75900000D01*
X62780000Y-76020000D02*
X65720000Y-76020000D01*
X62780000Y-76800000D02*
X65720000Y-76800000D01*
X64250000Y-70140000D02*
X64250000Y-71360000D01*
X64250000Y-78020000D02*
X64250000Y-76800000D01*
X65720000Y-71360000D02*
X62780000Y-71360000D01*
X65720000Y-76800000D02*
X65720000Y-71360000D01*
X155530000Y-101860000D02*
X155530000Y-107300000D01*
X155530000Y-106280000D02*
X158470000Y-106280000D01*
X155530000Y-106400000D02*
X158470000Y-106400000D01*
X155530000Y-106520000D02*
X158470000Y-106520000D01*
X155530000Y-107300000D02*
X158470000Y-107300000D01*
X157000000Y-100640000D02*
X157000000Y-101860000D01*
X157000000Y-108520000D02*
X157000000Y-107300000D01*
X158470000Y-101860000D02*
X155530000Y-101860000D01*
X158470000Y-107300000D02*
X158470000Y-101860000D01*
X155030000Y-67860000D02*
X155030000Y-73300000D01*
X155030000Y-72280000D02*
X157970000Y-72280000D01*
X155030000Y-72400000D02*
X157970000Y-72400000D01*
X155030000Y-72520000D02*
X157970000Y-72520000D01*
X155030000Y-73300000D02*
X157970000Y-73300000D01*
X156500000Y-66640000D02*
X156500000Y-67860000D01*
X156500000Y-74520000D02*
X156500000Y-73300000D01*
X157970000Y-67860000D02*
X155030000Y-67860000D01*
X157970000Y-73300000D02*
X157970000Y-67860000D01*
X84060000Y-41500000D02*
X85280000Y-41500000D01*
X85280000Y-40030000D02*
X85280000Y-42970000D01*
X85280000Y-42970000D02*
X90720000Y-42970000D01*
X86060000Y-40030000D02*
X86060000Y-42970000D01*
X86180000Y-40030000D02*
X86180000Y-42970000D01*
X86300000Y-40030000D02*
X86300000Y-42970000D01*
X90720000Y-40030000D02*
X85280000Y-40030000D01*
X90720000Y-42970000D02*
X90720000Y-40030000D01*
X91940000Y-41500000D02*
X90720000Y-41500000D01*
X130560000Y-139500000D02*
X131780000Y-139500000D01*
X131780000Y-138030000D02*
X131780000Y-140970000D01*
X131780000Y-140970000D02*
X137220000Y-140970000D01*
X132560000Y-138030000D02*
X132560000Y-140970000D01*
X132680000Y-138030000D02*
X132680000Y-140970000D01*
X132800000Y-138030000D02*
X132800000Y-140970000D01*
X137220000Y-138030000D02*
X131780000Y-138030000D01*
X137220000Y-140970000D02*
X137220000Y-138030000D01*
X138440000Y-139500000D02*
X137220000Y-139500000D01*
X165100000Y-23150000D02*
X167500000Y-23150000D01*
X165100000Y-27250000D02*
X165100000Y-23150000D01*
X165100000Y-31250000D02*
X165100000Y-35350000D01*
X165100000Y-35350000D02*
X176900000Y-35350000D01*
X166900000Y-36450000D02*
X167200000Y-36750000D01*
X166900000Y-37050000D02*
X166900000Y-36450000D01*
X167200000Y-36750000D02*
X166900000Y-37050000D01*
X169700000Y-23150000D02*
X172300000Y-23150000D01*
X170500000Y-29250000D02*
X171500000Y-29250000D01*
X171000000Y-29750000D02*
X171000000Y-28750000D01*
X174500000Y-23150000D02*
X176900000Y-23150000D01*
X176900000Y-23150000D02*
X176900000Y-27250000D01*
X176900000Y-31250000D02*
X176900000Y-35350000D01*
X174000000Y-29250000D02*
G75*
G02*
X168000000Y-29250000I-3000000J0D01*
G01*
X168000000Y-29250000D02*
G75*
G02*
X174000000Y-29250000I3000000J0D01*
G01*
X60140000Y-23390000D02*
X60140000Y-25900000D01*
X60140000Y-23390000D02*
X72360000Y-23390000D01*
X60140000Y-28200000D02*
X60140000Y-30800000D01*
X60140000Y-33100000D02*
X60140000Y-35610000D01*
X72360000Y-23390000D02*
X72360000Y-25900000D01*
X72360000Y-28200000D02*
X72360000Y-30800000D01*
X72360000Y-33100000D02*
X72360000Y-35610000D01*
X72360000Y-35610000D02*
X60140000Y-35610000D01*
X69800000Y-29500000D02*
G75*
G02*
X62700000Y-29500000I-3550000J0D01*
G01*
X62700000Y-29500000D02*
G75*
G02*
X69800000Y-29500000I3550000J0D01*
G01*
X44140000Y-105890000D02*
X44140000Y-108400000D01*
X44140000Y-105890000D02*
X56360000Y-105890000D01*
X44140000Y-110700000D02*
X44140000Y-113300000D01*
X44140000Y-115600000D02*
X44140000Y-118110000D01*
X56360000Y-105890000D02*
X56360000Y-108400000D01*
X56360000Y-110700000D02*
X56360000Y-113300000D01*
X56360000Y-115600000D02*
X56360000Y-118110000D01*
X56360000Y-118110000D02*
X44140000Y-118110000D01*
X53800000Y-112000000D02*
G75*
G02*
X46700000Y-112000000I-3550000J0D01*
G01*
X46700000Y-112000000D02*
G75*
G02*
X53800000Y-112000000I3550000J0D01*
G01*
X147140000Y-143390000D02*
X159360000Y-143390000D01*
X147140000Y-145900000D02*
X147140000Y-143390000D01*
X147140000Y-150800000D02*
X147140000Y-148200000D01*
X147140000Y-155610000D02*
X147140000Y-153100000D01*
X159360000Y-145900000D02*
X159360000Y-143390000D01*
X159360000Y-150800000D02*
X159360000Y-148200000D01*
X159360000Y-155610000D02*
X147140000Y-155610000D01*
X159360000Y-155610000D02*
X159360000Y-153100000D01*
X156800000Y-149500000D02*
G75*
G02*
X149700000Y-149500000I-3550000J0D01*
G01*
X149700000Y-149500000D02*
G75*
G02*
X156800000Y-149500000I3550000J0D01*
G01*
X60140000Y-143390000D02*
X72360000Y-143390000D01*
X60140000Y-145900000D02*
X60140000Y-143390000D01*
X60140000Y-150800000D02*
X60140000Y-148200000D01*
X60140000Y-155610000D02*
X60140000Y-153100000D01*
X72360000Y-145900000D02*
X72360000Y-143390000D01*
X72360000Y-150800000D02*
X72360000Y-148200000D01*
X72360000Y-155610000D02*
X60140000Y-155610000D01*
X72360000Y-155610000D02*
X72360000Y-153100000D01*
X69800000Y-149500000D02*
G75*
G02*
X62700000Y-149500000I-3550000J0D01*
G01*
X62700000Y-149500000D02*
G75*
G02*
X69800000Y-149500000I3550000J0D01*
G01*
X143560000Y-41000000D02*
X144780000Y-41000000D01*
X144780000Y-39530000D02*
X144780000Y-42470000D01*
X144780000Y-42470000D02*
X150220000Y-42470000D01*
X145560000Y-39530000D02*
X145560000Y-42470000D01*
X145680000Y-39530000D02*
X145680000Y-42470000D01*
X145800000Y-39530000D02*
X145800000Y-42470000D01*
X150220000Y-39530000D02*
X144780000Y-39530000D01*
X150220000Y-42470000D02*
X150220000Y-39530000D01*
X151440000Y-41000000D02*
X150220000Y-41000000D01*
X103890000Y-23390000D02*
X103890000Y-25900000D01*
X103890000Y-23390000D02*
X116110000Y-23390000D01*
X103890000Y-28200000D02*
X103890000Y-30800000D01*
X103890000Y-33100000D02*
X103890000Y-35610000D01*
X116110000Y-23390000D02*
X116110000Y-25900000D01*
X116110000Y-28200000D02*
X116110000Y-30800000D01*
X116110000Y-33100000D02*
X116110000Y-35610000D01*
X116110000Y-35610000D02*
X103890000Y-35610000D01*
X113550000Y-29500000D02*
G75*
G02*
X106450000Y-29500000I-3550000J0D01*
G01*
X106450000Y-29500000D02*
G75*
G02*
X113550000Y-29500000I3550000J0D01*
G01*
X44140000Y-128140000D02*
X44140000Y-130650000D01*
X44140000Y-128140000D02*
X56360000Y-128140000D01*
X44140000Y-132950000D02*
X44140000Y-135550000D01*
X44140000Y-137850000D02*
X44140000Y-140360000D01*
X56360000Y-128140000D02*
X56360000Y-130650000D01*
X56360000Y-132950000D02*
X56360000Y-135550000D01*
X56360000Y-137850000D02*
X56360000Y-140360000D01*
X56360000Y-140360000D02*
X44140000Y-140360000D01*
X53800000Y-134250000D02*
G75*
G02*
X46700000Y-134250000I-3550000J0D01*
G01*
X46700000Y-134250000D02*
G75*
G02*
X53800000Y-134250000I3550000J0D01*
G01*
X62780000Y-89280000D02*
X62780000Y-94720000D01*
X62780000Y-93700000D02*
X65720000Y-93700000D01*
X62780000Y-93820000D02*
X65720000Y-93820000D01*
X62780000Y-93940000D02*
X65720000Y-93940000D01*
X62780000Y-94720000D02*
X65720000Y-94720000D01*
X64250000Y-88060000D02*
X64250000Y-89280000D01*
X64250000Y-95940000D02*
X64250000Y-94720000D01*
X65720000Y-89280000D02*
X62780000Y-89280000D01*
X65720000Y-94720000D02*
X65720000Y-89280000D01*
D13*
X44070000Y-157550000D02*
X44070000Y-144850000D01*
X45790000Y-144850000D02*
X44070000Y-144850000D01*
X45790000Y-157550000D02*
X44070000Y-157550000D01*
X50930000Y-144850000D02*
X49210000Y-144850000D01*
X50930000Y-144850000D02*
X50930000Y-157550000D01*
X50930000Y-157550000D02*
X49210000Y-157550000D01*
D14*
X43600000Y-146500000D02*
G75*
G02*
X43400000Y-146500000I-100000J0D01*
G01*
X43400000Y-146500000D02*
G75*
G02*
X43600000Y-146500000I100000J0D01*
G01*
D12*
X81890000Y-23390000D02*
X81890000Y-25900000D01*
X81890000Y-23390000D02*
X94110000Y-23390000D01*
X81890000Y-28200000D02*
X81890000Y-30800000D01*
X81890000Y-33100000D02*
X81890000Y-35610000D01*
X94110000Y-23390000D02*
X94110000Y-25900000D01*
X94110000Y-28200000D02*
X94110000Y-30800000D01*
X94110000Y-33100000D02*
X94110000Y-35610000D01*
X94110000Y-35610000D02*
X81890000Y-35610000D01*
X91550000Y-29500000D02*
G75*
G02*
X84450000Y-29500000I-3550000J0D01*
G01*
X84450000Y-29500000D02*
G75*
G02*
X91550000Y-29500000I3550000J0D01*
G01*
X125390000Y-143390000D02*
X137610000Y-143390000D01*
X125390000Y-145900000D02*
X125390000Y-143390000D01*
X125390000Y-150800000D02*
X125390000Y-148200000D01*
X125390000Y-155610000D02*
X125390000Y-153100000D01*
X137610000Y-145900000D02*
X137610000Y-143390000D01*
X137610000Y-150800000D02*
X137610000Y-148200000D01*
X137610000Y-155610000D02*
X125390000Y-155610000D01*
X137610000Y-155610000D02*
X137610000Y-153100000D01*
X135050000Y-149500000D02*
G75*
G02*
X127950000Y-149500000I-3550000J0D01*
G01*
X127950000Y-149500000D02*
G75*
G02*
X135050000Y-149500000I3550000J0D01*
G01*
X124080000Y-52080000D02*
X127920000Y-52080000D01*
X124080000Y-53920000D02*
X127920000Y-53920000D01*
X63030000Y-52360000D02*
X63030000Y-57800000D01*
X63030000Y-56780000D02*
X65970000Y-56780000D01*
X63030000Y-56900000D02*
X65970000Y-56900000D01*
X63030000Y-57020000D02*
X65970000Y-57020000D01*
X63030000Y-57800000D02*
X65970000Y-57800000D01*
X64500000Y-51140000D02*
X64500000Y-52360000D01*
X64500000Y-59020000D02*
X64500000Y-57800000D01*
X65970000Y-52360000D02*
X63030000Y-52360000D01*
X65970000Y-57800000D02*
X65970000Y-52360000D01*
X62530000Y-125860000D02*
X62530000Y-131300000D01*
X62530000Y-130280000D02*
X65470000Y-130280000D01*
X62530000Y-130400000D02*
X65470000Y-130400000D01*
X62530000Y-130520000D02*
X65470000Y-130520000D01*
X62530000Y-131300000D02*
X65470000Y-131300000D01*
X64000000Y-124640000D02*
X64000000Y-125860000D01*
X64000000Y-132520000D02*
X64000000Y-131300000D01*
X65470000Y-125860000D02*
X62530000Y-125860000D01*
X65470000Y-131300000D02*
X65470000Y-125860000D01*
X125560000Y-41500000D02*
X126780000Y-41500000D01*
X126780000Y-40030000D02*
X126780000Y-42970000D01*
X126780000Y-42970000D02*
X132220000Y-42970000D01*
X127560000Y-40030000D02*
X127560000Y-42970000D01*
X127680000Y-40030000D02*
X127680000Y-42970000D01*
X127800000Y-40030000D02*
X127800000Y-42970000D01*
X132220000Y-40030000D02*
X126780000Y-40030000D01*
X132220000Y-42970000D02*
X132220000Y-40030000D01*
X133440000Y-41500000D02*
X132220000Y-41500000D01*
X44140000Y-83890000D02*
X44140000Y-86400000D01*
X44140000Y-83890000D02*
X56360000Y-83890000D01*
X44140000Y-88700000D02*
X44140000Y-91300000D01*
X44140000Y-93600000D02*
X44140000Y-96110000D01*
X56360000Y-83890000D02*
X56360000Y-86400000D01*
X56360000Y-88700000D02*
X56360000Y-91300000D01*
X56360000Y-93600000D02*
X56360000Y-96110000D01*
X56360000Y-96110000D02*
X44140000Y-96110000D01*
X53800000Y-90000000D02*
G75*
G02*
X46700000Y-90000000I-3550000J0D01*
G01*
X46700000Y-90000000D02*
G75*
G02*
X53800000Y-90000000I3550000J0D01*
G01*
M02*
