G04 #@! TF.GenerationSoftware,KiCad,Pcbnew,8.0.3*
G04 #@! TF.CreationDate,2024-07-18T12:32:46+02:00*
G04 #@! TF.ProjectId,MFD,4d46442e-6b69-4636-9164-5f7063625858,1.0*
G04 #@! TF.SameCoordinates,Original*
G04 #@! TF.FileFunction,Copper,L1,Top*
G04 #@! TF.FilePolarity,Positive*
%FSLAX46Y46*%
G04 Gerber Fmt 4.6, Leading zero omitted, Abs format (unit mm)*
G04 Created by KiCad (PCBNEW 8.0.3) date 2024-07-18 12:32:46*
%MOMM*%
%LPD*%
G01*
G04 APERTURE LIST*
G04 #@! TA.AperFunction,ComponentPad*
%ADD10R,1.800000X1.800000*%
G04 #@! TD*
G04 #@! TA.AperFunction,ComponentPad*
%ADD11O,1.800000X1.800000*%
G04 #@! TD*
G04 #@! TA.AperFunction,ComponentPad*
%ADD12O,3.200000X1.900000*%
G04 #@! TD*
G04 #@! TA.AperFunction,ComponentPad*
%ADD13C,1.400000*%
G04 #@! TD*
G04 #@! TA.AperFunction,ComponentPad*
%ADD14O,1.400000X1.400000*%
G04 #@! TD*
G04 #@! TA.AperFunction,ComponentPad*
%ADD15R,2.000000X2.000000*%
G04 #@! TD*
G04 #@! TA.AperFunction,ComponentPad*
%ADD16C,2.000000*%
G04 #@! TD*
G04 #@! TA.AperFunction,ComponentPad*
%ADD17R,2.000000X3.200000*%
G04 #@! TD*
G04 #@! TA.AperFunction,ComponentPad*
%ADD18R,2.775000X2.775000*%
G04 #@! TD*
G04 #@! TA.AperFunction,ComponentPad*
%ADD19C,2.775000*%
G04 #@! TD*
G04 #@! TA.AperFunction,ComponentPad*
%ADD20O,1.700000X1.700000*%
G04 #@! TD*
G04 #@! TA.AperFunction,ComponentPad*
%ADD21R,1.700000X1.700000*%
G04 #@! TD*
G04 #@! TA.AperFunction,ViaPad*
%ADD22C,0.600000*%
G04 #@! TD*
G04 #@! TA.AperFunction,Conductor*
%ADD23C,0.200000*%
G04 #@! TD*
G04 APERTURE END LIST*
D10*
X156500000Y-92080000D03*
D11*
X156500000Y-81920000D03*
D10*
X64000000Y-115660000D03*
D11*
X64000000Y-105500000D03*
D12*
X116000000Y-152000000D03*
X103500000Y-152000000D03*
X116000000Y-147000000D03*
X103500000Y-147000000D03*
X163000000Y-131750000D03*
X175500000Y-131750000D03*
X163000000Y-136750000D03*
X175500000Y-136750000D03*
D10*
X88000000Y-139500000D03*
D11*
X98160000Y-139500000D03*
D12*
X163000000Y-87500000D03*
X175500000Y-87500000D03*
X163000000Y-92500000D03*
X175500000Y-92500000D03*
D13*
X89000000Y-82960000D03*
D14*
X89000000Y-88040000D03*
D12*
X148000000Y-27000000D03*
X160500000Y-27000000D03*
X148000000Y-32000000D03*
X160500000Y-32000000D03*
X163000000Y-43500000D03*
X175500000Y-43500000D03*
X163000000Y-48500000D03*
X175500000Y-48500000D03*
X94250000Y-152000000D03*
X81750000Y-152000000D03*
X94250000Y-147000000D03*
X81750000Y-147000000D03*
X44000000Y-43500000D03*
X56500000Y-43500000D03*
X44000000Y-48500000D03*
X56500000Y-48500000D03*
D10*
X149420000Y-139500000D03*
D11*
X159580000Y-139500000D03*
D13*
X123460000Y-57000000D03*
D14*
X128540000Y-57000000D03*
D12*
X163000000Y-109500000D03*
X175500000Y-109500000D03*
X163000000Y-114500000D03*
X175500000Y-114500000D03*
D10*
X156500000Y-56660000D03*
D11*
X156500000Y-46500000D03*
D10*
X69500000Y-139500000D03*
D11*
X79660000Y-139500000D03*
D10*
X157000000Y-132580000D03*
D11*
X157000000Y-122420000D03*
D12*
X163000000Y-65500000D03*
X175500000Y-65500000D03*
X163000000Y-70500000D03*
X175500000Y-70500000D03*
D15*
X46500000Y-36500000D03*
D16*
X51500000Y-36500000D03*
X49000000Y-36500000D03*
D17*
X43400000Y-29000000D03*
X54600000Y-29000000D03*
D16*
X51500000Y-22000000D03*
X46500000Y-22000000D03*
D10*
X109500000Y-139500000D03*
D11*
X119660000Y-139500000D03*
D13*
X93000000Y-83000000D03*
D14*
X93000000Y-88080000D03*
D10*
X102920000Y-41500000D03*
D11*
X113080000Y-41500000D03*
D10*
X62420000Y-41500000D03*
D11*
X72580000Y-41500000D03*
D12*
X44000000Y-65500000D03*
X56500000Y-65500000D03*
X44000000Y-70500000D03*
X56500000Y-70500000D03*
D18*
X172500000Y-146300000D03*
D19*
X172500000Y-151000000D03*
X172500000Y-155700000D03*
D12*
X126250000Y-27000000D03*
X138750000Y-27000000D03*
X126250000Y-32000000D03*
X138750000Y-32000000D03*
D10*
X64250000Y-79160000D03*
D11*
X64250000Y-69000000D03*
D10*
X157000000Y-109660000D03*
D11*
X157000000Y-99500000D03*
D10*
X156500000Y-75660000D03*
D11*
X156500000Y-65500000D03*
D10*
X82920000Y-41500000D03*
D11*
X93080000Y-41500000D03*
D10*
X129420000Y-139500000D03*
D11*
X139580000Y-139500000D03*
D15*
X168500000Y-36750000D03*
D16*
X173500000Y-36750000D03*
X171000000Y-36750000D03*
D17*
X165400000Y-29250000D03*
X176600000Y-29250000D03*
D16*
X173500000Y-22250000D03*
X168500000Y-22250000D03*
D12*
X60000000Y-27000000D03*
X72500000Y-27000000D03*
X60000000Y-32000000D03*
X72500000Y-32000000D03*
X44000000Y-109500000D03*
X56500000Y-109500000D03*
X44000000Y-114500000D03*
X56500000Y-114500000D03*
X159500000Y-152000000D03*
X147000000Y-152000000D03*
X159500000Y-147000000D03*
X147000000Y-147000000D03*
X72500000Y-152000000D03*
X60000000Y-152000000D03*
X72500000Y-147000000D03*
X60000000Y-147000000D03*
D10*
X142420000Y-41000000D03*
D11*
X152580000Y-41000000D03*
D12*
X103750000Y-27000000D03*
X116250000Y-27000000D03*
X103750000Y-32000000D03*
X116250000Y-32000000D03*
X44000000Y-131750000D03*
X56500000Y-131750000D03*
X44000000Y-136750000D03*
X56500000Y-136750000D03*
D10*
X64250000Y-97080000D03*
D11*
X64250000Y-86920000D03*
D18*
X47500000Y-146500000D03*
D19*
X47500000Y-151200000D03*
X47500000Y-155900000D03*
D12*
X81750000Y-27000000D03*
X94250000Y-27000000D03*
X81750000Y-32000000D03*
X94250000Y-32000000D03*
X137750000Y-152000000D03*
X125250000Y-152000000D03*
X137750000Y-147000000D03*
X125250000Y-147000000D03*
D13*
X123460000Y-53000000D03*
D14*
X128540000Y-53000000D03*
D10*
X64500000Y-60160000D03*
D11*
X64500000Y-50000000D03*
D10*
X64000000Y-133660000D03*
D11*
X64000000Y-123500000D03*
D10*
X124420000Y-41500000D03*
D11*
X134580000Y-41500000D03*
D12*
X44000000Y-87500000D03*
X56500000Y-87500000D03*
X44000000Y-92500000D03*
X56500000Y-92500000D03*
D20*
X120390000Y-70370000D03*
X120390000Y-72910000D03*
D21*
X120390000Y-75450000D03*
D20*
X120390000Y-77990000D03*
X120390000Y-80530000D03*
X120390000Y-83070000D03*
X120390000Y-85610000D03*
D21*
X120390000Y-88150000D03*
D20*
X120390000Y-90690000D03*
X120390000Y-93230000D03*
X120390000Y-95770000D03*
X120390000Y-98310000D03*
D21*
X120390000Y-100850000D03*
D20*
X120390000Y-103390000D03*
X120390000Y-105930000D03*
X120390000Y-108470000D03*
X120390000Y-111010000D03*
D21*
X120390000Y-113550000D03*
D20*
X120390000Y-116090000D03*
X120390000Y-118630000D03*
X102610000Y-118630000D03*
X102610000Y-116090000D03*
D21*
X102610000Y-113550000D03*
D20*
X102610000Y-111010000D03*
X102610000Y-108470000D03*
X102610000Y-105930000D03*
X102610000Y-103390000D03*
D21*
X102610000Y-100850000D03*
D20*
X102610000Y-98310000D03*
X102610000Y-95770000D03*
X102610000Y-93230000D03*
X102610000Y-90690000D03*
D21*
X102610000Y-88150000D03*
D20*
X102610000Y-85610000D03*
X102610000Y-83070000D03*
X102610000Y-80530000D03*
X102610000Y-77990000D03*
D21*
X102610000Y-75450000D03*
D20*
X102610000Y-72910000D03*
X102610000Y-70370000D03*
X114040000Y-118400000D03*
D21*
X111500000Y-118400000D03*
D20*
X108960000Y-118400000D03*
D22*
X136000000Y-65500000D03*
X135000000Y-67500000D03*
X81500000Y-118500000D03*
X83000000Y-120000000D03*
D23*
X136000000Y-65500000D02*
X138302942Y-63197058D01*
X138302942Y-63197058D02*
X138302942Y-63000000D01*
X47500000Y-151200000D02*
X49200000Y-149500000D01*
X49200000Y-149500000D02*
X53500000Y-149500000D01*
X47500000Y-146500000D02*
X53500000Y-146500000D01*
X61500000Y-95000000D02*
X90500000Y-95000000D01*
X53000000Y-81500000D02*
X55000000Y-81500000D01*
X60000000Y-86500000D02*
X60000000Y-93500000D01*
X47500000Y-37500000D02*
X47500000Y-76000000D01*
X46500000Y-36500000D02*
X47500000Y-37500000D01*
X55000000Y-81500000D02*
X60000000Y-86500000D01*
X93000000Y-92500000D02*
X93000000Y-88080000D01*
X90500000Y-95000000D02*
X93000000Y-92500000D01*
X47500000Y-76000000D02*
X53000000Y-81500000D01*
X60000000Y-93500000D02*
X61500000Y-95000000D01*
X60082233Y-98500000D02*
X46500000Y-84917767D01*
X120390000Y-105930000D02*
X105570000Y-105930000D01*
X99080000Y-107080000D02*
X90500000Y-98500000D01*
X104420000Y-107080000D02*
X99080000Y-107080000D01*
X45200000Y-23300000D02*
X46500000Y-22000000D01*
X46500000Y-84917767D02*
X46500000Y-39100000D01*
X45200000Y-37800000D02*
X45200000Y-23300000D01*
X90500000Y-98500000D02*
X60082233Y-98500000D01*
X105570000Y-105930000D02*
X104420000Y-107080000D01*
X46500000Y-39100000D02*
X45200000Y-37800000D01*
X121874214Y-52000000D02*
X123874214Y-52000000D01*
X49000000Y-36500000D02*
X50300000Y-35200000D01*
X51500000Y-22000000D02*
X50300000Y-23200000D01*
X127500000Y-55625786D02*
X127500000Y-57374214D01*
X172738478Y-40600000D02*
X175300000Y-38038478D01*
X175300000Y-36300000D02*
X174450000Y-35450000D01*
X140200000Y-59400000D02*
X159000000Y-40600000D01*
X123874214Y-52000000D02*
X127500000Y-55625786D01*
X172300000Y-35450000D02*
X171000000Y-36750000D01*
X175300000Y-38038478D02*
X175300000Y-36300000D01*
X105074214Y-35200000D02*
X121874214Y-52000000D01*
X50300000Y-35200000D02*
X105074214Y-35200000D01*
X129525786Y-59400000D02*
X140200000Y-59400000D01*
X127500000Y-57374214D02*
X129525786Y-59400000D01*
X129525786Y-59400000D02*
X129525786Y-66314214D01*
X159000000Y-40600000D02*
X172738478Y-40600000D01*
X129525786Y-66314214D02*
X120390000Y-75450000D01*
X50300000Y-23200000D02*
X50300000Y-35200000D01*
X174450000Y-35450000D02*
X172300000Y-35450000D01*
X84540000Y-92500000D02*
X72000000Y-92500000D01*
X52500000Y-73000000D02*
X72000000Y-92500000D01*
X52500000Y-37500000D02*
X52500000Y-73000000D01*
X51500000Y-36500000D02*
X52500000Y-37500000D01*
X89000000Y-88040000D02*
X84540000Y-92500000D01*
X173000000Y-41500000D02*
X176500000Y-38000000D01*
X168500000Y-27500000D02*
X168500000Y-22250000D01*
X176500000Y-38000000D02*
X176500000Y-35500000D01*
X159802942Y-41500000D02*
X173000000Y-41500000D01*
X176500000Y-35500000D02*
X168500000Y-27500000D01*
X138302942Y-63000000D02*
X159802942Y-41500000D01*
X159090000Y-36750000D02*
X168500000Y-36750000D01*
X130000000Y-53000000D02*
X132000000Y-55000000D01*
X132000000Y-55000000D02*
X140840000Y-55000000D01*
X128540000Y-53000000D02*
X130000000Y-53000000D01*
X140840000Y-55000000D02*
X159090000Y-36750000D01*
X140500000Y-57000000D02*
X158000000Y-39500000D01*
X158000000Y-39500000D02*
X170750000Y-39500000D01*
X170750000Y-39500000D02*
X173500000Y-36750000D01*
X128540000Y-57000000D02*
X140500000Y-57000000D01*
X103086346Y-79380000D02*
X99593654Y-79380000D01*
X98613654Y-80360000D02*
X66640000Y-80360000D01*
X117900000Y-75500000D02*
X106966346Y-75500000D01*
X66640000Y-80360000D02*
X66000000Y-81000000D01*
X106966346Y-75500000D02*
X103086346Y-79380000D01*
X99593654Y-79380000D02*
X98613654Y-80360000D01*
X120390000Y-77990000D02*
X117900000Y-75500000D01*
X60500000Y-64160000D02*
X64500000Y-60160000D01*
X60500000Y-79500000D02*
X60500000Y-64160000D01*
X66000000Y-81000000D02*
X62000000Y-81000000D01*
X62000000Y-81000000D02*
X60500000Y-79500000D01*
X157000000Y-109660000D02*
X155300000Y-107960000D01*
X126460000Y-74460000D02*
X120390000Y-80530000D01*
X157700000Y-74460000D02*
X126460000Y-74460000D01*
X157700000Y-93280000D02*
X157700000Y-74460000D01*
X64250000Y-79160000D02*
X82920000Y-60490000D01*
X82920000Y-60490000D02*
X82920000Y-41500000D01*
X155300000Y-107960000D02*
X155300000Y-95680000D01*
X155300000Y-95680000D02*
X157700000Y-93280000D01*
X129400000Y-92080000D02*
X120390000Y-83070000D01*
X129400000Y-119600000D02*
X129400000Y-92080000D01*
X109500000Y-139500000D02*
X129400000Y-119600000D01*
X156500000Y-92080000D02*
X129400000Y-92080000D01*
X124000000Y-123000000D02*
X127000000Y-120000000D01*
X127000000Y-120000000D02*
X127000000Y-91000000D01*
X150240000Y-81920000D02*
X119913654Y-81920000D01*
X119240000Y-84460000D02*
X120390000Y-85610000D01*
X119240000Y-82593654D02*
X119240000Y-84460000D01*
X127000000Y-91000000D02*
X121610000Y-85610000D01*
X88000000Y-139500000D02*
X104500000Y-123000000D01*
X156500000Y-75660000D02*
X150240000Y-81920000D01*
X104500000Y-123000000D02*
X124000000Y-123000000D01*
X119913654Y-81920000D02*
X119240000Y-82593654D01*
X121610000Y-85610000D02*
X120390000Y-85610000D01*
X126000000Y-94000000D02*
X126000000Y-120000000D01*
X126000000Y-120000000D02*
X123500000Y-122500000D01*
X120390000Y-90690000D02*
X122690000Y-90690000D01*
X123500000Y-122500000D02*
X86500000Y-122500000D01*
X122690000Y-90690000D02*
X126000000Y-94000000D01*
X156500000Y-56660000D02*
X145840000Y-56660000D01*
X86500000Y-122500000D02*
X69500000Y-139500000D01*
X145840000Y-56660000D02*
X135000000Y-67500000D01*
X163000000Y-65500000D02*
X163000000Y-66000000D01*
X104000000Y-95293654D02*
X104000000Y-104540000D01*
X126186346Y-74060000D02*
X120866346Y-79380000D01*
X119913654Y-79380000D02*
X104000000Y-95293654D01*
X104000000Y-104540000D02*
X102610000Y-105930000D01*
X162500000Y-78120000D02*
X162500000Y-87000000D01*
X160000000Y-72500000D02*
X158440000Y-74060000D01*
X120866346Y-79380000D02*
X119913654Y-79380000D01*
X160000000Y-69000000D02*
X160000000Y-72500000D01*
X163000000Y-66000000D02*
X160000000Y-69000000D01*
X158440000Y-74060000D02*
X162500000Y-78120000D01*
X158440000Y-74060000D02*
X157865685Y-74060000D01*
X162500000Y-87000000D02*
X163000000Y-87500000D01*
X157865685Y-74060000D02*
X126186346Y-74060000D01*
X94440000Y-112160000D02*
X103086346Y-112160000D01*
X66850000Y-139750000D02*
X94440000Y-112160000D01*
X66850000Y-146350000D02*
X66850000Y-139750000D01*
X72500000Y-152000000D02*
X66850000Y-146350000D01*
X103760000Y-109620000D02*
X102610000Y-108470000D01*
X103086346Y-112160000D02*
X103760000Y-111486346D01*
X103760000Y-111486346D02*
X103760000Y-109620000D01*
X102610000Y-111010000D02*
X101100000Y-109500000D01*
X101100000Y-109500000D02*
X56500000Y-109500000D01*
X53500000Y-146500000D02*
X81500000Y-118500000D01*
X53500000Y-149500000D02*
X83000000Y-120000000D01*
X123460000Y-57000000D02*
X123460000Y-53000000D01*
M02*
