G04 #@! TF.GenerationSoftware,KiCad,Pcbnew,8.0.3*
G04 #@! TF.CreationDate,2024-07-18T12:32:46+02:00*
G04 #@! TF.ProjectId,MFD,4d46442e-6b69-4636-9164-5f7063625858,1.0*
G04 #@! TF.SameCoordinates,Original*
G04 #@! TF.FileFunction,Legend,Bot*
G04 #@! TF.FilePolarity,Positive*
%FSLAX46Y46*%
G04 Gerber Fmt 4.6, Leading zero omitted, Abs format (unit mm)*
G04 Created by KiCad (PCBNEW 8.0.3) date 2024-07-18 12:32:46*
%MOMM*%
%LPD*%
G01*
G04 APERTURE LIST*
%ADD10C,0.150000*%
%ADD11C,0.120000*%
G04 APERTURE END LIST*
D10*
X112261904Y-93954819D02*
X112261904Y-94764342D01*
X112261904Y-94764342D02*
X112214285Y-94859580D01*
X112214285Y-94859580D02*
X112166666Y-94907200D01*
X112166666Y-94907200D02*
X112071428Y-94954819D01*
X112071428Y-94954819D02*
X111880952Y-94954819D01*
X111880952Y-94954819D02*
X111785714Y-94907200D01*
X111785714Y-94907200D02*
X111738095Y-94859580D01*
X111738095Y-94859580D02*
X111690476Y-94764342D01*
X111690476Y-94764342D02*
X111690476Y-93954819D01*
X110690476Y-94954819D02*
X111261904Y-94954819D01*
X110976190Y-94954819D02*
X110976190Y-93954819D01*
X110976190Y-93954819D02*
X111071428Y-94097676D01*
X111071428Y-94097676D02*
X111166666Y-94192914D01*
X111166666Y-94192914D02*
X111261904Y-94240533D01*
X99402001Y-116480868D02*
X99482814Y-116507805D01*
X99482814Y-116507805D02*
X99563626Y-116588618D01*
X99563626Y-116588618D02*
X99617501Y-116696367D01*
X99617501Y-116696367D02*
X99617501Y-116804117D01*
X99617501Y-116804117D02*
X99590563Y-116884929D01*
X99590563Y-116884929D02*
X99509751Y-117019616D01*
X99509751Y-117019616D02*
X99428939Y-117100428D01*
X99428939Y-117100428D02*
X99294252Y-117181241D01*
X99294252Y-117181241D02*
X99213439Y-117208178D01*
X99213439Y-117208178D02*
X99105690Y-117208178D01*
X99105690Y-117208178D02*
X98997940Y-117154303D01*
X98997940Y-117154303D02*
X98944065Y-117100428D01*
X98944065Y-117100428D02*
X98890191Y-116992679D01*
X98890191Y-116992679D02*
X98890191Y-116938804D01*
X98890191Y-116938804D02*
X99078752Y-116750242D01*
X99078752Y-116750242D02*
X99186502Y-116857992D01*
X98593879Y-116750242D02*
X99159565Y-116184557D01*
X99159565Y-116184557D02*
X98944065Y-115969057D01*
X98944065Y-115969057D02*
X98863253Y-115942120D01*
X98863253Y-115942120D02*
X98809378Y-115942120D01*
X98809378Y-115942120D02*
X98728566Y-115969057D01*
X98728566Y-115969057D02*
X98647754Y-116049870D01*
X98647754Y-116049870D02*
X98620817Y-116130682D01*
X98620817Y-116130682D02*
X98620817Y-116184557D01*
X98620817Y-116184557D02*
X98647754Y-116265369D01*
X98647754Y-116265369D02*
X98863253Y-116480868D01*
X97731882Y-115888245D02*
X98055131Y-116211494D01*
X97893507Y-116049870D02*
X98459192Y-115484184D01*
X98459192Y-115484184D02*
X98432255Y-115618871D01*
X98432255Y-115618871D02*
X98432255Y-115726621D01*
X98432255Y-115726621D02*
X98459192Y-115807433D01*
X98109006Y-115133998D02*
X97731882Y-114756874D01*
X97731882Y-114756874D02*
X97408633Y-115564996D01*
X125656001Y-108860868D02*
X125736814Y-108887805D01*
X125736814Y-108887805D02*
X125817626Y-108968618D01*
X125817626Y-108968618D02*
X125871501Y-109076367D01*
X125871501Y-109076367D02*
X125871501Y-109184117D01*
X125871501Y-109184117D02*
X125844563Y-109264929D01*
X125844563Y-109264929D02*
X125763751Y-109399616D01*
X125763751Y-109399616D02*
X125682939Y-109480428D01*
X125682939Y-109480428D02*
X125548252Y-109561241D01*
X125548252Y-109561241D02*
X125467439Y-109588178D01*
X125467439Y-109588178D02*
X125359690Y-109588178D01*
X125359690Y-109588178D02*
X125251940Y-109534303D01*
X125251940Y-109534303D02*
X125198065Y-109480428D01*
X125198065Y-109480428D02*
X125144191Y-109372679D01*
X125144191Y-109372679D02*
X125144191Y-109318804D01*
X125144191Y-109318804D02*
X125332752Y-109130242D01*
X125332752Y-109130242D02*
X125440502Y-109237992D01*
X124847879Y-109130242D02*
X125413565Y-108564557D01*
X125413565Y-108564557D02*
X125198065Y-108349057D01*
X125198065Y-108349057D02*
X125117253Y-108322120D01*
X125117253Y-108322120D02*
X125063378Y-108322120D01*
X125063378Y-108322120D02*
X124982566Y-108349057D01*
X124982566Y-108349057D02*
X124901754Y-108429870D01*
X124901754Y-108429870D02*
X124874817Y-108510682D01*
X124874817Y-108510682D02*
X124874817Y-108564557D01*
X124874817Y-108564557D02*
X124901754Y-108645369D01*
X124901754Y-108645369D02*
X125117253Y-108860868D01*
X123985882Y-108268245D02*
X124309131Y-108591494D01*
X124147507Y-108429870D02*
X124713192Y-107864184D01*
X124713192Y-107864184D02*
X124686255Y-107998871D01*
X124686255Y-107998871D02*
X124686255Y-108106621D01*
X124686255Y-108106621D02*
X124713192Y-108187433D01*
X124282194Y-107540935D02*
X124282194Y-107487060D01*
X124282194Y-107487060D02*
X124255256Y-107406248D01*
X124255256Y-107406248D02*
X124120569Y-107271561D01*
X124120569Y-107271561D02*
X124039757Y-107244624D01*
X124039757Y-107244624D02*
X123985882Y-107244624D01*
X123985882Y-107244624D02*
X123905070Y-107271561D01*
X123905070Y-107271561D02*
X123851195Y-107325436D01*
X123851195Y-107325436D02*
X123797320Y-107433186D01*
X123797320Y-107433186D02*
X123797320Y-108079683D01*
X123797320Y-108079683D02*
X123447134Y-107729497D01*
X125086627Y-78111494D02*
X125167439Y-78138431D01*
X125167439Y-78138431D02*
X125248251Y-78219243D01*
X125248251Y-78219243D02*
X125302126Y-78326993D01*
X125302126Y-78326993D02*
X125302126Y-78434742D01*
X125302126Y-78434742D02*
X125275189Y-78515555D01*
X125275189Y-78515555D02*
X125194376Y-78650242D01*
X125194376Y-78650242D02*
X125113564Y-78731054D01*
X125113564Y-78731054D02*
X124978877Y-78811866D01*
X124978877Y-78811866D02*
X124898065Y-78838803D01*
X124898065Y-78838803D02*
X124790315Y-78838803D01*
X124790315Y-78838803D02*
X124682566Y-78784929D01*
X124682566Y-78784929D02*
X124628691Y-78731054D01*
X124628691Y-78731054D02*
X124574816Y-78623304D01*
X124574816Y-78623304D02*
X124574816Y-78569429D01*
X124574816Y-78569429D02*
X124763378Y-78380868D01*
X124763378Y-78380868D02*
X124871128Y-78488617D01*
X124278505Y-78380868D02*
X124844190Y-77815182D01*
X124844190Y-77815182D02*
X124628691Y-77599683D01*
X124628691Y-77599683D02*
X124547879Y-77572746D01*
X124547879Y-77572746D02*
X124494004Y-77572746D01*
X124494004Y-77572746D02*
X124413192Y-77599683D01*
X124413192Y-77599683D02*
X124332380Y-77680495D01*
X124332380Y-77680495D02*
X124305442Y-77761307D01*
X124305442Y-77761307D02*
X124305442Y-77815182D01*
X124305442Y-77815182D02*
X124332380Y-77895994D01*
X124332380Y-77895994D02*
X124547879Y-78111494D01*
X124251567Y-77330309D02*
X124251567Y-77276434D01*
X124251567Y-77276434D02*
X124224630Y-77195622D01*
X124224630Y-77195622D02*
X124089943Y-77060935D01*
X124089943Y-77060935D02*
X124009131Y-77033998D01*
X124009131Y-77033998D02*
X123955256Y-77033998D01*
X123955256Y-77033998D02*
X123874444Y-77060935D01*
X123874444Y-77060935D02*
X123820569Y-77114810D01*
X123820569Y-77114810D02*
X123766694Y-77222559D01*
X123766694Y-77222559D02*
X123766694Y-77869057D01*
X123766694Y-77869057D02*
X123416508Y-77518871D01*
X99402001Y-111400868D02*
X99482814Y-111427805D01*
X99482814Y-111427805D02*
X99563626Y-111508618D01*
X99563626Y-111508618D02*
X99617501Y-111616367D01*
X99617501Y-111616367D02*
X99617501Y-111724117D01*
X99617501Y-111724117D02*
X99590563Y-111804929D01*
X99590563Y-111804929D02*
X99509751Y-111939616D01*
X99509751Y-111939616D02*
X99428939Y-112020428D01*
X99428939Y-112020428D02*
X99294252Y-112101241D01*
X99294252Y-112101241D02*
X99213439Y-112128178D01*
X99213439Y-112128178D02*
X99105690Y-112128178D01*
X99105690Y-112128178D02*
X98997940Y-112074303D01*
X98997940Y-112074303D02*
X98944065Y-112020428D01*
X98944065Y-112020428D02*
X98890191Y-111912679D01*
X98890191Y-111912679D02*
X98890191Y-111858804D01*
X98890191Y-111858804D02*
X99078752Y-111670242D01*
X99078752Y-111670242D02*
X99186502Y-111777992D01*
X98593879Y-111670242D02*
X99159565Y-111104557D01*
X99159565Y-111104557D02*
X98944065Y-110889057D01*
X98944065Y-110889057D02*
X98863253Y-110862120D01*
X98863253Y-110862120D02*
X98809378Y-110862120D01*
X98809378Y-110862120D02*
X98728566Y-110889057D01*
X98728566Y-110889057D02*
X98647754Y-110969870D01*
X98647754Y-110969870D02*
X98620817Y-111050682D01*
X98620817Y-111050682D02*
X98620817Y-111104557D01*
X98620817Y-111104557D02*
X98647754Y-111185369D01*
X98647754Y-111185369D02*
X98863253Y-111400868D01*
X97731882Y-110808245D02*
X98055131Y-111131494D01*
X97893507Y-110969870D02*
X98459192Y-110404184D01*
X98459192Y-110404184D02*
X98432255Y-110538871D01*
X98432255Y-110538871D02*
X98432255Y-110646621D01*
X98432255Y-110646621D02*
X98459192Y-110727433D01*
X97731882Y-110161747D02*
X97812694Y-110188685D01*
X97812694Y-110188685D02*
X97866569Y-110188685D01*
X97866569Y-110188685D02*
X97947381Y-110161747D01*
X97947381Y-110161747D02*
X97974319Y-110134810D01*
X97974319Y-110134810D02*
X98001256Y-110053998D01*
X98001256Y-110053998D02*
X98001256Y-110000123D01*
X98001256Y-110000123D02*
X97974319Y-109919311D01*
X97974319Y-109919311D02*
X97866569Y-109811561D01*
X97866569Y-109811561D02*
X97785757Y-109784624D01*
X97785757Y-109784624D02*
X97731882Y-109784624D01*
X97731882Y-109784624D02*
X97651070Y-109811561D01*
X97651070Y-109811561D02*
X97624133Y-109838499D01*
X97624133Y-109838499D02*
X97597195Y-109919311D01*
X97597195Y-109919311D02*
X97597195Y-109973186D01*
X97597195Y-109973186D02*
X97624133Y-110053998D01*
X97624133Y-110053998D02*
X97731882Y-110161747D01*
X97731882Y-110161747D02*
X97758820Y-110242560D01*
X97758820Y-110242560D02*
X97758820Y-110296434D01*
X97758820Y-110296434D02*
X97731882Y-110377247D01*
X97731882Y-110377247D02*
X97624133Y-110484996D01*
X97624133Y-110484996D02*
X97543320Y-110511934D01*
X97543320Y-110511934D02*
X97489446Y-110511934D01*
X97489446Y-110511934D02*
X97408633Y-110484996D01*
X97408633Y-110484996D02*
X97300884Y-110377247D01*
X97300884Y-110377247D02*
X97273946Y-110296434D01*
X97273946Y-110296434D02*
X97273946Y-110242560D01*
X97273946Y-110242560D02*
X97300884Y-110161747D01*
X97300884Y-110161747D02*
X97408633Y-110053998D01*
X97408633Y-110053998D02*
X97489446Y-110027060D01*
X97489446Y-110027060D02*
X97543320Y-110027060D01*
X97543320Y-110027060D02*
X97624133Y-110053998D01*
X124986627Y-80651494D02*
X125067439Y-80678431D01*
X125067439Y-80678431D02*
X125148251Y-80759243D01*
X125148251Y-80759243D02*
X125202126Y-80866993D01*
X125202126Y-80866993D02*
X125202126Y-80974742D01*
X125202126Y-80974742D02*
X125175189Y-81055555D01*
X125175189Y-81055555D02*
X125094376Y-81190242D01*
X125094376Y-81190242D02*
X125013564Y-81271054D01*
X125013564Y-81271054D02*
X124878877Y-81351866D01*
X124878877Y-81351866D02*
X124798065Y-81378803D01*
X124798065Y-81378803D02*
X124690315Y-81378803D01*
X124690315Y-81378803D02*
X124582566Y-81324929D01*
X124582566Y-81324929D02*
X124528691Y-81271054D01*
X124528691Y-81271054D02*
X124474816Y-81163304D01*
X124474816Y-81163304D02*
X124474816Y-81109429D01*
X124474816Y-81109429D02*
X124663378Y-80920868D01*
X124663378Y-80920868D02*
X124771128Y-81028617D01*
X124178505Y-80920868D02*
X124744190Y-80355182D01*
X124744190Y-80355182D02*
X124528691Y-80139683D01*
X124528691Y-80139683D02*
X124447879Y-80112746D01*
X124447879Y-80112746D02*
X124394004Y-80112746D01*
X124394004Y-80112746D02*
X124313192Y-80139683D01*
X124313192Y-80139683D02*
X124232380Y-80220495D01*
X124232380Y-80220495D02*
X124205442Y-80301307D01*
X124205442Y-80301307D02*
X124205442Y-80355182D01*
X124205442Y-80355182D02*
X124232380Y-80435994D01*
X124232380Y-80435994D02*
X124447879Y-80651494D01*
X124232380Y-79843372D02*
X123882193Y-79493185D01*
X123882193Y-79493185D02*
X123855256Y-79897246D01*
X123855256Y-79897246D02*
X123774444Y-79816434D01*
X123774444Y-79816434D02*
X123693632Y-79789497D01*
X123693632Y-79789497D02*
X123639757Y-79789497D01*
X123639757Y-79789497D02*
X123558945Y-79816434D01*
X123558945Y-79816434D02*
X123424258Y-79951121D01*
X123424258Y-79951121D02*
X123397320Y-80031933D01*
X123397320Y-80031933D02*
X123397320Y-80085808D01*
X123397320Y-80085808D02*
X123424258Y-80166620D01*
X123424258Y-80166620D02*
X123585882Y-80328245D01*
X123585882Y-80328245D02*
X123666694Y-80355182D01*
X123666694Y-80355182D02*
X123720569Y-80355182D01*
X99402001Y-119020868D02*
X99482814Y-119047805D01*
X99482814Y-119047805D02*
X99563626Y-119128618D01*
X99563626Y-119128618D02*
X99617501Y-119236367D01*
X99617501Y-119236367D02*
X99617501Y-119344117D01*
X99617501Y-119344117D02*
X99590563Y-119424929D01*
X99590563Y-119424929D02*
X99509751Y-119559616D01*
X99509751Y-119559616D02*
X99428939Y-119640428D01*
X99428939Y-119640428D02*
X99294252Y-119721241D01*
X99294252Y-119721241D02*
X99213439Y-119748178D01*
X99213439Y-119748178D02*
X99105690Y-119748178D01*
X99105690Y-119748178D02*
X98997940Y-119694303D01*
X98997940Y-119694303D02*
X98944065Y-119640428D01*
X98944065Y-119640428D02*
X98890191Y-119532679D01*
X98890191Y-119532679D02*
X98890191Y-119478804D01*
X98890191Y-119478804D02*
X99078752Y-119290242D01*
X99078752Y-119290242D02*
X99186502Y-119397992D01*
X98593879Y-119290242D02*
X99159565Y-118724557D01*
X99159565Y-118724557D02*
X98944065Y-118509057D01*
X98944065Y-118509057D02*
X98863253Y-118482120D01*
X98863253Y-118482120D02*
X98809378Y-118482120D01*
X98809378Y-118482120D02*
X98728566Y-118509057D01*
X98728566Y-118509057D02*
X98647754Y-118589870D01*
X98647754Y-118589870D02*
X98620817Y-118670682D01*
X98620817Y-118670682D02*
X98620817Y-118724557D01*
X98620817Y-118724557D02*
X98647754Y-118805369D01*
X98647754Y-118805369D02*
X98863253Y-119020868D01*
X97731882Y-118428245D02*
X98055131Y-118751494D01*
X97893507Y-118589870D02*
X98459192Y-118024184D01*
X98459192Y-118024184D02*
X98432255Y-118158871D01*
X98432255Y-118158871D02*
X98432255Y-118266621D01*
X98432255Y-118266621D02*
X98459192Y-118347433D01*
X97812694Y-117377686D02*
X97920444Y-117485436D01*
X97920444Y-117485436D02*
X97947381Y-117566248D01*
X97947381Y-117566248D02*
X97947381Y-117620123D01*
X97947381Y-117620123D02*
X97920444Y-117754810D01*
X97920444Y-117754810D02*
X97839632Y-117889497D01*
X97839632Y-117889497D02*
X97624133Y-118104996D01*
X97624133Y-118104996D02*
X97543320Y-118131934D01*
X97543320Y-118131934D02*
X97489446Y-118131934D01*
X97489446Y-118131934D02*
X97408633Y-118104996D01*
X97408633Y-118104996D02*
X97300884Y-117997247D01*
X97300884Y-117997247D02*
X97273946Y-117916434D01*
X97273946Y-117916434D02*
X97273946Y-117862560D01*
X97273946Y-117862560D02*
X97300884Y-117781747D01*
X97300884Y-117781747D02*
X97435571Y-117647060D01*
X97435571Y-117647060D02*
X97516383Y-117620123D01*
X97516383Y-117620123D02*
X97570258Y-117620123D01*
X97570258Y-117620123D02*
X97651070Y-117647060D01*
X97651070Y-117647060D02*
X97758820Y-117754810D01*
X97758820Y-117754810D02*
X97785757Y-117835622D01*
X97785757Y-117835622D02*
X97785757Y-117889497D01*
X97785757Y-117889497D02*
X97758820Y-117970309D01*
X124986627Y-95891494D02*
X125067439Y-95918431D01*
X125067439Y-95918431D02*
X125148251Y-95999243D01*
X125148251Y-95999243D02*
X125202126Y-96106993D01*
X125202126Y-96106993D02*
X125202126Y-96214742D01*
X125202126Y-96214742D02*
X125175189Y-96295555D01*
X125175189Y-96295555D02*
X125094376Y-96430242D01*
X125094376Y-96430242D02*
X125013564Y-96511054D01*
X125013564Y-96511054D02*
X124878877Y-96591866D01*
X124878877Y-96591866D02*
X124798065Y-96618803D01*
X124798065Y-96618803D02*
X124690315Y-96618803D01*
X124690315Y-96618803D02*
X124582566Y-96564929D01*
X124582566Y-96564929D02*
X124528691Y-96511054D01*
X124528691Y-96511054D02*
X124474816Y-96403304D01*
X124474816Y-96403304D02*
X124474816Y-96349429D01*
X124474816Y-96349429D02*
X124663378Y-96160868D01*
X124663378Y-96160868D02*
X124771128Y-96268617D01*
X124178505Y-96160868D02*
X124744190Y-95595182D01*
X124744190Y-95595182D02*
X124528691Y-95379683D01*
X124528691Y-95379683D02*
X124447879Y-95352746D01*
X124447879Y-95352746D02*
X124394004Y-95352746D01*
X124394004Y-95352746D02*
X124313192Y-95379683D01*
X124313192Y-95379683D02*
X124232380Y-95460495D01*
X124232380Y-95460495D02*
X124205442Y-95541307D01*
X124205442Y-95541307D02*
X124205442Y-95595182D01*
X124205442Y-95595182D02*
X124232380Y-95675994D01*
X124232380Y-95675994D02*
X124447879Y-95891494D01*
X123855256Y-95191121D02*
X123936068Y-95218059D01*
X123936068Y-95218059D02*
X123989943Y-95218059D01*
X123989943Y-95218059D02*
X124070755Y-95191121D01*
X124070755Y-95191121D02*
X124097693Y-95164184D01*
X124097693Y-95164184D02*
X124124630Y-95083372D01*
X124124630Y-95083372D02*
X124124630Y-95029497D01*
X124124630Y-95029497D02*
X124097693Y-94948685D01*
X124097693Y-94948685D02*
X123989943Y-94840935D01*
X123989943Y-94840935D02*
X123909131Y-94813998D01*
X123909131Y-94813998D02*
X123855256Y-94813998D01*
X123855256Y-94813998D02*
X123774444Y-94840935D01*
X123774444Y-94840935D02*
X123747506Y-94867872D01*
X123747506Y-94867872D02*
X123720569Y-94948685D01*
X123720569Y-94948685D02*
X123720569Y-95002559D01*
X123720569Y-95002559D02*
X123747506Y-95083372D01*
X123747506Y-95083372D02*
X123855256Y-95191121D01*
X123855256Y-95191121D02*
X123882193Y-95271933D01*
X123882193Y-95271933D02*
X123882193Y-95325808D01*
X123882193Y-95325808D02*
X123855256Y-95406620D01*
X123855256Y-95406620D02*
X123747506Y-95514370D01*
X123747506Y-95514370D02*
X123666694Y-95541307D01*
X123666694Y-95541307D02*
X123612819Y-95541307D01*
X123612819Y-95541307D02*
X123532007Y-95514370D01*
X123532007Y-95514370D02*
X123424258Y-95406620D01*
X123424258Y-95406620D02*
X123397320Y-95325808D01*
X123397320Y-95325808D02*
X123397320Y-95271933D01*
X123397320Y-95271933D02*
X123424258Y-95191121D01*
X123424258Y-95191121D02*
X123532007Y-95083372D01*
X123532007Y-95083372D02*
X123612819Y-95056434D01*
X123612819Y-95056434D02*
X123666694Y-95056434D01*
X123666694Y-95056434D02*
X123747506Y-95083372D01*
X99402001Y-108860868D02*
X99482814Y-108887805D01*
X99482814Y-108887805D02*
X99563626Y-108968618D01*
X99563626Y-108968618D02*
X99617501Y-109076367D01*
X99617501Y-109076367D02*
X99617501Y-109184117D01*
X99617501Y-109184117D02*
X99590563Y-109264929D01*
X99590563Y-109264929D02*
X99509751Y-109399616D01*
X99509751Y-109399616D02*
X99428939Y-109480428D01*
X99428939Y-109480428D02*
X99294252Y-109561241D01*
X99294252Y-109561241D02*
X99213439Y-109588178D01*
X99213439Y-109588178D02*
X99105690Y-109588178D01*
X99105690Y-109588178D02*
X98997940Y-109534303D01*
X98997940Y-109534303D02*
X98944065Y-109480428D01*
X98944065Y-109480428D02*
X98890191Y-109372679D01*
X98890191Y-109372679D02*
X98890191Y-109318804D01*
X98890191Y-109318804D02*
X99078752Y-109130242D01*
X99078752Y-109130242D02*
X99186502Y-109237992D01*
X98593879Y-109130242D02*
X99159565Y-108564557D01*
X99159565Y-108564557D02*
X98944065Y-108349057D01*
X98944065Y-108349057D02*
X98863253Y-108322120D01*
X98863253Y-108322120D02*
X98809378Y-108322120D01*
X98809378Y-108322120D02*
X98728566Y-108349057D01*
X98728566Y-108349057D02*
X98647754Y-108429870D01*
X98647754Y-108429870D02*
X98620817Y-108510682D01*
X98620817Y-108510682D02*
X98620817Y-108564557D01*
X98620817Y-108564557D02*
X98647754Y-108645369D01*
X98647754Y-108645369D02*
X98863253Y-108860868D01*
X97731882Y-108268245D02*
X98055131Y-108591494D01*
X97893507Y-108429870D02*
X98459192Y-107864184D01*
X98459192Y-107864184D02*
X98432255Y-107998871D01*
X98432255Y-107998871D02*
X98432255Y-108106621D01*
X98432255Y-108106621D02*
X98459192Y-108187433D01*
X97462508Y-107998871D02*
X97354759Y-107891121D01*
X97354759Y-107891121D02*
X97327821Y-107810309D01*
X97327821Y-107810309D02*
X97327821Y-107756434D01*
X97327821Y-107756434D02*
X97354759Y-107621747D01*
X97354759Y-107621747D02*
X97435571Y-107487060D01*
X97435571Y-107487060D02*
X97651070Y-107271561D01*
X97651070Y-107271561D02*
X97731882Y-107244624D01*
X97731882Y-107244624D02*
X97785757Y-107244624D01*
X97785757Y-107244624D02*
X97866569Y-107271561D01*
X97866569Y-107271561D02*
X97974319Y-107379311D01*
X97974319Y-107379311D02*
X98001256Y-107460123D01*
X98001256Y-107460123D02*
X98001256Y-107513998D01*
X98001256Y-107513998D02*
X97974319Y-107594810D01*
X97974319Y-107594810D02*
X97839632Y-107729497D01*
X97839632Y-107729497D02*
X97758820Y-107756434D01*
X97758820Y-107756434D02*
X97704945Y-107756434D01*
X97704945Y-107756434D02*
X97624133Y-107729497D01*
X97624133Y-107729497D02*
X97516383Y-107621747D01*
X97516383Y-107621747D02*
X97489446Y-107540935D01*
X97489446Y-107540935D02*
X97489446Y-107487060D01*
X97489446Y-107487060D02*
X97516383Y-107406248D01*
X125013564Y-88298431D02*
X125094376Y-88325368D01*
X125094376Y-88325368D02*
X125175188Y-88406180D01*
X125175188Y-88406180D02*
X125229063Y-88513930D01*
X125229063Y-88513930D02*
X125229063Y-88621680D01*
X125229063Y-88621680D02*
X125202126Y-88702492D01*
X125202126Y-88702492D02*
X125121314Y-88837179D01*
X125121314Y-88837179D02*
X125040501Y-88917991D01*
X125040501Y-88917991D02*
X124905814Y-88998803D01*
X124905814Y-88998803D02*
X124825002Y-89025741D01*
X124825002Y-89025741D02*
X124717253Y-89025741D01*
X124717253Y-89025741D02*
X124609503Y-88971866D01*
X124609503Y-88971866D02*
X124555628Y-88917991D01*
X124555628Y-88917991D02*
X124501753Y-88810241D01*
X124501753Y-88810241D02*
X124501753Y-88756367D01*
X124501753Y-88756367D02*
X124690315Y-88567805D01*
X124690315Y-88567805D02*
X124798065Y-88675554D01*
X124205442Y-88567805D02*
X124771127Y-88002119D01*
X124771127Y-88002119D02*
X123882193Y-88244556D01*
X123882193Y-88244556D02*
X124447879Y-87678871D01*
X123612819Y-87975182D02*
X124178505Y-87409497D01*
X124178505Y-87409497D02*
X124043818Y-87274810D01*
X124043818Y-87274810D02*
X123936068Y-87220935D01*
X123936068Y-87220935D02*
X123828319Y-87220935D01*
X123828319Y-87220935D02*
X123747506Y-87247872D01*
X123747506Y-87247872D02*
X123612819Y-87328685D01*
X123612819Y-87328685D02*
X123532007Y-87409497D01*
X123532007Y-87409497D02*
X123451195Y-87544184D01*
X123451195Y-87544184D02*
X123424258Y-87624996D01*
X123424258Y-87624996D02*
X123424258Y-87732746D01*
X123424258Y-87732746D02*
X123478132Y-87840495D01*
X123478132Y-87840495D02*
X123612819Y-87975182D01*
X99413564Y-100998431D02*
X99494376Y-101025368D01*
X99494376Y-101025368D02*
X99575188Y-101106180D01*
X99575188Y-101106180D02*
X99629063Y-101213930D01*
X99629063Y-101213930D02*
X99629063Y-101321680D01*
X99629063Y-101321680D02*
X99602126Y-101402492D01*
X99602126Y-101402492D02*
X99521314Y-101537179D01*
X99521314Y-101537179D02*
X99440501Y-101617991D01*
X99440501Y-101617991D02*
X99305814Y-101698803D01*
X99305814Y-101698803D02*
X99225002Y-101725741D01*
X99225002Y-101725741D02*
X99117253Y-101725741D01*
X99117253Y-101725741D02*
X99009503Y-101671866D01*
X99009503Y-101671866D02*
X98955628Y-101617991D01*
X98955628Y-101617991D02*
X98901753Y-101510241D01*
X98901753Y-101510241D02*
X98901753Y-101456367D01*
X98901753Y-101456367D02*
X99090315Y-101267805D01*
X99090315Y-101267805D02*
X99198065Y-101375554D01*
X98605442Y-101267805D02*
X99171127Y-100702119D01*
X99171127Y-100702119D02*
X98282193Y-100944556D01*
X98282193Y-100944556D02*
X98847879Y-100378871D01*
X98012819Y-100675182D02*
X98578505Y-100109497D01*
X98578505Y-100109497D02*
X98443818Y-99974810D01*
X98443818Y-99974810D02*
X98336068Y-99920935D01*
X98336068Y-99920935D02*
X98228319Y-99920935D01*
X98228319Y-99920935D02*
X98147506Y-99947872D01*
X98147506Y-99947872D02*
X98012819Y-100028685D01*
X98012819Y-100028685D02*
X97932007Y-100109497D01*
X97932007Y-100109497D02*
X97851195Y-100244184D01*
X97851195Y-100244184D02*
X97824258Y-100324996D01*
X97824258Y-100324996D02*
X97824258Y-100432746D01*
X97824258Y-100432746D02*
X97878132Y-100540495D01*
X97878132Y-100540495D02*
X98012819Y-100675182D01*
X125510001Y-103780868D02*
X125590814Y-103807805D01*
X125590814Y-103807805D02*
X125671626Y-103888618D01*
X125671626Y-103888618D02*
X125725501Y-103996367D01*
X125725501Y-103996367D02*
X125725501Y-104104117D01*
X125725501Y-104104117D02*
X125698563Y-104184929D01*
X125698563Y-104184929D02*
X125617751Y-104319616D01*
X125617751Y-104319616D02*
X125536939Y-104400428D01*
X125536939Y-104400428D02*
X125402252Y-104481241D01*
X125402252Y-104481241D02*
X125321439Y-104508178D01*
X125321439Y-104508178D02*
X125213690Y-104508178D01*
X125213690Y-104508178D02*
X125105940Y-104454303D01*
X125105940Y-104454303D02*
X125052065Y-104400428D01*
X125052065Y-104400428D02*
X124998191Y-104292679D01*
X124998191Y-104292679D02*
X124998191Y-104238804D01*
X124998191Y-104238804D02*
X125186752Y-104050242D01*
X125186752Y-104050242D02*
X125294502Y-104157992D01*
X124701879Y-104050242D02*
X125267565Y-103484557D01*
X125267565Y-103484557D02*
X125052065Y-103269057D01*
X125052065Y-103269057D02*
X124971253Y-103242120D01*
X124971253Y-103242120D02*
X124917378Y-103242120D01*
X124917378Y-103242120D02*
X124836566Y-103269057D01*
X124836566Y-103269057D02*
X124755754Y-103349870D01*
X124755754Y-103349870D02*
X124728817Y-103430682D01*
X124728817Y-103430682D02*
X124728817Y-103484557D01*
X124728817Y-103484557D02*
X124755754Y-103565369D01*
X124755754Y-103565369D02*
X124971253Y-103780868D01*
X123839882Y-103188245D02*
X124163131Y-103511494D01*
X124001507Y-103349870D02*
X124567192Y-102784184D01*
X124567192Y-102784184D02*
X124540255Y-102918871D01*
X124540255Y-102918871D02*
X124540255Y-103026621D01*
X124540255Y-103026621D02*
X124567192Y-103107433D01*
X124055381Y-102272373D02*
X124001507Y-102218499D01*
X124001507Y-102218499D02*
X123920694Y-102191561D01*
X123920694Y-102191561D02*
X123866820Y-102191561D01*
X123866820Y-102191561D02*
X123786007Y-102218499D01*
X123786007Y-102218499D02*
X123651320Y-102299311D01*
X123651320Y-102299311D02*
X123516633Y-102433998D01*
X123516633Y-102433998D02*
X123435821Y-102568685D01*
X123435821Y-102568685D02*
X123408884Y-102649497D01*
X123408884Y-102649497D02*
X123408884Y-102703372D01*
X123408884Y-102703372D02*
X123435821Y-102784184D01*
X123435821Y-102784184D02*
X123489696Y-102838059D01*
X123489696Y-102838059D02*
X123570508Y-102864996D01*
X123570508Y-102864996D02*
X123624383Y-102864996D01*
X123624383Y-102864996D02*
X123705195Y-102838059D01*
X123705195Y-102838059D02*
X123839882Y-102757247D01*
X123839882Y-102757247D02*
X123974569Y-102622560D01*
X123974569Y-102622560D02*
X124055381Y-102487873D01*
X124055381Y-102487873D02*
X124082319Y-102407060D01*
X124082319Y-102407060D02*
X124082319Y-102353186D01*
X124082319Y-102353186D02*
X124055381Y-102272373D01*
X125013564Y-75598431D02*
X125094376Y-75625368D01*
X125094376Y-75625368D02*
X125175188Y-75706180D01*
X125175188Y-75706180D02*
X125229063Y-75813930D01*
X125229063Y-75813930D02*
X125229063Y-75921680D01*
X125229063Y-75921680D02*
X125202126Y-76002492D01*
X125202126Y-76002492D02*
X125121314Y-76137179D01*
X125121314Y-76137179D02*
X125040501Y-76217991D01*
X125040501Y-76217991D02*
X124905814Y-76298803D01*
X124905814Y-76298803D02*
X124825002Y-76325741D01*
X124825002Y-76325741D02*
X124717253Y-76325741D01*
X124717253Y-76325741D02*
X124609503Y-76271866D01*
X124609503Y-76271866D02*
X124555628Y-76217991D01*
X124555628Y-76217991D02*
X124501753Y-76110241D01*
X124501753Y-76110241D02*
X124501753Y-76056367D01*
X124501753Y-76056367D02*
X124690315Y-75867805D01*
X124690315Y-75867805D02*
X124798065Y-75975554D01*
X124205442Y-75867805D02*
X124771127Y-75302119D01*
X124771127Y-75302119D02*
X123882193Y-75544556D01*
X123882193Y-75544556D02*
X124447879Y-74978871D01*
X123612819Y-75275182D02*
X124178505Y-74709497D01*
X124178505Y-74709497D02*
X124043818Y-74574810D01*
X124043818Y-74574810D02*
X123936068Y-74520935D01*
X123936068Y-74520935D02*
X123828319Y-74520935D01*
X123828319Y-74520935D02*
X123747506Y-74547872D01*
X123747506Y-74547872D02*
X123612819Y-74628685D01*
X123612819Y-74628685D02*
X123532007Y-74709497D01*
X123532007Y-74709497D02*
X123451195Y-74844184D01*
X123451195Y-74844184D02*
X123424258Y-74924996D01*
X123424258Y-74924996D02*
X123424258Y-75032746D01*
X123424258Y-75032746D02*
X123478132Y-75140495D01*
X123478132Y-75140495D02*
X123612819Y-75275182D01*
X125013564Y-100998431D02*
X125094376Y-101025368D01*
X125094376Y-101025368D02*
X125175188Y-101106180D01*
X125175188Y-101106180D02*
X125229063Y-101213930D01*
X125229063Y-101213930D02*
X125229063Y-101321680D01*
X125229063Y-101321680D02*
X125202126Y-101402492D01*
X125202126Y-101402492D02*
X125121314Y-101537179D01*
X125121314Y-101537179D02*
X125040501Y-101617991D01*
X125040501Y-101617991D02*
X124905814Y-101698803D01*
X124905814Y-101698803D02*
X124825002Y-101725741D01*
X124825002Y-101725741D02*
X124717253Y-101725741D01*
X124717253Y-101725741D02*
X124609503Y-101671866D01*
X124609503Y-101671866D02*
X124555628Y-101617991D01*
X124555628Y-101617991D02*
X124501753Y-101510241D01*
X124501753Y-101510241D02*
X124501753Y-101456367D01*
X124501753Y-101456367D02*
X124690315Y-101267805D01*
X124690315Y-101267805D02*
X124798065Y-101375554D01*
X124205442Y-101267805D02*
X124771127Y-100702119D01*
X124771127Y-100702119D02*
X123882193Y-100944556D01*
X123882193Y-100944556D02*
X124447879Y-100378871D01*
X123612819Y-100675182D02*
X124178505Y-100109497D01*
X124178505Y-100109497D02*
X124043818Y-99974810D01*
X124043818Y-99974810D02*
X123936068Y-99920935D01*
X123936068Y-99920935D02*
X123828319Y-99920935D01*
X123828319Y-99920935D02*
X123747506Y-99947872D01*
X123747506Y-99947872D02*
X123612819Y-100028685D01*
X123612819Y-100028685D02*
X123532007Y-100109497D01*
X123532007Y-100109497D02*
X123451195Y-100244184D01*
X123451195Y-100244184D02*
X123424258Y-100324996D01*
X123424258Y-100324996D02*
X123424258Y-100432746D01*
X123424258Y-100432746D02*
X123478132Y-100540495D01*
X123478132Y-100540495D02*
X123612819Y-100675182D01*
X125510001Y-119020868D02*
X125590814Y-119047805D01*
X125590814Y-119047805D02*
X125671626Y-119128618D01*
X125671626Y-119128618D02*
X125725501Y-119236367D01*
X125725501Y-119236367D02*
X125725501Y-119344117D01*
X125725501Y-119344117D02*
X125698563Y-119424929D01*
X125698563Y-119424929D02*
X125617751Y-119559616D01*
X125617751Y-119559616D02*
X125536939Y-119640428D01*
X125536939Y-119640428D02*
X125402252Y-119721241D01*
X125402252Y-119721241D02*
X125321439Y-119748178D01*
X125321439Y-119748178D02*
X125213690Y-119748178D01*
X125213690Y-119748178D02*
X125105940Y-119694303D01*
X125105940Y-119694303D02*
X125052065Y-119640428D01*
X125052065Y-119640428D02*
X124998191Y-119532679D01*
X124998191Y-119532679D02*
X124998191Y-119478804D01*
X124998191Y-119478804D02*
X125186752Y-119290242D01*
X125186752Y-119290242D02*
X125294502Y-119397992D01*
X124701879Y-119290242D02*
X125267565Y-118724557D01*
X125267565Y-118724557D02*
X125052065Y-118509057D01*
X125052065Y-118509057D02*
X124971253Y-118482120D01*
X124971253Y-118482120D02*
X124917378Y-118482120D01*
X124917378Y-118482120D02*
X124836566Y-118509057D01*
X124836566Y-118509057D02*
X124755754Y-118589870D01*
X124755754Y-118589870D02*
X124728817Y-118670682D01*
X124728817Y-118670682D02*
X124728817Y-118724557D01*
X124728817Y-118724557D02*
X124755754Y-118805369D01*
X124755754Y-118805369D02*
X124971253Y-119020868D01*
X123839882Y-118428245D02*
X124163131Y-118751494D01*
X124001507Y-118589870D02*
X124567192Y-118024184D01*
X124567192Y-118024184D02*
X124540255Y-118158871D01*
X124540255Y-118158871D02*
X124540255Y-118266621D01*
X124540255Y-118266621D02*
X124567192Y-118347433D01*
X123893757Y-117350749D02*
X124163131Y-117620123D01*
X124163131Y-117620123D02*
X123920694Y-117916434D01*
X123920694Y-117916434D02*
X123920694Y-117862560D01*
X123920694Y-117862560D02*
X123893757Y-117781747D01*
X123893757Y-117781747D02*
X123759070Y-117647060D01*
X123759070Y-117647060D02*
X123678258Y-117620123D01*
X123678258Y-117620123D02*
X123624383Y-117620123D01*
X123624383Y-117620123D02*
X123543571Y-117647060D01*
X123543571Y-117647060D02*
X123408884Y-117781747D01*
X123408884Y-117781747D02*
X123381946Y-117862560D01*
X123381946Y-117862560D02*
X123381946Y-117916434D01*
X123381946Y-117916434D02*
X123408884Y-117997247D01*
X123408884Y-117997247D02*
X123543571Y-118131934D01*
X123543571Y-118131934D02*
X123624383Y-118158871D01*
X123624383Y-118158871D02*
X123678258Y-118158871D01*
X119009524Y-121024200D02*
X118895238Y-121062295D01*
X118895238Y-121062295D02*
X118704762Y-121062295D01*
X118704762Y-121062295D02*
X118628571Y-121024200D01*
X118628571Y-121024200D02*
X118590476Y-120986104D01*
X118590476Y-120986104D02*
X118552381Y-120909914D01*
X118552381Y-120909914D02*
X118552381Y-120833723D01*
X118552381Y-120833723D02*
X118590476Y-120757533D01*
X118590476Y-120757533D02*
X118628571Y-120719438D01*
X118628571Y-120719438D02*
X118704762Y-120681342D01*
X118704762Y-120681342D02*
X118857143Y-120643247D01*
X118857143Y-120643247D02*
X118933333Y-120605152D01*
X118933333Y-120605152D02*
X118971428Y-120567057D01*
X118971428Y-120567057D02*
X119009524Y-120490866D01*
X119009524Y-120490866D02*
X119009524Y-120414676D01*
X119009524Y-120414676D02*
X118971428Y-120338485D01*
X118971428Y-120338485D02*
X118933333Y-120300390D01*
X118933333Y-120300390D02*
X118857143Y-120262295D01*
X118857143Y-120262295D02*
X118666666Y-120262295D01*
X118666666Y-120262295D02*
X118552381Y-120300390D01*
X118285714Y-120262295D02*
X118095238Y-121062295D01*
X118095238Y-121062295D02*
X117942857Y-120490866D01*
X117942857Y-120490866D02*
X117790476Y-121062295D01*
X117790476Y-121062295D02*
X117600000Y-120262295D01*
X116838094Y-120986104D02*
X116876190Y-121024200D01*
X116876190Y-121024200D02*
X116990475Y-121062295D01*
X116990475Y-121062295D02*
X117066666Y-121062295D01*
X117066666Y-121062295D02*
X117180952Y-121024200D01*
X117180952Y-121024200D02*
X117257142Y-120948009D01*
X117257142Y-120948009D02*
X117295237Y-120871819D01*
X117295237Y-120871819D02*
X117333333Y-120719438D01*
X117333333Y-120719438D02*
X117333333Y-120605152D01*
X117333333Y-120605152D02*
X117295237Y-120452771D01*
X117295237Y-120452771D02*
X117257142Y-120376580D01*
X117257142Y-120376580D02*
X117180952Y-120300390D01*
X117180952Y-120300390D02*
X117066666Y-120262295D01*
X117066666Y-120262295D02*
X116990475Y-120262295D01*
X116990475Y-120262295D02*
X116876190Y-120300390D01*
X116876190Y-120300390D02*
X116838094Y-120338485D01*
X116114285Y-121062295D02*
X116495237Y-121062295D01*
X116495237Y-121062295D02*
X116495237Y-120262295D01*
X115847618Y-121062295D02*
X115847618Y-120262295D01*
X115390475Y-121062295D02*
X115733333Y-120605152D01*
X115390475Y-120262295D02*
X115847618Y-120719438D01*
X99413564Y-113698431D02*
X99494376Y-113725368D01*
X99494376Y-113725368D02*
X99575188Y-113806180D01*
X99575188Y-113806180D02*
X99629063Y-113913930D01*
X99629063Y-113913930D02*
X99629063Y-114021680D01*
X99629063Y-114021680D02*
X99602126Y-114102492D01*
X99602126Y-114102492D02*
X99521314Y-114237179D01*
X99521314Y-114237179D02*
X99440501Y-114317991D01*
X99440501Y-114317991D02*
X99305814Y-114398803D01*
X99305814Y-114398803D02*
X99225002Y-114425741D01*
X99225002Y-114425741D02*
X99117253Y-114425741D01*
X99117253Y-114425741D02*
X99009503Y-114371866D01*
X99009503Y-114371866D02*
X98955628Y-114317991D01*
X98955628Y-114317991D02*
X98901753Y-114210241D01*
X98901753Y-114210241D02*
X98901753Y-114156367D01*
X98901753Y-114156367D02*
X99090315Y-113967805D01*
X99090315Y-113967805D02*
X99198065Y-114075554D01*
X98605442Y-113967805D02*
X99171127Y-113402119D01*
X99171127Y-113402119D02*
X98282193Y-113644556D01*
X98282193Y-113644556D02*
X98847879Y-113078871D01*
X98012819Y-113375182D02*
X98578505Y-112809497D01*
X98578505Y-112809497D02*
X98443818Y-112674810D01*
X98443818Y-112674810D02*
X98336068Y-112620935D01*
X98336068Y-112620935D02*
X98228319Y-112620935D01*
X98228319Y-112620935D02*
X98147506Y-112647872D01*
X98147506Y-112647872D02*
X98012819Y-112728685D01*
X98012819Y-112728685D02*
X97932007Y-112809497D01*
X97932007Y-112809497D02*
X97851195Y-112944184D01*
X97851195Y-112944184D02*
X97824258Y-113024996D01*
X97824258Y-113024996D02*
X97824258Y-113132746D01*
X97824258Y-113132746D02*
X97878132Y-113240495D01*
X97878132Y-113240495D02*
X98012819Y-113375182D01*
X99348126Y-89241240D02*
X99078752Y-88971866D01*
X99240376Y-89456739D02*
X99617500Y-88702492D01*
X99617500Y-88702492D02*
X98863253Y-89079615D01*
X98917128Y-88055994D02*
X98997940Y-88082932D01*
X98997940Y-88082932D02*
X99078752Y-88163744D01*
X99078752Y-88163744D02*
X99132627Y-88271494D01*
X99132627Y-88271494D02*
X99132627Y-88379243D01*
X99132627Y-88379243D02*
X99105689Y-88460055D01*
X99105689Y-88460055D02*
X99024877Y-88594742D01*
X99024877Y-88594742D02*
X98944065Y-88675555D01*
X98944065Y-88675555D02*
X98809378Y-88756367D01*
X98809378Y-88756367D02*
X98728566Y-88783304D01*
X98728566Y-88783304D02*
X98620816Y-88783304D01*
X98620816Y-88783304D02*
X98513067Y-88729429D01*
X98513067Y-88729429D02*
X98459192Y-88675555D01*
X98459192Y-88675555D02*
X98405317Y-88567805D01*
X98405317Y-88567805D02*
X98405317Y-88513930D01*
X98405317Y-88513930D02*
X98593879Y-88325368D01*
X98593879Y-88325368D02*
X98701628Y-88433118D01*
X98109006Y-88325368D02*
X98674691Y-87759683D01*
X98674691Y-87759683D02*
X97785757Y-88002120D01*
X97785757Y-88002120D02*
X98351442Y-87436434D01*
X97516383Y-87732746D02*
X98082068Y-87167060D01*
X98082068Y-87167060D02*
X97947381Y-87032373D01*
X97947381Y-87032373D02*
X97839632Y-86978498D01*
X97839632Y-86978498D02*
X97731882Y-86978498D01*
X97731882Y-86978498D02*
X97651070Y-87005436D01*
X97651070Y-87005436D02*
X97516383Y-87086248D01*
X97516383Y-87086248D02*
X97435571Y-87167060D01*
X97435571Y-87167060D02*
X97354758Y-87301747D01*
X97354758Y-87301747D02*
X97327821Y-87382560D01*
X97327821Y-87382560D02*
X97327821Y-87490309D01*
X97327821Y-87490309D02*
X97381696Y-87598059D01*
X97381696Y-87598059D02*
X97516383Y-87732746D01*
X99402001Y-106320868D02*
X99482814Y-106347805D01*
X99482814Y-106347805D02*
X99563626Y-106428618D01*
X99563626Y-106428618D02*
X99617501Y-106536367D01*
X99617501Y-106536367D02*
X99617501Y-106644117D01*
X99617501Y-106644117D02*
X99590563Y-106724929D01*
X99590563Y-106724929D02*
X99509751Y-106859616D01*
X99509751Y-106859616D02*
X99428939Y-106940428D01*
X99428939Y-106940428D02*
X99294252Y-107021241D01*
X99294252Y-107021241D02*
X99213439Y-107048178D01*
X99213439Y-107048178D02*
X99105690Y-107048178D01*
X99105690Y-107048178D02*
X98997940Y-106994303D01*
X98997940Y-106994303D02*
X98944065Y-106940428D01*
X98944065Y-106940428D02*
X98890191Y-106832679D01*
X98890191Y-106832679D02*
X98890191Y-106778804D01*
X98890191Y-106778804D02*
X99078752Y-106590242D01*
X99078752Y-106590242D02*
X99186502Y-106697992D01*
X98593879Y-106590242D02*
X99159565Y-106024557D01*
X99159565Y-106024557D02*
X98944065Y-105809057D01*
X98944065Y-105809057D02*
X98863253Y-105782120D01*
X98863253Y-105782120D02*
X98809378Y-105782120D01*
X98809378Y-105782120D02*
X98728566Y-105809057D01*
X98728566Y-105809057D02*
X98647754Y-105889870D01*
X98647754Y-105889870D02*
X98620817Y-105970682D01*
X98620817Y-105970682D02*
X98620817Y-106024557D01*
X98620817Y-106024557D02*
X98647754Y-106105369D01*
X98647754Y-106105369D02*
X98863253Y-106320868D01*
X98566942Y-105539683D02*
X98566942Y-105485809D01*
X98566942Y-105485809D02*
X98540004Y-105404996D01*
X98540004Y-105404996D02*
X98405317Y-105270309D01*
X98405317Y-105270309D02*
X98324505Y-105243372D01*
X98324505Y-105243372D02*
X98270630Y-105243372D01*
X98270630Y-105243372D02*
X98189818Y-105270309D01*
X98189818Y-105270309D02*
X98135943Y-105324184D01*
X98135943Y-105324184D02*
X98082069Y-105431934D01*
X98082069Y-105431934D02*
X98082069Y-106078431D01*
X98082069Y-106078431D02*
X97731882Y-105728245D01*
X97947381Y-104812373D02*
X97893507Y-104758499D01*
X97893507Y-104758499D02*
X97812694Y-104731561D01*
X97812694Y-104731561D02*
X97758820Y-104731561D01*
X97758820Y-104731561D02*
X97678007Y-104758499D01*
X97678007Y-104758499D02*
X97543320Y-104839311D01*
X97543320Y-104839311D02*
X97408633Y-104973998D01*
X97408633Y-104973998D02*
X97327821Y-105108685D01*
X97327821Y-105108685D02*
X97300884Y-105189497D01*
X97300884Y-105189497D02*
X97300884Y-105243372D01*
X97300884Y-105243372D02*
X97327821Y-105324184D01*
X97327821Y-105324184D02*
X97381696Y-105378059D01*
X97381696Y-105378059D02*
X97462508Y-105404996D01*
X97462508Y-105404996D02*
X97516383Y-105404996D01*
X97516383Y-105404996D02*
X97597195Y-105378059D01*
X97597195Y-105378059D02*
X97731882Y-105297247D01*
X97731882Y-105297247D02*
X97866569Y-105162560D01*
X97866569Y-105162560D02*
X97947381Y-105027873D01*
X97947381Y-105027873D02*
X97974319Y-104947060D01*
X97974319Y-104947060D02*
X97974319Y-104893186D01*
X97974319Y-104893186D02*
X97947381Y-104812373D01*
X125510001Y-111400868D02*
X125590814Y-111427805D01*
X125590814Y-111427805D02*
X125671626Y-111508618D01*
X125671626Y-111508618D02*
X125725501Y-111616367D01*
X125725501Y-111616367D02*
X125725501Y-111724117D01*
X125725501Y-111724117D02*
X125698563Y-111804929D01*
X125698563Y-111804929D02*
X125617751Y-111939616D01*
X125617751Y-111939616D02*
X125536939Y-112020428D01*
X125536939Y-112020428D02*
X125402252Y-112101241D01*
X125402252Y-112101241D02*
X125321439Y-112128178D01*
X125321439Y-112128178D02*
X125213690Y-112128178D01*
X125213690Y-112128178D02*
X125105940Y-112074303D01*
X125105940Y-112074303D02*
X125052065Y-112020428D01*
X125052065Y-112020428D02*
X124998191Y-111912679D01*
X124998191Y-111912679D02*
X124998191Y-111858804D01*
X124998191Y-111858804D02*
X125186752Y-111670242D01*
X125186752Y-111670242D02*
X125294502Y-111777992D01*
X124701879Y-111670242D02*
X125267565Y-111104557D01*
X125267565Y-111104557D02*
X125052065Y-110889057D01*
X125052065Y-110889057D02*
X124971253Y-110862120D01*
X124971253Y-110862120D02*
X124917378Y-110862120D01*
X124917378Y-110862120D02*
X124836566Y-110889057D01*
X124836566Y-110889057D02*
X124755754Y-110969870D01*
X124755754Y-110969870D02*
X124728817Y-111050682D01*
X124728817Y-111050682D02*
X124728817Y-111104557D01*
X124728817Y-111104557D02*
X124755754Y-111185369D01*
X124755754Y-111185369D02*
X124971253Y-111400868D01*
X123839882Y-110808245D02*
X124163131Y-111131494D01*
X124001507Y-110969870D02*
X124567192Y-110404184D01*
X124567192Y-110404184D02*
X124540255Y-110538871D01*
X124540255Y-110538871D02*
X124540255Y-110646621D01*
X124540255Y-110646621D02*
X124567192Y-110727433D01*
X124217006Y-110053998D02*
X123866820Y-109703812D01*
X123866820Y-109703812D02*
X123839882Y-110107873D01*
X123839882Y-110107873D02*
X123759070Y-110027060D01*
X123759070Y-110027060D02*
X123678258Y-110000123D01*
X123678258Y-110000123D02*
X123624383Y-110000123D01*
X123624383Y-110000123D02*
X123543571Y-110027060D01*
X123543571Y-110027060D02*
X123408884Y-110161747D01*
X123408884Y-110161747D02*
X123381946Y-110242560D01*
X123381946Y-110242560D02*
X123381946Y-110296434D01*
X123381946Y-110296434D02*
X123408884Y-110377247D01*
X123408884Y-110377247D02*
X123570508Y-110538871D01*
X123570508Y-110538871D02*
X123651320Y-110565808D01*
X123651320Y-110565808D02*
X123705195Y-110565808D01*
X99402001Y-93620868D02*
X99482814Y-93647805D01*
X99482814Y-93647805D02*
X99563626Y-93728618D01*
X99563626Y-93728618D02*
X99617501Y-93836367D01*
X99617501Y-93836367D02*
X99617501Y-93944117D01*
X99617501Y-93944117D02*
X99590563Y-94024929D01*
X99590563Y-94024929D02*
X99509751Y-94159616D01*
X99509751Y-94159616D02*
X99428939Y-94240428D01*
X99428939Y-94240428D02*
X99294252Y-94321241D01*
X99294252Y-94321241D02*
X99213439Y-94348178D01*
X99213439Y-94348178D02*
X99105690Y-94348178D01*
X99105690Y-94348178D02*
X98997940Y-94294303D01*
X98997940Y-94294303D02*
X98944065Y-94240428D01*
X98944065Y-94240428D02*
X98890191Y-94132679D01*
X98890191Y-94132679D02*
X98890191Y-94078804D01*
X98890191Y-94078804D02*
X99078752Y-93890242D01*
X99078752Y-93890242D02*
X99186502Y-93997992D01*
X98593879Y-93890242D02*
X99159565Y-93324557D01*
X99159565Y-93324557D02*
X98944065Y-93109057D01*
X98944065Y-93109057D02*
X98863253Y-93082120D01*
X98863253Y-93082120D02*
X98809378Y-93082120D01*
X98809378Y-93082120D02*
X98728566Y-93109057D01*
X98728566Y-93109057D02*
X98647754Y-93189870D01*
X98647754Y-93189870D02*
X98620817Y-93270682D01*
X98620817Y-93270682D02*
X98620817Y-93324557D01*
X98620817Y-93324557D02*
X98647754Y-93405369D01*
X98647754Y-93405369D02*
X98863253Y-93620868D01*
X98566942Y-92839683D02*
X98566942Y-92785809D01*
X98566942Y-92785809D02*
X98540004Y-92704996D01*
X98540004Y-92704996D02*
X98405317Y-92570309D01*
X98405317Y-92570309D02*
X98324505Y-92543372D01*
X98324505Y-92543372D02*
X98270630Y-92543372D01*
X98270630Y-92543372D02*
X98189818Y-92570309D01*
X98189818Y-92570309D02*
X98135943Y-92624184D01*
X98135943Y-92624184D02*
X98082069Y-92731934D01*
X98082069Y-92731934D02*
X98082069Y-93378431D01*
X98082069Y-93378431D02*
X97731882Y-93028245D01*
X97812694Y-91977686D02*
X97920444Y-92085436D01*
X97920444Y-92085436D02*
X97947381Y-92166248D01*
X97947381Y-92166248D02*
X97947381Y-92220123D01*
X97947381Y-92220123D02*
X97920444Y-92354810D01*
X97920444Y-92354810D02*
X97839632Y-92489497D01*
X97839632Y-92489497D02*
X97624133Y-92704996D01*
X97624133Y-92704996D02*
X97543320Y-92731934D01*
X97543320Y-92731934D02*
X97489446Y-92731934D01*
X97489446Y-92731934D02*
X97408633Y-92704996D01*
X97408633Y-92704996D02*
X97300884Y-92597247D01*
X97300884Y-92597247D02*
X97273946Y-92516434D01*
X97273946Y-92516434D02*
X97273946Y-92462560D01*
X97273946Y-92462560D02*
X97300884Y-92381747D01*
X97300884Y-92381747D02*
X97435571Y-92247060D01*
X97435571Y-92247060D02*
X97516383Y-92220123D01*
X97516383Y-92220123D02*
X97570258Y-92220123D01*
X97570258Y-92220123D02*
X97651070Y-92247060D01*
X97651070Y-92247060D02*
X97758820Y-92354810D01*
X97758820Y-92354810D02*
X97785757Y-92435622D01*
X97785757Y-92435622D02*
X97785757Y-92489497D01*
X97785757Y-92489497D02*
X97758820Y-92570309D01*
X99344935Y-84034049D02*
X99075561Y-83764675D01*
X99237186Y-84249549D02*
X99614309Y-83495301D01*
X99614309Y-83495301D02*
X98860062Y-83872425D01*
X98671500Y-83683863D02*
X99237186Y-83118178D01*
X99237186Y-83118178D02*
X99102499Y-82983491D01*
X99102499Y-82983491D02*
X98994749Y-82929616D01*
X98994749Y-82929616D02*
X98887000Y-82929616D01*
X98887000Y-82929616D02*
X98806187Y-82956553D01*
X98806187Y-82956553D02*
X98671500Y-83037366D01*
X98671500Y-83037366D02*
X98590688Y-83118178D01*
X98590688Y-83118178D02*
X98509876Y-83252865D01*
X98509876Y-83252865D02*
X98482939Y-83333677D01*
X98482939Y-83333677D02*
X98482939Y-83441427D01*
X98482939Y-83441427D02*
X98536813Y-83549176D01*
X98536813Y-83549176D02*
X98671500Y-83683863D01*
X97836441Y-82741054D02*
X97836441Y-82794929D01*
X97836441Y-82794929D02*
X97890316Y-82902679D01*
X97890316Y-82902679D02*
X97944191Y-82956553D01*
X97944191Y-82956553D02*
X98051940Y-83010428D01*
X98051940Y-83010428D02*
X98159690Y-83010428D01*
X98159690Y-83010428D02*
X98240502Y-82983491D01*
X98240502Y-82983491D02*
X98375189Y-82902679D01*
X98375189Y-82902679D02*
X98456001Y-82821866D01*
X98456001Y-82821866D02*
X98536813Y-82687179D01*
X98536813Y-82687179D02*
X98563751Y-82606367D01*
X98563751Y-82606367D02*
X98563751Y-82498618D01*
X98563751Y-82498618D02*
X98509876Y-82390868D01*
X98509876Y-82390868D02*
X98456001Y-82336993D01*
X98456001Y-82336993D02*
X98348252Y-82283118D01*
X98348252Y-82283118D02*
X98294377Y-82283118D01*
X97620942Y-82741054D02*
X97189943Y-82310056D01*
X97755629Y-81636621D02*
X97001381Y-82013744D01*
X97001381Y-82013744D02*
X97378505Y-81259497D01*
X96301009Y-81313372D02*
X96758945Y-81232560D01*
X96624258Y-81636621D02*
X97189943Y-81070935D01*
X97189943Y-81070935D02*
X96974444Y-80855436D01*
X96974444Y-80855436D02*
X96893632Y-80828499D01*
X96893632Y-80828499D02*
X96839757Y-80828499D01*
X96839757Y-80828499D02*
X96758945Y-80855436D01*
X96758945Y-80855436D02*
X96678133Y-80936248D01*
X96678133Y-80936248D02*
X96651195Y-81017061D01*
X96651195Y-81017061D02*
X96651195Y-81070935D01*
X96651195Y-81070935D02*
X96678133Y-81151748D01*
X96678133Y-81151748D02*
X96893632Y-81367247D01*
X96354884Y-80774624D02*
X96166322Y-80586062D01*
X95789199Y-80801561D02*
X96058573Y-81070935D01*
X96058573Y-81070935D02*
X96624258Y-80505250D01*
X96624258Y-80505250D02*
X96354884Y-80235876D01*
X95654511Y-80074251D02*
X95843073Y-80262813D01*
X95546762Y-80559125D02*
X96112447Y-79993439D01*
X96112447Y-79993439D02*
X95843073Y-79724065D01*
X99402001Y-103790868D02*
X99482814Y-103817805D01*
X99482814Y-103817805D02*
X99563626Y-103898618D01*
X99563626Y-103898618D02*
X99617501Y-104006367D01*
X99617501Y-104006367D02*
X99617501Y-104114117D01*
X99617501Y-104114117D02*
X99590563Y-104194929D01*
X99590563Y-104194929D02*
X99509751Y-104329616D01*
X99509751Y-104329616D02*
X99428939Y-104410428D01*
X99428939Y-104410428D02*
X99294252Y-104491241D01*
X99294252Y-104491241D02*
X99213439Y-104518178D01*
X99213439Y-104518178D02*
X99105690Y-104518178D01*
X99105690Y-104518178D02*
X98997940Y-104464303D01*
X98997940Y-104464303D02*
X98944065Y-104410428D01*
X98944065Y-104410428D02*
X98890191Y-104302679D01*
X98890191Y-104302679D02*
X98890191Y-104248804D01*
X98890191Y-104248804D02*
X99078752Y-104060242D01*
X99078752Y-104060242D02*
X99186502Y-104167992D01*
X98593879Y-104060242D02*
X99159565Y-103494557D01*
X99159565Y-103494557D02*
X98944065Y-103279057D01*
X98944065Y-103279057D02*
X98863253Y-103252120D01*
X98863253Y-103252120D02*
X98809378Y-103252120D01*
X98809378Y-103252120D02*
X98728566Y-103279057D01*
X98728566Y-103279057D02*
X98647754Y-103359870D01*
X98647754Y-103359870D02*
X98620817Y-103440682D01*
X98620817Y-103440682D02*
X98620817Y-103494557D01*
X98620817Y-103494557D02*
X98647754Y-103575369D01*
X98647754Y-103575369D02*
X98863253Y-103790868D01*
X98566942Y-103009683D02*
X98566942Y-102955809D01*
X98566942Y-102955809D02*
X98540004Y-102874996D01*
X98540004Y-102874996D02*
X98405317Y-102740309D01*
X98405317Y-102740309D02*
X98324505Y-102713372D01*
X98324505Y-102713372D02*
X98270630Y-102713372D01*
X98270630Y-102713372D02*
X98189818Y-102740309D01*
X98189818Y-102740309D02*
X98135943Y-102794184D01*
X98135943Y-102794184D02*
X98082069Y-102901934D01*
X98082069Y-102901934D02*
X98082069Y-103548431D01*
X98082069Y-103548431D02*
X97731882Y-103198245D01*
X97193134Y-102659497D02*
X97516383Y-102982746D01*
X97354759Y-102821121D02*
X97920444Y-102255436D01*
X97920444Y-102255436D02*
X97893507Y-102390123D01*
X97893507Y-102390123D02*
X97893507Y-102497873D01*
X97893507Y-102497873D02*
X97920444Y-102578685D01*
X99413564Y-75598431D02*
X99494376Y-75625368D01*
X99494376Y-75625368D02*
X99575188Y-75706180D01*
X99575188Y-75706180D02*
X99629063Y-75813930D01*
X99629063Y-75813930D02*
X99629063Y-75921680D01*
X99629063Y-75921680D02*
X99602126Y-76002492D01*
X99602126Y-76002492D02*
X99521314Y-76137179D01*
X99521314Y-76137179D02*
X99440501Y-76217991D01*
X99440501Y-76217991D02*
X99305814Y-76298803D01*
X99305814Y-76298803D02*
X99225002Y-76325741D01*
X99225002Y-76325741D02*
X99117253Y-76325741D01*
X99117253Y-76325741D02*
X99009503Y-76271866D01*
X99009503Y-76271866D02*
X98955628Y-76217991D01*
X98955628Y-76217991D02*
X98901753Y-76110241D01*
X98901753Y-76110241D02*
X98901753Y-76056367D01*
X98901753Y-76056367D02*
X99090315Y-75867805D01*
X99090315Y-75867805D02*
X99198065Y-75975554D01*
X98605442Y-75867805D02*
X99171127Y-75302119D01*
X99171127Y-75302119D02*
X98282193Y-75544556D01*
X98282193Y-75544556D02*
X98847879Y-74978871D01*
X98012819Y-75275182D02*
X98578505Y-74709497D01*
X98578505Y-74709497D02*
X98443818Y-74574810D01*
X98443818Y-74574810D02*
X98336068Y-74520935D01*
X98336068Y-74520935D02*
X98228319Y-74520935D01*
X98228319Y-74520935D02*
X98147506Y-74547872D01*
X98147506Y-74547872D02*
X98012819Y-74628685D01*
X98012819Y-74628685D02*
X97932007Y-74709497D01*
X97932007Y-74709497D02*
X97851195Y-74844184D01*
X97851195Y-74844184D02*
X97824258Y-74924996D01*
X97824258Y-74924996D02*
X97824258Y-75032746D01*
X97824258Y-75032746D02*
X97878132Y-75140495D01*
X97878132Y-75140495D02*
X98012819Y-75275182D01*
X99402001Y-91090868D02*
X99482814Y-91117805D01*
X99482814Y-91117805D02*
X99563626Y-91198618D01*
X99563626Y-91198618D02*
X99617501Y-91306367D01*
X99617501Y-91306367D02*
X99617501Y-91414117D01*
X99617501Y-91414117D02*
X99590563Y-91494929D01*
X99590563Y-91494929D02*
X99509751Y-91629616D01*
X99509751Y-91629616D02*
X99428939Y-91710428D01*
X99428939Y-91710428D02*
X99294252Y-91791241D01*
X99294252Y-91791241D02*
X99213439Y-91818178D01*
X99213439Y-91818178D02*
X99105690Y-91818178D01*
X99105690Y-91818178D02*
X98997940Y-91764303D01*
X98997940Y-91764303D02*
X98944065Y-91710428D01*
X98944065Y-91710428D02*
X98890191Y-91602679D01*
X98890191Y-91602679D02*
X98890191Y-91548804D01*
X98890191Y-91548804D02*
X99078752Y-91360242D01*
X99078752Y-91360242D02*
X99186502Y-91467992D01*
X98593879Y-91360242D02*
X99159565Y-90794557D01*
X99159565Y-90794557D02*
X98944065Y-90579057D01*
X98944065Y-90579057D02*
X98863253Y-90552120D01*
X98863253Y-90552120D02*
X98809378Y-90552120D01*
X98809378Y-90552120D02*
X98728566Y-90579057D01*
X98728566Y-90579057D02*
X98647754Y-90659870D01*
X98647754Y-90659870D02*
X98620817Y-90740682D01*
X98620817Y-90740682D02*
X98620817Y-90794557D01*
X98620817Y-90794557D02*
X98647754Y-90875369D01*
X98647754Y-90875369D02*
X98863253Y-91090868D01*
X98566942Y-90309683D02*
X98566942Y-90255809D01*
X98566942Y-90255809D02*
X98540004Y-90174996D01*
X98540004Y-90174996D02*
X98405317Y-90040309D01*
X98405317Y-90040309D02*
X98324505Y-90013372D01*
X98324505Y-90013372D02*
X98270630Y-90013372D01*
X98270630Y-90013372D02*
X98189818Y-90040309D01*
X98189818Y-90040309D02*
X98135943Y-90094184D01*
X98135943Y-90094184D02*
X98082069Y-90201934D01*
X98082069Y-90201934D02*
X98082069Y-90848431D01*
X98082069Y-90848431D02*
X97731882Y-90498245D01*
X98109006Y-89743998D02*
X97731882Y-89366874D01*
X97731882Y-89366874D02*
X97408633Y-90174996D01*
X99402001Y-85746868D02*
X99482814Y-85773805D01*
X99482814Y-85773805D02*
X99563626Y-85854618D01*
X99563626Y-85854618D02*
X99617501Y-85962367D01*
X99617501Y-85962367D02*
X99617501Y-86070117D01*
X99617501Y-86070117D02*
X99590563Y-86150929D01*
X99590563Y-86150929D02*
X99509751Y-86285616D01*
X99509751Y-86285616D02*
X99428939Y-86366428D01*
X99428939Y-86366428D02*
X99294252Y-86447241D01*
X99294252Y-86447241D02*
X99213439Y-86474178D01*
X99213439Y-86474178D02*
X99105690Y-86474178D01*
X99105690Y-86474178D02*
X98997940Y-86420303D01*
X98997940Y-86420303D02*
X98944065Y-86366428D01*
X98944065Y-86366428D02*
X98890191Y-86258679D01*
X98890191Y-86258679D02*
X98890191Y-86204804D01*
X98890191Y-86204804D02*
X99078752Y-86016242D01*
X99078752Y-86016242D02*
X99186502Y-86123992D01*
X98593879Y-86016242D02*
X99159565Y-85450557D01*
X99159565Y-85450557D02*
X98944065Y-85235057D01*
X98944065Y-85235057D02*
X98863253Y-85208120D01*
X98863253Y-85208120D02*
X98809378Y-85208120D01*
X98809378Y-85208120D02*
X98728566Y-85235057D01*
X98728566Y-85235057D02*
X98647754Y-85315870D01*
X98647754Y-85315870D02*
X98620817Y-85396682D01*
X98620817Y-85396682D02*
X98620817Y-85450557D01*
X98620817Y-85450557D02*
X98647754Y-85531369D01*
X98647754Y-85531369D02*
X98863253Y-85746868D01*
X98566942Y-84965683D02*
X98566942Y-84911809D01*
X98566942Y-84911809D02*
X98540004Y-84830996D01*
X98540004Y-84830996D02*
X98405317Y-84696309D01*
X98405317Y-84696309D02*
X98324505Y-84669372D01*
X98324505Y-84669372D02*
X98270630Y-84669372D01*
X98270630Y-84669372D02*
X98189818Y-84696309D01*
X98189818Y-84696309D02*
X98135943Y-84750184D01*
X98135943Y-84750184D02*
X98082069Y-84857934D01*
X98082069Y-84857934D02*
X98082069Y-85504431D01*
X98082069Y-85504431D02*
X97731882Y-85154245D01*
X97731882Y-84507747D02*
X97812694Y-84534685D01*
X97812694Y-84534685D02*
X97866569Y-84534685D01*
X97866569Y-84534685D02*
X97947381Y-84507747D01*
X97947381Y-84507747D02*
X97974319Y-84480810D01*
X97974319Y-84480810D02*
X98001256Y-84399998D01*
X98001256Y-84399998D02*
X98001256Y-84346123D01*
X98001256Y-84346123D02*
X97974319Y-84265311D01*
X97974319Y-84265311D02*
X97866569Y-84157561D01*
X97866569Y-84157561D02*
X97785757Y-84130624D01*
X97785757Y-84130624D02*
X97731882Y-84130624D01*
X97731882Y-84130624D02*
X97651070Y-84157561D01*
X97651070Y-84157561D02*
X97624133Y-84184499D01*
X97624133Y-84184499D02*
X97597195Y-84265311D01*
X97597195Y-84265311D02*
X97597195Y-84319186D01*
X97597195Y-84319186D02*
X97624133Y-84399998D01*
X97624133Y-84399998D02*
X97731882Y-84507747D01*
X97731882Y-84507747D02*
X97758820Y-84588560D01*
X97758820Y-84588560D02*
X97758820Y-84642434D01*
X97758820Y-84642434D02*
X97731882Y-84723247D01*
X97731882Y-84723247D02*
X97624133Y-84830996D01*
X97624133Y-84830996D02*
X97543320Y-84857934D01*
X97543320Y-84857934D02*
X97489446Y-84857934D01*
X97489446Y-84857934D02*
X97408633Y-84830996D01*
X97408633Y-84830996D02*
X97300884Y-84723247D01*
X97300884Y-84723247D02*
X97273946Y-84642434D01*
X97273946Y-84642434D02*
X97273946Y-84588560D01*
X97273946Y-84588560D02*
X97300884Y-84507747D01*
X97300884Y-84507747D02*
X97408633Y-84399998D01*
X97408633Y-84399998D02*
X97489446Y-84373060D01*
X97489446Y-84373060D02*
X97543320Y-84373060D01*
X97543320Y-84373060D02*
X97624133Y-84399998D01*
X107595238Y-121024200D02*
X107480952Y-121062295D01*
X107480952Y-121062295D02*
X107290476Y-121062295D01*
X107290476Y-121062295D02*
X107214285Y-121024200D01*
X107214285Y-121024200D02*
X107176190Y-120986104D01*
X107176190Y-120986104D02*
X107138095Y-120909914D01*
X107138095Y-120909914D02*
X107138095Y-120833723D01*
X107138095Y-120833723D02*
X107176190Y-120757533D01*
X107176190Y-120757533D02*
X107214285Y-120719438D01*
X107214285Y-120719438D02*
X107290476Y-120681342D01*
X107290476Y-120681342D02*
X107442857Y-120643247D01*
X107442857Y-120643247D02*
X107519047Y-120605152D01*
X107519047Y-120605152D02*
X107557142Y-120567057D01*
X107557142Y-120567057D02*
X107595238Y-120490866D01*
X107595238Y-120490866D02*
X107595238Y-120414676D01*
X107595238Y-120414676D02*
X107557142Y-120338485D01*
X107557142Y-120338485D02*
X107519047Y-120300390D01*
X107519047Y-120300390D02*
X107442857Y-120262295D01*
X107442857Y-120262295D02*
X107252380Y-120262295D01*
X107252380Y-120262295D02*
X107138095Y-120300390D01*
X106871428Y-120262295D02*
X106680952Y-121062295D01*
X106680952Y-121062295D02*
X106528571Y-120490866D01*
X106528571Y-120490866D02*
X106376190Y-121062295D01*
X106376190Y-121062295D02*
X106185714Y-120262295D01*
X105880951Y-121062295D02*
X105880951Y-120262295D01*
X105880951Y-120262295D02*
X105690475Y-120262295D01*
X105690475Y-120262295D02*
X105576189Y-120300390D01*
X105576189Y-120300390D02*
X105499999Y-120376580D01*
X105499999Y-120376580D02*
X105461904Y-120452771D01*
X105461904Y-120452771D02*
X105423808Y-120605152D01*
X105423808Y-120605152D02*
X105423808Y-120719438D01*
X105423808Y-120719438D02*
X105461904Y-120871819D01*
X105461904Y-120871819D02*
X105499999Y-120948009D01*
X105499999Y-120948009D02*
X105576189Y-121024200D01*
X105576189Y-121024200D02*
X105690475Y-121062295D01*
X105690475Y-121062295D02*
X105880951Y-121062295D01*
X105080951Y-121062295D02*
X105080951Y-120262295D01*
X104547618Y-120262295D02*
X104395237Y-120262295D01*
X104395237Y-120262295D02*
X104319047Y-120300390D01*
X104319047Y-120300390D02*
X104242856Y-120376580D01*
X104242856Y-120376580D02*
X104204761Y-120528961D01*
X104204761Y-120528961D02*
X104204761Y-120795628D01*
X104204761Y-120795628D02*
X104242856Y-120948009D01*
X104242856Y-120948009D02*
X104319047Y-121024200D01*
X104319047Y-121024200D02*
X104395237Y-121062295D01*
X104395237Y-121062295D02*
X104547618Y-121062295D01*
X104547618Y-121062295D02*
X104623809Y-121024200D01*
X104623809Y-121024200D02*
X104699999Y-120948009D01*
X104699999Y-120948009D02*
X104738095Y-120795628D01*
X104738095Y-120795628D02*
X104738095Y-120528961D01*
X104738095Y-120528961D02*
X104699999Y-120376580D01*
X104699999Y-120376580D02*
X104623809Y-120300390D01*
X104623809Y-120300390D02*
X104547618Y-120262295D01*
X124986627Y-70491494D02*
X125067439Y-70518431D01*
X125067439Y-70518431D02*
X125148251Y-70599243D01*
X125148251Y-70599243D02*
X125202126Y-70706993D01*
X125202126Y-70706993D02*
X125202126Y-70814742D01*
X125202126Y-70814742D02*
X125175189Y-70895555D01*
X125175189Y-70895555D02*
X125094376Y-71030242D01*
X125094376Y-71030242D02*
X125013564Y-71111054D01*
X125013564Y-71111054D02*
X124878877Y-71191866D01*
X124878877Y-71191866D02*
X124798065Y-71218803D01*
X124798065Y-71218803D02*
X124690315Y-71218803D01*
X124690315Y-71218803D02*
X124582566Y-71164929D01*
X124582566Y-71164929D02*
X124528691Y-71111054D01*
X124528691Y-71111054D02*
X124474816Y-71003304D01*
X124474816Y-71003304D02*
X124474816Y-70949429D01*
X124474816Y-70949429D02*
X124663378Y-70760868D01*
X124663378Y-70760868D02*
X124771128Y-70868617D01*
X124178505Y-70760868D02*
X124744190Y-70195182D01*
X124744190Y-70195182D02*
X124528691Y-69979683D01*
X124528691Y-69979683D02*
X124447879Y-69952746D01*
X124447879Y-69952746D02*
X124394004Y-69952746D01*
X124394004Y-69952746D02*
X124313192Y-69979683D01*
X124313192Y-69979683D02*
X124232380Y-70060495D01*
X124232380Y-70060495D02*
X124205442Y-70141307D01*
X124205442Y-70141307D02*
X124205442Y-70195182D01*
X124205442Y-70195182D02*
X124232380Y-70275994D01*
X124232380Y-70275994D02*
X124447879Y-70491494D01*
X124070755Y-69521747D02*
X124016880Y-69467872D01*
X124016880Y-69467872D02*
X123936068Y-69440935D01*
X123936068Y-69440935D02*
X123882193Y-69440935D01*
X123882193Y-69440935D02*
X123801381Y-69467872D01*
X123801381Y-69467872D02*
X123666694Y-69548685D01*
X123666694Y-69548685D02*
X123532007Y-69683372D01*
X123532007Y-69683372D02*
X123451195Y-69818059D01*
X123451195Y-69818059D02*
X123424258Y-69898871D01*
X123424258Y-69898871D02*
X123424258Y-69952746D01*
X123424258Y-69952746D02*
X123451195Y-70033558D01*
X123451195Y-70033558D02*
X123505070Y-70087433D01*
X123505070Y-70087433D02*
X123585882Y-70114370D01*
X123585882Y-70114370D02*
X123639757Y-70114370D01*
X123639757Y-70114370D02*
X123720569Y-70087433D01*
X123720569Y-70087433D02*
X123855256Y-70006620D01*
X123855256Y-70006620D02*
X123989943Y-69871933D01*
X123989943Y-69871933D02*
X124070755Y-69737246D01*
X124070755Y-69737246D02*
X124097693Y-69656434D01*
X124097693Y-69656434D02*
X124097693Y-69602559D01*
X124097693Y-69602559D02*
X124070755Y-69521747D01*
X124986627Y-83191494D02*
X125067439Y-83218431D01*
X125067439Y-83218431D02*
X125148251Y-83299243D01*
X125148251Y-83299243D02*
X125202126Y-83406993D01*
X125202126Y-83406993D02*
X125202126Y-83514742D01*
X125202126Y-83514742D02*
X125175189Y-83595555D01*
X125175189Y-83595555D02*
X125094376Y-83730242D01*
X125094376Y-83730242D02*
X125013564Y-83811054D01*
X125013564Y-83811054D02*
X124878877Y-83891866D01*
X124878877Y-83891866D02*
X124798065Y-83918803D01*
X124798065Y-83918803D02*
X124690315Y-83918803D01*
X124690315Y-83918803D02*
X124582566Y-83864929D01*
X124582566Y-83864929D02*
X124528691Y-83811054D01*
X124528691Y-83811054D02*
X124474816Y-83703304D01*
X124474816Y-83703304D02*
X124474816Y-83649429D01*
X124474816Y-83649429D02*
X124663378Y-83460868D01*
X124663378Y-83460868D02*
X124771128Y-83568617D01*
X124178505Y-83460868D02*
X124744190Y-82895182D01*
X124744190Y-82895182D02*
X124528691Y-82679683D01*
X124528691Y-82679683D02*
X124447879Y-82652746D01*
X124447879Y-82652746D02*
X124394004Y-82652746D01*
X124394004Y-82652746D02*
X124313192Y-82679683D01*
X124313192Y-82679683D02*
X124232380Y-82760495D01*
X124232380Y-82760495D02*
X124205442Y-82841307D01*
X124205442Y-82841307D02*
X124205442Y-82895182D01*
X124205442Y-82895182D02*
X124232380Y-82975994D01*
X124232380Y-82975994D02*
X124447879Y-83191494D01*
X123747506Y-82275622D02*
X123370383Y-82652746D01*
X124097693Y-82194810D02*
X123828319Y-82733558D01*
X123828319Y-82733558D02*
X123478132Y-82383372D01*
X125013564Y-113698431D02*
X125094376Y-113725368D01*
X125094376Y-113725368D02*
X125175188Y-113806180D01*
X125175188Y-113806180D02*
X125229063Y-113913930D01*
X125229063Y-113913930D02*
X125229063Y-114021680D01*
X125229063Y-114021680D02*
X125202126Y-114102492D01*
X125202126Y-114102492D02*
X125121314Y-114237179D01*
X125121314Y-114237179D02*
X125040501Y-114317991D01*
X125040501Y-114317991D02*
X124905814Y-114398803D01*
X124905814Y-114398803D02*
X124825002Y-114425741D01*
X124825002Y-114425741D02*
X124717253Y-114425741D01*
X124717253Y-114425741D02*
X124609503Y-114371866D01*
X124609503Y-114371866D02*
X124555628Y-114317991D01*
X124555628Y-114317991D02*
X124501753Y-114210241D01*
X124501753Y-114210241D02*
X124501753Y-114156367D01*
X124501753Y-114156367D02*
X124690315Y-113967805D01*
X124690315Y-113967805D02*
X124798065Y-114075554D01*
X124205442Y-113967805D02*
X124771127Y-113402119D01*
X124771127Y-113402119D02*
X123882193Y-113644556D01*
X123882193Y-113644556D02*
X124447879Y-113078871D01*
X123612819Y-113375182D02*
X124178505Y-112809497D01*
X124178505Y-112809497D02*
X124043818Y-112674810D01*
X124043818Y-112674810D02*
X123936068Y-112620935D01*
X123936068Y-112620935D02*
X123828319Y-112620935D01*
X123828319Y-112620935D02*
X123747506Y-112647872D01*
X123747506Y-112647872D02*
X123612819Y-112728685D01*
X123612819Y-112728685D02*
X123532007Y-112809497D01*
X123532007Y-112809497D02*
X123451195Y-112944184D01*
X123451195Y-112944184D02*
X123424258Y-113024996D01*
X123424258Y-113024996D02*
X123424258Y-113132746D01*
X123424258Y-113132746D02*
X123478132Y-113240495D01*
X123478132Y-113240495D02*
X123612819Y-113375182D01*
X99577592Y-78458584D02*
X99227406Y-78108398D01*
X99227406Y-78108398D02*
X99200468Y-78512459D01*
X99200468Y-78512459D02*
X99119656Y-78431646D01*
X99119656Y-78431646D02*
X99038844Y-78404709D01*
X99038844Y-78404709D02*
X98984969Y-78404709D01*
X98984969Y-78404709D02*
X98904157Y-78431646D01*
X98904157Y-78431646D02*
X98769470Y-78566333D01*
X98769470Y-78566333D02*
X98742532Y-78647146D01*
X98742532Y-78647146D02*
X98742532Y-78701020D01*
X98742532Y-78701020D02*
X98769470Y-78781833D01*
X98769470Y-78781833D02*
X98931094Y-78943457D01*
X98931094Y-78943457D02*
X99011906Y-78970394D01*
X99011906Y-78970394D02*
X99065781Y-78970394D01*
X99065781Y-77946773D02*
X98311534Y-78323897D01*
X98311534Y-78323897D02*
X98688657Y-77569649D01*
X98553971Y-77434963D02*
X98203784Y-77084776D01*
X98203784Y-77084776D02*
X98176847Y-77488837D01*
X98176847Y-77488837D02*
X98096035Y-77408025D01*
X98096035Y-77408025D02*
X98015223Y-77381088D01*
X98015223Y-77381088D02*
X97961348Y-77381088D01*
X97961348Y-77381088D02*
X97880535Y-77408025D01*
X97880535Y-77408025D02*
X97745848Y-77542712D01*
X97745848Y-77542712D02*
X97718911Y-77623524D01*
X97718911Y-77623524D02*
X97718911Y-77677399D01*
X97718911Y-77677399D02*
X97745848Y-77758211D01*
X97745848Y-77758211D02*
X97907473Y-77919836D01*
X97907473Y-77919836D02*
X97988285Y-77946773D01*
X97988285Y-77946773D02*
X98042160Y-77946773D01*
X97476474Y-77596587D02*
X97045476Y-77165588D01*
X97260975Y-76680715D02*
X97072413Y-76492153D01*
X96695290Y-76707652D02*
X96964664Y-76977026D01*
X96964664Y-76977026D02*
X97530349Y-76411341D01*
X97530349Y-76411341D02*
X97260975Y-76141967D01*
X96452853Y-76465215D02*
X97018538Y-75899530D01*
X97018538Y-75899530D02*
X96129604Y-76141967D01*
X96129604Y-76141967D02*
X96695289Y-75576281D01*
X124986627Y-85731494D02*
X125067439Y-85758431D01*
X125067439Y-85758431D02*
X125148251Y-85839243D01*
X125148251Y-85839243D02*
X125202126Y-85946993D01*
X125202126Y-85946993D02*
X125202126Y-86054742D01*
X125202126Y-86054742D02*
X125175189Y-86135555D01*
X125175189Y-86135555D02*
X125094376Y-86270242D01*
X125094376Y-86270242D02*
X125013564Y-86351054D01*
X125013564Y-86351054D02*
X124878877Y-86431866D01*
X124878877Y-86431866D02*
X124798065Y-86458803D01*
X124798065Y-86458803D02*
X124690315Y-86458803D01*
X124690315Y-86458803D02*
X124582566Y-86404929D01*
X124582566Y-86404929D02*
X124528691Y-86351054D01*
X124528691Y-86351054D02*
X124474816Y-86243304D01*
X124474816Y-86243304D02*
X124474816Y-86189429D01*
X124474816Y-86189429D02*
X124663378Y-86000868D01*
X124663378Y-86000868D02*
X124771128Y-86108617D01*
X124178505Y-86000868D02*
X124744190Y-85435182D01*
X124744190Y-85435182D02*
X124528691Y-85219683D01*
X124528691Y-85219683D02*
X124447879Y-85192746D01*
X124447879Y-85192746D02*
X124394004Y-85192746D01*
X124394004Y-85192746D02*
X124313192Y-85219683D01*
X124313192Y-85219683D02*
X124232380Y-85300495D01*
X124232380Y-85300495D02*
X124205442Y-85381307D01*
X124205442Y-85381307D02*
X124205442Y-85435182D01*
X124205442Y-85435182D02*
X124232380Y-85515994D01*
X124232380Y-85515994D02*
X124447879Y-85731494D01*
X123909131Y-84600123D02*
X124178505Y-84869497D01*
X124178505Y-84869497D02*
X123936068Y-85165808D01*
X123936068Y-85165808D02*
X123936068Y-85111933D01*
X123936068Y-85111933D02*
X123909131Y-85031121D01*
X123909131Y-85031121D02*
X123774444Y-84896434D01*
X123774444Y-84896434D02*
X123693632Y-84869497D01*
X123693632Y-84869497D02*
X123639757Y-84869497D01*
X123639757Y-84869497D02*
X123558945Y-84896434D01*
X123558945Y-84896434D02*
X123424258Y-85031121D01*
X123424258Y-85031121D02*
X123397320Y-85111933D01*
X123397320Y-85111933D02*
X123397320Y-85165808D01*
X123397320Y-85165808D02*
X123424258Y-85246620D01*
X123424258Y-85246620D02*
X123558945Y-85381307D01*
X123558945Y-85381307D02*
X123639757Y-85408245D01*
X123639757Y-85408245D02*
X123693632Y-85408245D01*
X99402001Y-98700868D02*
X99482814Y-98727805D01*
X99482814Y-98727805D02*
X99563626Y-98808618D01*
X99563626Y-98808618D02*
X99617501Y-98916367D01*
X99617501Y-98916367D02*
X99617501Y-99024117D01*
X99617501Y-99024117D02*
X99590563Y-99104929D01*
X99590563Y-99104929D02*
X99509751Y-99239616D01*
X99509751Y-99239616D02*
X99428939Y-99320428D01*
X99428939Y-99320428D02*
X99294252Y-99401241D01*
X99294252Y-99401241D02*
X99213439Y-99428178D01*
X99213439Y-99428178D02*
X99105690Y-99428178D01*
X99105690Y-99428178D02*
X98997940Y-99374303D01*
X98997940Y-99374303D02*
X98944065Y-99320428D01*
X98944065Y-99320428D02*
X98890191Y-99212679D01*
X98890191Y-99212679D02*
X98890191Y-99158804D01*
X98890191Y-99158804D02*
X99078752Y-98970242D01*
X99078752Y-98970242D02*
X99186502Y-99077992D01*
X98593879Y-98970242D02*
X99159565Y-98404557D01*
X99159565Y-98404557D02*
X98944065Y-98189057D01*
X98944065Y-98189057D02*
X98863253Y-98162120D01*
X98863253Y-98162120D02*
X98809378Y-98162120D01*
X98809378Y-98162120D02*
X98728566Y-98189057D01*
X98728566Y-98189057D02*
X98647754Y-98269870D01*
X98647754Y-98269870D02*
X98620817Y-98350682D01*
X98620817Y-98350682D02*
X98620817Y-98404557D01*
X98620817Y-98404557D02*
X98647754Y-98485369D01*
X98647754Y-98485369D02*
X98863253Y-98700868D01*
X98566942Y-97919683D02*
X98566942Y-97865809D01*
X98566942Y-97865809D02*
X98540004Y-97784996D01*
X98540004Y-97784996D02*
X98405317Y-97650309D01*
X98405317Y-97650309D02*
X98324505Y-97623372D01*
X98324505Y-97623372D02*
X98270630Y-97623372D01*
X98270630Y-97623372D02*
X98189818Y-97650309D01*
X98189818Y-97650309D02*
X98135943Y-97704184D01*
X98135943Y-97704184D02*
X98082069Y-97811934D01*
X98082069Y-97811934D02*
X98082069Y-98458431D01*
X98082069Y-98458431D02*
X97731882Y-98108245D01*
X98028194Y-97380935D02*
X98028194Y-97327060D01*
X98028194Y-97327060D02*
X98001256Y-97246248D01*
X98001256Y-97246248D02*
X97866569Y-97111561D01*
X97866569Y-97111561D02*
X97785757Y-97084624D01*
X97785757Y-97084624D02*
X97731882Y-97084624D01*
X97731882Y-97084624D02*
X97651070Y-97111561D01*
X97651070Y-97111561D02*
X97597195Y-97165436D01*
X97597195Y-97165436D02*
X97543320Y-97273186D01*
X97543320Y-97273186D02*
X97543320Y-97919683D01*
X97543320Y-97919683D02*
X97193134Y-97569497D01*
X124986627Y-98431494D02*
X125067439Y-98458431D01*
X125067439Y-98458431D02*
X125148251Y-98539243D01*
X125148251Y-98539243D02*
X125202126Y-98646993D01*
X125202126Y-98646993D02*
X125202126Y-98754742D01*
X125202126Y-98754742D02*
X125175189Y-98835555D01*
X125175189Y-98835555D02*
X125094376Y-98970242D01*
X125094376Y-98970242D02*
X125013564Y-99051054D01*
X125013564Y-99051054D02*
X124878877Y-99131866D01*
X124878877Y-99131866D02*
X124798065Y-99158803D01*
X124798065Y-99158803D02*
X124690315Y-99158803D01*
X124690315Y-99158803D02*
X124582566Y-99104929D01*
X124582566Y-99104929D02*
X124528691Y-99051054D01*
X124528691Y-99051054D02*
X124474816Y-98943304D01*
X124474816Y-98943304D02*
X124474816Y-98889429D01*
X124474816Y-98889429D02*
X124663378Y-98700868D01*
X124663378Y-98700868D02*
X124771128Y-98808617D01*
X124178505Y-98700868D02*
X124744190Y-98135182D01*
X124744190Y-98135182D02*
X124528691Y-97919683D01*
X124528691Y-97919683D02*
X124447879Y-97892746D01*
X124447879Y-97892746D02*
X124394004Y-97892746D01*
X124394004Y-97892746D02*
X124313192Y-97919683D01*
X124313192Y-97919683D02*
X124232380Y-98000495D01*
X124232380Y-98000495D02*
X124205442Y-98081307D01*
X124205442Y-98081307D02*
X124205442Y-98135182D01*
X124205442Y-98135182D02*
X124232380Y-98215994D01*
X124232380Y-98215994D02*
X124447879Y-98431494D01*
X123585882Y-98108245D02*
X123478132Y-98000495D01*
X123478132Y-98000495D02*
X123451195Y-97919683D01*
X123451195Y-97919683D02*
X123451195Y-97865808D01*
X123451195Y-97865808D02*
X123478132Y-97731121D01*
X123478132Y-97731121D02*
X123558945Y-97596434D01*
X123558945Y-97596434D02*
X123774444Y-97380935D01*
X123774444Y-97380935D02*
X123855256Y-97353998D01*
X123855256Y-97353998D02*
X123909131Y-97353998D01*
X123909131Y-97353998D02*
X123989943Y-97380935D01*
X123989943Y-97380935D02*
X124097693Y-97488685D01*
X124097693Y-97488685D02*
X124124630Y-97569497D01*
X124124630Y-97569497D02*
X124124630Y-97623372D01*
X124124630Y-97623372D02*
X124097693Y-97704184D01*
X124097693Y-97704184D02*
X123963006Y-97838871D01*
X123963006Y-97838871D02*
X123882193Y-97865808D01*
X123882193Y-97865808D02*
X123828319Y-97865808D01*
X123828319Y-97865808D02*
X123747506Y-97838871D01*
X123747506Y-97838871D02*
X123639757Y-97731121D01*
X123639757Y-97731121D02*
X123612819Y-97650309D01*
X123612819Y-97650309D02*
X123612819Y-97596434D01*
X123612819Y-97596434D02*
X123639757Y-97515622D01*
X125656001Y-106320868D02*
X125736814Y-106347805D01*
X125736814Y-106347805D02*
X125817626Y-106428618D01*
X125817626Y-106428618D02*
X125871501Y-106536367D01*
X125871501Y-106536367D02*
X125871501Y-106644117D01*
X125871501Y-106644117D02*
X125844563Y-106724929D01*
X125844563Y-106724929D02*
X125763751Y-106859616D01*
X125763751Y-106859616D02*
X125682939Y-106940428D01*
X125682939Y-106940428D02*
X125548252Y-107021241D01*
X125548252Y-107021241D02*
X125467439Y-107048178D01*
X125467439Y-107048178D02*
X125359690Y-107048178D01*
X125359690Y-107048178D02*
X125251940Y-106994303D01*
X125251940Y-106994303D02*
X125198065Y-106940428D01*
X125198065Y-106940428D02*
X125144191Y-106832679D01*
X125144191Y-106832679D02*
X125144191Y-106778804D01*
X125144191Y-106778804D02*
X125332752Y-106590242D01*
X125332752Y-106590242D02*
X125440502Y-106697992D01*
X124847879Y-106590242D02*
X125413565Y-106024557D01*
X125413565Y-106024557D02*
X125198065Y-105809057D01*
X125198065Y-105809057D02*
X125117253Y-105782120D01*
X125117253Y-105782120D02*
X125063378Y-105782120D01*
X125063378Y-105782120D02*
X124982566Y-105809057D01*
X124982566Y-105809057D02*
X124901754Y-105889870D01*
X124901754Y-105889870D02*
X124874817Y-105970682D01*
X124874817Y-105970682D02*
X124874817Y-106024557D01*
X124874817Y-106024557D02*
X124901754Y-106105369D01*
X124901754Y-106105369D02*
X125117253Y-106320868D01*
X123985882Y-105728245D02*
X124309131Y-106051494D01*
X124147507Y-105889870D02*
X124713192Y-105324184D01*
X124713192Y-105324184D02*
X124686255Y-105458871D01*
X124686255Y-105458871D02*
X124686255Y-105566621D01*
X124686255Y-105566621D02*
X124713192Y-105647433D01*
X123447134Y-105189497D02*
X123770383Y-105512746D01*
X123608759Y-105351121D02*
X124174444Y-104785436D01*
X124174444Y-104785436D02*
X124147507Y-104920123D01*
X124147507Y-104920123D02*
X124147507Y-105027873D01*
X124147507Y-105027873D02*
X124174444Y-105108685D01*
X99609876Y-80990868D02*
X99259690Y-80640682D01*
X99259690Y-80640682D02*
X99232752Y-81044743D01*
X99232752Y-81044743D02*
X99151940Y-80963931D01*
X99151940Y-80963931D02*
X99071128Y-80936993D01*
X99071128Y-80936993D02*
X99017253Y-80936993D01*
X99017253Y-80936993D02*
X98936441Y-80963931D01*
X98936441Y-80963931D02*
X98801754Y-81098618D01*
X98801754Y-81098618D02*
X98774817Y-81179430D01*
X98774817Y-81179430D02*
X98774817Y-81233305D01*
X98774817Y-81233305D02*
X98801754Y-81314117D01*
X98801754Y-81314117D02*
X98963378Y-81475741D01*
X98963378Y-81475741D02*
X99044191Y-81502679D01*
X99044191Y-81502679D02*
X99098065Y-81502679D01*
X99098065Y-80479057D02*
X98343818Y-80856181D01*
X98343818Y-80856181D02*
X98720942Y-80101934D01*
X98586255Y-79967247D02*
X98236069Y-79617061D01*
X98236069Y-79617061D02*
X98209131Y-80021122D01*
X98209131Y-80021122D02*
X98128319Y-79940309D01*
X98128319Y-79940309D02*
X98047507Y-79913372D01*
X98047507Y-79913372D02*
X97993632Y-79913372D01*
X97993632Y-79913372D02*
X97912820Y-79940309D01*
X97912820Y-79940309D02*
X97778133Y-80074996D01*
X97778133Y-80074996D02*
X97751195Y-80155809D01*
X97751195Y-80155809D02*
X97751195Y-80209683D01*
X97751195Y-80209683D02*
X97778133Y-80290496D01*
X97778133Y-80290496D02*
X97939757Y-80452120D01*
X97939757Y-80452120D02*
X98020569Y-80479057D01*
X98020569Y-80479057D02*
X98074444Y-80479057D01*
X125086627Y-73021494D02*
X125167439Y-73048431D01*
X125167439Y-73048431D02*
X125248251Y-73129243D01*
X125248251Y-73129243D02*
X125302126Y-73236993D01*
X125302126Y-73236993D02*
X125302126Y-73344742D01*
X125302126Y-73344742D02*
X125275189Y-73425555D01*
X125275189Y-73425555D02*
X125194376Y-73560242D01*
X125194376Y-73560242D02*
X125113564Y-73641054D01*
X125113564Y-73641054D02*
X124978877Y-73721866D01*
X124978877Y-73721866D02*
X124898065Y-73748803D01*
X124898065Y-73748803D02*
X124790315Y-73748803D01*
X124790315Y-73748803D02*
X124682566Y-73694929D01*
X124682566Y-73694929D02*
X124628691Y-73641054D01*
X124628691Y-73641054D02*
X124574816Y-73533304D01*
X124574816Y-73533304D02*
X124574816Y-73479429D01*
X124574816Y-73479429D02*
X124763378Y-73290868D01*
X124763378Y-73290868D02*
X124871128Y-73398617D01*
X124278505Y-73290868D02*
X124844190Y-72725182D01*
X124844190Y-72725182D02*
X124628691Y-72509683D01*
X124628691Y-72509683D02*
X124547879Y-72482746D01*
X124547879Y-72482746D02*
X124494004Y-72482746D01*
X124494004Y-72482746D02*
X124413192Y-72509683D01*
X124413192Y-72509683D02*
X124332380Y-72590495D01*
X124332380Y-72590495D02*
X124305442Y-72671307D01*
X124305442Y-72671307D02*
X124305442Y-72725182D01*
X124305442Y-72725182D02*
X124332380Y-72805994D01*
X124332380Y-72805994D02*
X124547879Y-73021494D01*
X123416508Y-72428871D02*
X123739757Y-72752120D01*
X123578132Y-72590495D02*
X124143818Y-72024810D01*
X124143818Y-72024810D02*
X124116880Y-72159497D01*
X124116880Y-72159497D02*
X124116880Y-72267246D01*
X124116880Y-72267246D02*
X124143818Y-72348059D01*
X99579250Y-73570242D02*
X98825003Y-73947366D01*
X98825003Y-73947366D02*
X99202126Y-73193118D01*
X98501754Y-73570242D02*
X98394004Y-73516367D01*
X98394004Y-73516367D02*
X98259317Y-73381680D01*
X98259317Y-73381680D02*
X98232380Y-73300868D01*
X98232380Y-73300868D02*
X98232380Y-73246993D01*
X98232380Y-73246993D02*
X98259317Y-73166181D01*
X98259317Y-73166181D02*
X98313192Y-73112306D01*
X98313192Y-73112306D02*
X98394004Y-73085369D01*
X98394004Y-73085369D02*
X98447879Y-73085369D01*
X98447879Y-73085369D02*
X98528691Y-73112306D01*
X98528691Y-73112306D02*
X98663378Y-73193118D01*
X98663378Y-73193118D02*
X98744191Y-73220056D01*
X98744191Y-73220056D02*
X98798065Y-73220056D01*
X98798065Y-73220056D02*
X98878878Y-73193118D01*
X98878878Y-73193118D02*
X98932752Y-73139244D01*
X98932752Y-73139244D02*
X98959690Y-73058431D01*
X98959690Y-73058431D02*
X98959690Y-73004557D01*
X98959690Y-73004557D02*
X98932752Y-72923744D01*
X98932752Y-72923744D02*
X98798065Y-72789057D01*
X98798065Y-72789057D02*
X98690316Y-72735183D01*
X98070755Y-72654370D02*
X97801381Y-72923744D01*
X98555629Y-72546621D02*
X98070755Y-72654370D01*
X98070755Y-72654370D02*
X98178505Y-72169497D01*
X97478133Y-72546621D02*
X97370383Y-72492746D01*
X97370383Y-72492746D02*
X97235696Y-72358059D01*
X97235696Y-72358059D02*
X97208759Y-72277247D01*
X97208759Y-72277247D02*
X97208759Y-72223372D01*
X97208759Y-72223372D02*
X97235696Y-72142560D01*
X97235696Y-72142560D02*
X97289571Y-72088685D01*
X97289571Y-72088685D02*
X97370383Y-72061748D01*
X97370383Y-72061748D02*
X97424258Y-72061748D01*
X97424258Y-72061748D02*
X97505070Y-72088685D01*
X97505070Y-72088685D02*
X97639757Y-72169497D01*
X97639757Y-72169497D02*
X97720569Y-72196435D01*
X97720569Y-72196435D02*
X97774444Y-72196435D01*
X97774444Y-72196435D02*
X97855256Y-72169497D01*
X97855256Y-72169497D02*
X97909131Y-72115622D01*
X97909131Y-72115622D02*
X97936069Y-72034810D01*
X97936069Y-72034810D02*
X97936069Y-71980935D01*
X97936069Y-71980935D02*
X97909131Y-71900123D01*
X97909131Y-71900123D02*
X97774444Y-71765436D01*
X97774444Y-71765436D02*
X97666695Y-71711561D01*
X125556001Y-116480868D02*
X125636814Y-116507805D01*
X125636814Y-116507805D02*
X125717626Y-116588618D01*
X125717626Y-116588618D02*
X125771501Y-116696367D01*
X125771501Y-116696367D02*
X125771501Y-116804117D01*
X125771501Y-116804117D02*
X125744563Y-116884929D01*
X125744563Y-116884929D02*
X125663751Y-117019616D01*
X125663751Y-117019616D02*
X125582939Y-117100428D01*
X125582939Y-117100428D02*
X125448252Y-117181241D01*
X125448252Y-117181241D02*
X125367439Y-117208178D01*
X125367439Y-117208178D02*
X125259690Y-117208178D01*
X125259690Y-117208178D02*
X125151940Y-117154303D01*
X125151940Y-117154303D02*
X125098065Y-117100428D01*
X125098065Y-117100428D02*
X125044191Y-116992679D01*
X125044191Y-116992679D02*
X125044191Y-116938804D01*
X125044191Y-116938804D02*
X125232752Y-116750242D01*
X125232752Y-116750242D02*
X125340502Y-116857992D01*
X124747879Y-116750242D02*
X125313565Y-116184557D01*
X125313565Y-116184557D02*
X125098065Y-115969057D01*
X125098065Y-115969057D02*
X125017253Y-115942120D01*
X125017253Y-115942120D02*
X124963378Y-115942120D01*
X124963378Y-115942120D02*
X124882566Y-115969057D01*
X124882566Y-115969057D02*
X124801754Y-116049870D01*
X124801754Y-116049870D02*
X124774817Y-116130682D01*
X124774817Y-116130682D02*
X124774817Y-116184557D01*
X124774817Y-116184557D02*
X124801754Y-116265369D01*
X124801754Y-116265369D02*
X125017253Y-116480868D01*
X123885882Y-115888245D02*
X124209131Y-116211494D01*
X124047507Y-116049870D02*
X124613192Y-115484184D01*
X124613192Y-115484184D02*
X124586255Y-115618871D01*
X124586255Y-115618871D02*
X124586255Y-115726621D01*
X124586255Y-115726621D02*
X124613192Y-115807433D01*
X123778133Y-115026248D02*
X123401009Y-115403372D01*
X124128319Y-114945436D02*
X123858945Y-115484184D01*
X123858945Y-115484184D02*
X123508759Y-115133998D01*
X99546593Y-71027585D02*
X98792346Y-71404709D01*
X98792346Y-71404709D02*
X99169470Y-70650462D01*
X98522972Y-70542712D02*
X98415223Y-70488838D01*
X98415223Y-70488838D02*
X98361348Y-70488838D01*
X98361348Y-70488838D02*
X98280536Y-70515775D01*
X98280536Y-70515775D02*
X98199723Y-70596587D01*
X98199723Y-70596587D02*
X98172786Y-70677399D01*
X98172786Y-70677399D02*
X98172786Y-70731274D01*
X98172786Y-70731274D02*
X98199723Y-70812086D01*
X98199723Y-70812086D02*
X98415223Y-71027586D01*
X98415223Y-71027586D02*
X98980908Y-70461900D01*
X98980908Y-70461900D02*
X98792346Y-70273338D01*
X98792346Y-70273338D02*
X98711534Y-70246401D01*
X98711534Y-70246401D02*
X98657659Y-70246401D01*
X98657659Y-70246401D02*
X98576847Y-70273338D01*
X98576847Y-70273338D02*
X98522972Y-70327213D01*
X98522972Y-70327213D02*
X98496035Y-70408025D01*
X98496035Y-70408025D02*
X98496035Y-70461900D01*
X98496035Y-70461900D02*
X98522972Y-70542712D01*
X98522972Y-70542712D02*
X98711534Y-70731274D01*
X98415223Y-69896215D02*
X97957287Y-70354151D01*
X97957287Y-70354151D02*
X97876475Y-70381088D01*
X97876475Y-70381088D02*
X97822600Y-70381088D01*
X97822600Y-70381088D02*
X97741788Y-70354151D01*
X97741788Y-70354151D02*
X97634038Y-70246401D01*
X97634038Y-70246401D02*
X97607101Y-70165589D01*
X97607101Y-70165589D02*
X97607101Y-70111714D01*
X97607101Y-70111714D02*
X97634038Y-70030902D01*
X97634038Y-70030902D02*
X98091974Y-69572966D01*
X97310789Y-69869277D02*
X97203040Y-69815403D01*
X97203040Y-69815403D02*
X97068353Y-69680716D01*
X97068353Y-69680716D02*
X97041415Y-69599903D01*
X97041415Y-69599903D02*
X97041415Y-69546029D01*
X97041415Y-69546029D02*
X97068353Y-69465216D01*
X97068353Y-69465216D02*
X97122228Y-69411342D01*
X97122228Y-69411342D02*
X97203040Y-69384404D01*
X97203040Y-69384404D02*
X97256915Y-69384404D01*
X97256915Y-69384404D02*
X97337727Y-69411342D01*
X97337727Y-69411342D02*
X97472414Y-69492154D01*
X97472414Y-69492154D02*
X97553226Y-69519091D01*
X97553226Y-69519091D02*
X97607101Y-69519091D01*
X97607101Y-69519091D02*
X97687913Y-69492154D01*
X97687913Y-69492154D02*
X97741788Y-69438279D01*
X97741788Y-69438279D02*
X97768725Y-69357467D01*
X97768725Y-69357467D02*
X97768725Y-69303592D01*
X97768725Y-69303592D02*
X97741788Y-69222780D01*
X97741788Y-69222780D02*
X97607101Y-69088093D01*
X97607101Y-69088093D02*
X97499351Y-69034218D01*
X124986627Y-90811494D02*
X125067439Y-90838431D01*
X125067439Y-90838431D02*
X125148251Y-90919243D01*
X125148251Y-90919243D02*
X125202126Y-91026993D01*
X125202126Y-91026993D02*
X125202126Y-91134742D01*
X125202126Y-91134742D02*
X125175189Y-91215555D01*
X125175189Y-91215555D02*
X125094376Y-91350242D01*
X125094376Y-91350242D02*
X125013564Y-91431054D01*
X125013564Y-91431054D02*
X124878877Y-91511866D01*
X124878877Y-91511866D02*
X124798065Y-91538803D01*
X124798065Y-91538803D02*
X124690315Y-91538803D01*
X124690315Y-91538803D02*
X124582566Y-91484929D01*
X124582566Y-91484929D02*
X124528691Y-91431054D01*
X124528691Y-91431054D02*
X124474816Y-91323304D01*
X124474816Y-91323304D02*
X124474816Y-91269429D01*
X124474816Y-91269429D02*
X124663378Y-91080868D01*
X124663378Y-91080868D02*
X124771128Y-91188617D01*
X124178505Y-91080868D02*
X124744190Y-90515182D01*
X124744190Y-90515182D02*
X124528691Y-90299683D01*
X124528691Y-90299683D02*
X124447879Y-90272746D01*
X124447879Y-90272746D02*
X124394004Y-90272746D01*
X124394004Y-90272746D02*
X124313192Y-90299683D01*
X124313192Y-90299683D02*
X124232380Y-90380495D01*
X124232380Y-90380495D02*
X124205442Y-90461307D01*
X124205442Y-90461307D02*
X124205442Y-90515182D01*
X124205442Y-90515182D02*
X124232380Y-90595994D01*
X124232380Y-90595994D02*
X124447879Y-90811494D01*
X123936068Y-89707060D02*
X124043818Y-89814810D01*
X124043818Y-89814810D02*
X124070755Y-89895622D01*
X124070755Y-89895622D02*
X124070755Y-89949497D01*
X124070755Y-89949497D02*
X124043818Y-90084184D01*
X124043818Y-90084184D02*
X123963006Y-90218871D01*
X123963006Y-90218871D02*
X123747506Y-90434370D01*
X123747506Y-90434370D02*
X123666694Y-90461307D01*
X123666694Y-90461307D02*
X123612819Y-90461307D01*
X123612819Y-90461307D02*
X123532007Y-90434370D01*
X123532007Y-90434370D02*
X123424258Y-90326620D01*
X123424258Y-90326620D02*
X123397320Y-90245808D01*
X123397320Y-90245808D02*
X123397320Y-90191933D01*
X123397320Y-90191933D02*
X123424258Y-90111121D01*
X123424258Y-90111121D02*
X123558945Y-89976434D01*
X123558945Y-89976434D02*
X123639757Y-89949497D01*
X123639757Y-89949497D02*
X123693632Y-89949497D01*
X123693632Y-89949497D02*
X123774444Y-89976434D01*
X123774444Y-89976434D02*
X123882193Y-90084184D01*
X123882193Y-90084184D02*
X123909131Y-90164996D01*
X123909131Y-90164996D02*
X123909131Y-90218871D01*
X123909131Y-90218871D02*
X123882193Y-90299683D01*
X98661348Y-96443710D02*
X99119283Y-96362898D01*
X98984596Y-96766959D02*
X99550282Y-96201274D01*
X99550282Y-96201274D02*
X99334783Y-95985775D01*
X99334783Y-95985775D02*
X99253970Y-95958837D01*
X99253970Y-95958837D02*
X99200096Y-95958837D01*
X99200096Y-95958837D02*
X99119283Y-95985775D01*
X99119283Y-95985775D02*
X99038471Y-96066587D01*
X99038471Y-96066587D02*
X99011534Y-96147399D01*
X99011534Y-96147399D02*
X99011534Y-96201274D01*
X99011534Y-96201274D02*
X99038471Y-96282086D01*
X99038471Y-96282086D02*
X99253970Y-96497585D01*
X98984596Y-95635588D02*
X98526661Y-96093524D01*
X98526661Y-96093524D02*
X98445848Y-96120462D01*
X98445848Y-96120462D02*
X98391974Y-96120462D01*
X98391974Y-96120462D02*
X98311161Y-96093524D01*
X98311161Y-96093524D02*
X98203412Y-95985775D01*
X98203412Y-95985775D02*
X98176474Y-95904962D01*
X98176474Y-95904962D02*
X98176474Y-95851088D01*
X98176474Y-95851088D02*
X98203412Y-95770275D01*
X98203412Y-95770275D02*
X98661348Y-95312340D01*
X97826288Y-95608651D02*
X98391974Y-95042966D01*
X98391974Y-95042966D02*
X97503040Y-95285402D01*
X97503040Y-95285402D02*
X98068725Y-94719717D01*
D11*
X101000000Y-69000000D02*
X122000000Y-69000000D01*
X101000000Y-69300000D02*
X101000000Y-69000000D01*
X101000000Y-71800000D02*
X101000000Y-71400000D01*
X101000000Y-74400000D02*
X101000000Y-74000000D01*
X101000000Y-76900000D02*
X101000000Y-76500000D01*
X101000000Y-79500000D02*
X101000000Y-79100000D01*
X101000000Y-82000000D02*
X101000000Y-81600000D01*
X101000000Y-84500000D02*
X101000000Y-84100000D01*
X101000000Y-87100000D02*
X101000000Y-86700000D01*
X101000000Y-89600000D02*
X101000000Y-89200000D01*
X101000000Y-92200000D02*
X101000000Y-91800000D01*
X101000000Y-94700000D02*
X101000000Y-94300000D01*
X101000000Y-97200000D02*
X101000000Y-96800000D01*
X101000000Y-99800000D02*
X101000000Y-99400000D01*
X101000000Y-102300000D02*
X101000000Y-101900000D01*
X101000000Y-104900000D02*
X101000000Y-104500000D01*
X101000000Y-107400000D02*
X101000000Y-107000000D01*
X101000000Y-110000000D02*
X101000000Y-109600000D01*
X101000000Y-112500000D02*
X101000000Y-112100000D01*
X101000000Y-115000000D02*
X101000000Y-114600000D01*
X101000000Y-117600000D02*
X101000000Y-117200000D01*
X107800000Y-120000000D02*
X101000000Y-120000000D01*
X110000000Y-120000000D02*
X110400000Y-120000000D01*
X112600000Y-120000000D02*
X113000000Y-120000000D01*
X118993000Y-69000000D02*
X118993000Y-71667000D01*
X118993000Y-71667000D02*
X122000000Y-71667000D01*
X122000000Y-69300000D02*
X122000000Y-69000000D01*
X122000000Y-71800000D02*
X122000000Y-71400000D01*
X122000000Y-74400000D02*
X122000000Y-74000000D01*
X122000000Y-76900000D02*
X122000000Y-76500000D01*
X122000000Y-79500000D02*
X122000000Y-79100000D01*
X122000000Y-82000000D02*
X122000000Y-81600000D01*
X122000000Y-84500000D02*
X122000000Y-84100000D01*
X122000000Y-87100000D02*
X122000000Y-86700000D01*
X122000000Y-89600000D02*
X122000000Y-89200000D01*
X122000000Y-92200000D02*
X122000000Y-91800000D01*
X122000000Y-94700000D02*
X122000000Y-94300000D01*
X122000000Y-97200000D02*
X122000000Y-96800000D01*
X122000000Y-99800000D02*
X122000000Y-99400000D01*
X122000000Y-102300000D02*
X122000000Y-101900000D01*
X122000000Y-104900000D02*
X122000000Y-104500000D01*
X122000000Y-107400000D02*
X122000000Y-107000000D01*
X122000000Y-110000000D02*
X122000000Y-109600000D01*
X122000000Y-112500000D02*
X122000000Y-112100000D01*
X122000000Y-115000000D02*
X122000000Y-114600000D01*
X122000000Y-117600000D02*
X122000000Y-117200000D01*
X122000000Y-120000000D02*
X115200000Y-120000000D01*
M02*
